<?xml version="1.0" standalone="no"?>
<!DOCTYPE svg PUBLIC "-//W3C//DTD SVG 1.1//EN" "http://www.w3.org/Graphics/SVG/1.1/DTD/svg11.dtd" >
<svg xmlns="http://www.w3.org/2000/svg">
<metadata></metadata>
<defs>
<font id="junctionbold" horiz-adv-x="1247" >
<font-face units-per-em="2048" ascent="1536" descent="-512" />
<missing-glyph horiz-adv-x="532" />
<glyph unicode="ff" horiz-adv-x="1345" d="M954 1274v-148h310v-206h-310v-920h-274v920h-246v-920h-274v920h-135v206h135v148q0 176 84 277.5t270 101.5q126 0 274 -78q95 78 246 78q78 0 179 -38.5t163 -76.5l62 -39l-158 -158q-19 12 -49 29.5t-96 46.5t-101 29q-19 0 -32.5 -5.5t-22 -18.5t-13.5 -25t-7.5 -36 t-3 -40t-1.5 -47zM434 1274v-148h246v148q0 62 10 108q-110 64 -176 64q-18 0 -31.5 -5.5t-22 -18t-13.5 -25.5t-8 -36t-3.5 -40.5t-1.5 -46.5z" />
<glyph unicode="fi" horiz-adv-x="1198" d="M438 1274v-148h594v-1126h-274v920h-320v-920h-274v920h-137v206h137v148q0 174 90 276.5t276 102.5q62 0 135.5 -21t133.5 -51.5t111 -60.5t80 -51l28 -21l-158 -158q-9 6 -25 16.5t-60 37.5t-83.5 47.5t-85 37.5t-74.5 17t-48 -12.5t-28.5 -38t-13 -53t-4.5 -68.5z" />
<glyph unicode="fl" horiz-adv-x="1273" d="M780 1645h273v-1330q0 -92 8 -100q25 -29 141 -29l-8 -209q-254 0 -330 76q-39 39 -59 92t-22.5 85t-2.5 85v1330zM440 1274v-148h312v-206h-312v-920h-274v920h-135v206h135v148q0 176 84 277.5t270 101.5q117 0 293 -88v-254q-24 15 -61.5 37.5t-116.5 60t-115 37.5 q-18 0 -31.5 -5.5t-22 -18t-13.5 -25.5t-8 -36t-3.5 -40.5t-1.5 -46.5z" />
<glyph unicode="ffi" horiz-adv-x="2174" d="M1473 1274v-148h548v-1126h-274v920h-274v-920h-275v920h-244v-920h-276v920h-244v-920h-274v920h-135v206h135v148q0 176 84 277.5t270 101.5q124 0 272 -78q85 75 232 78h14q6 0 18.5 -1t18.5 -1q1 0 4 -1t4 -1q108 -10 230 -74q95 78 245 78q78 0 179 -38.5t163 -76.5 l62 -39l-158 -158q-19 12 -49 29.5t-96 46.5t-101 29q-19 0 -32.5 -5.5t-21.5 -19t-13 -25t-7.5 -36t-3 -39.5t-1.5 -47zM434 1274v-148h244v148q0 63 8 110q-107 62 -172 62q-18 0 -31.5 -5.5t-22 -18t-13.5 -25.5t-8 -36t-3.5 -40.5t-1.5 -46.5zM954 1274v-148h244v148 q0 62 10 108q-121 64 -174 64h-2q-18 0 -31.5 -6t-21.5 -19.5t-13 -25.5t-7.5 -36t-3 -39.5t-1.5 -45.5z" />
<glyph unicode="ffl" horiz-adv-x="1828" d="M1307 1645h274v-1330q0 -92 8 -100q25 -29 142 -29l-11 -209q-251 0 -327 76q-40 39 -60.5 92t-23 85t-2.5 85v1330zM969 1274v-148h309v-206h-309v-920h-275v920h-245v-920h-273v920h-137v206h137v148q0 379 354 379q125 0 273 -78q99 78 246 78q116 0 292 -88v-254 q-24 15 -61.5 37.5t-116.5 60t-114 37.5q-18 0 -31.5 -5.5t-22 -18t-13.5 -25.5t-8 -36t-3.5 -40.5t-1.5 -46.5zM449 1274v-148h245v148q0 57 11 108q-110 64 -175 64q-27 0 -44 -12t-24.5 -39.5t-9.5 -51.5t-3 -69z" />
<glyph unicode="fj" horiz-adv-x="1198" d="M438 1274v-148h594v-1171q0 -92 -33.5 -177.5t-87.5 -149t-116.5 -108.5t-124.5 -67l-74 236q62 8 112 87.5t50 178.5v965h-320v-920h-274v920h-137v206h137v148q0 174 90 276.5t276 102.5q62 0 135.5 -21t133.5 -51.5t111 -60.5t80 -51l28 -21l-158 -158q-9 6 -25 16.5 t-60 37.5t-83.5 47.5t-85 37.5t-74.5 17t-48 -12.5t-28.5 -38t-13 -53t-4.5 -68.5z" />
<glyph unicode=" "  horiz-adv-x="532" />
<glyph unicode="&#x09;" horiz-adv-x="532" />
<glyph unicode="&#xa0;" horiz-adv-x="532" />
<glyph unicode="!" horiz-adv-x="608" d="M426 399h-258l-27 1276h312zM119 145q0 68 52 113t130 45q75 0 125.5 -45.5t50.5 -112.5q0 -68 -50.5 -113.5t-125.5 -45.5q-78 0 -130 45.5t-52 113.5z" />
<glyph unicode="&#x22;" horiz-adv-x="780" d="M418 1432q0 63 48 103t120 40q89 0 132.5 -54t43.5 -143q-3 -153 -174 -368l-160 96q74 91 100 188q-53 13 -81.5 49.5t-28.5 88.5zM2 1432q0 63 48 103t120 40q89 0 132.5 -54t43.5 -143q-3 -153 -174 -368l-160 96q76 93 101 188q-53 13 -82 49.5t-29 88.5z" />
<glyph unicode="#" horiz-adv-x="1695" d="M143 952l50 215h333q17 72 53.5 214.5t49.5 195.5h260l-103 -410h228q17 73 53.5 217t48.5 193h260l-100 -410h346l-49 -215h-348q-32 -123 -70 -270h361l-50 -215h-360q-23 -99 -117 -467h-258l113 467h-228q-20 -86 -61.5 -253.5t-52.5 -213.5h-260l114 467h-321 l49 215h322q4 15 69 270h-332zM737 952l-69 -270h227q6 24 29.5 116t38.5 154h-226z" />
<glyph unicode="$" horiz-adv-x="1275" d="M512 -131v111q-143 30 -254 108t-197 215l201 178q125 -204 250 -260v506q-71 25 -123 49t-105.5 61t-86.5 79.5t-53 103.5t-19 135q2 91 27 164.5t63.5 120.5t91 81.5t101.5 51.5t104 26v119h250v-123q104 -21 184.5 -72.5t155.5 -140.5l-189 -161q-101 105 -151 129 v-441q74 -26 130.5 -52.5t115 -67.5t96.5 -88.5t62 -115.5t24 -149q0 -196 -119 -313.5t-309 -147.5v-106h-250zM905 436q0 136 -143 207v-428q64 26 103.5 83t39.5 138zM410 1153q-3 -94 102 -154v353q-97 -53 -102 -199z" />
<glyph unicode="%" horiz-adv-x="2060" d="M25 1149q1 99 27 177.5t67.5 127.5t98.5 81.5t114.5 45.5t120.5 14q64 0 122 -12.5t115.5 -45t99 -82t67.5 -129t26 -181.5q-1 -99 -27 -177.5t-67.5 -127.5t-98.5 -81t-114.5 -44.5t-120.5 -12.5t-121 13t-115.5 45.5t-99.5 81.5t-68 128t-26 179zM1436 1663h313 l-1180 -1755h-315zM453 1391q-31 -1 -54.5 -11t-45 -35t-33 -74.5t-11.5 -121.5q0 -139 40 -191.5t106 -52.5q31 0 54.5 9.5t45 34.5t33 74.5t12.5 121.5q0 74 -12 125t-33.5 76t-45.5 35t-56 10zM1133 418q1 99 26.5 177.5t67 127t98.5 81t114 45t120 13.5q65 0 123 -12.5 t115.5 -44.5t99 -81t67 -128.5t25.5 -181.5q-1 -100 -26.5 -178.5t-67 -127.5t-98.5 -80.5t-115 -44t-121 -12.5t-120.5 12.5t-115 45t-99 81.5t-67.5 128t-26 180zM1559 659q-25 -1 -44 -7t-38.5 -22t-32.5 -41.5t-21 -69t-8 -101.5q0 -139 40 -191.5t106 -52.5 q31 0 54.5 9.5t45 34.5t33 74.5t12.5 121.5q0 75 -11.5 125.5t-33.5 75.5t-46 34.5t-56 9.5z" />
<glyph unicode="&#x26;" horiz-adv-x="1820" d="M84 428q0 74 25.5 139.5t73 119.5t103 96.5t128.5 84.5q-90 103 -137.5 188.5t-47.5 164.5q0 78 28 140.5t74 102t108 65.5t126.5 37t134.5 11t134 -11t125.5 -37t106.5 -65.5t72 -102t27 -140.5q0 -62 -28 -118t-82 -104.5t-112.5 -86.5t-139.5 -81q123 -137 272 -292 q15 26 82 163q6 15 19 41.5t28.5 57.5l20.5 41l223 -111l-59 -123q-6 -13 -36.5 -75.5t-51.5 -102t-46 -78.5q77 -74 123 -108q53 -43 121 112l213 -120q-32 -74 -68.5 -126t-70 -76t-68.5 -37.5t-64.5 -11t-58.5 4.5q-101 18 -276 168q-187 -172 -473 -172q-71 0 -144 14.5 t-146.5 48.5t-130.5 83t-92.5 126t-35.5 170zM598 676l-31 31q-202 -119 -202 -279q0 -53 31 -95.5t76 -66t87.5 -35.5t73.5 -12q170 3 293 113q-185 185 -328 344zM885 1221q0 86 -54 123.5t-131 37.5q-36 0 -68 -8t-60.5 -25.5t-45 -50t-16.5 -77.5q0 -41 35 -94.5 t106 -133.5q112 58 173 111.5t61 116.5z" />
<glyph unicode="'" horiz-adv-x="430" d="M39 1432q0 63 48 104t120 41q89 0 132.5 -54t43.5 -143q-3 -153 -174 -368l-160 96q76 93 101 188q-53 13 -82 49.5t-29 86.5z" />
<glyph unicode="(" horiz-adv-x="698" d="M657 1583l17 -201q-74 -26 -133 -101.5t-93 -169t-57 -205.5t-31 -203.5t-8 -170.5t8 -169.5t31 -202.5t57 -205t93 -168t133 -100l-17 -203q-96 10 -178.5 58.5t-141 119.5t-105.5 163t-76.5 186.5t-49 193.5t-27 179t-7.5 148q0 67 8 148t27.5 180.5t48.5 195 t76.5 188.5t106 164.5t140.5 119t178 55.5z" />
<glyph unicode=")" horiz-adv-x="698" d="M10 1382l17 201q96 -8 178 -55.5t140.5 -119t106 -164.5t76.5 -188.5t48.5 -195t27.5 -180.5t8 -148q0 -68 -7.5 -148t-27 -179t-49 -193.5t-76.5 -186.5t-105.5 -163t-141 -119.5t-178.5 -58.5l-17 203q74 25 133 100t93 168t57 205t31 202.5t8 169.5t-8 170.5 t-31 203.5t-57 205.5t-93 169t-133 101.5z" />
<glyph unicode="*" horiz-adv-x="1271" d="M49 1126l78 203l373 -149q0 64 -2 200.5t-2 196.5h254l-5 -395l373 147l78 -203l-393 -153l272 -301l-192 -162l-260 324l-261 -322l-196 158l272 305z" />
<glyph unicode="+" horiz-adv-x="1337" d="M768 0h-248v473h-461v205h461v469h248v-469h481v-205h-481v-473z" />
<glyph unicode="," horiz-adv-x="419" d="M29 133q0 63 48 103t120 40q89 0 132.5 -53.5t43.5 -142.5q0 -151 -174 -369l-160 96q77 95 100 189q-110 31 -110 137z" />
<glyph unicode="-" horiz-adv-x="714" d="M639 680v-211h-578v211h578z" />
<glyph unicode="." horiz-adv-x="430" d="M49 141q0 66 44.5 107t121.5 41q71 0 114.5 -41.5t43.5 -106.5q0 -68 -43.5 -111.5t-114.5 -43.5q-77 0 -121.5 43t-44.5 112z" />
<glyph unicode="/" horiz-adv-x="731" d="M455 1577h280l-473 -1577h-280z" />
<glyph unicode="0" horiz-adv-x="1396" d="M84 756q0 173 33 309t88 223.5t133 145t162 81t180 23.5q97 0 180.5 -24t160.5 -81t131 -144.5t86 -223.5t32 -309q0 -174 -32 -310t-86 -224t-131 -145.5t-160.5 -81.5t-180.5 -24q-80 0 -151.5 17t-139.5 53.5t-122.5 99t-96 147t-64 204t-22.5 264.5zM987 756 q0 287 -83.5 425t-223.5 138q-139 0 -226 -139t-87 -424q0 -145 25.5 -255t70 -174.5t99 -96t118.5 -31.5q134 0 220.5 137t86.5 420z" />
<glyph unicode="1" horiz-adv-x="753" d="M612 0h-284v1182l-119 -101l-166 189l317 239h252v-1509z" />
<glyph unicode="2" horiz-adv-x="1107" d="M293 1149l-90 -8q-121 119 -121 135q26 45 61.5 85.5t88.5 82.5t128.5 67.5t161.5 26.5q127 0 227.5 -45.5t160 -135.5t59.5 -212q0 -242 -537 -926h572v-219h-945v166q26 29 68.5 79t152 187t193.5 256t152.5 249.5t68.5 203.5q0 84 -52.5 131t-121.5 47 q-40 -1 -78 -18.5t-64 -42.5t-46 -49.5t-30 -42.5z" />
<glyph unicode="3" horiz-adv-x="1122" d="M233 1139l-165 164q3 5 8 13.5t23 33t39 46.5t55.5 49t72 46.5t89.5 33t108 13.5q157 0 269 -96t112 -242q0 -132 -135 -256q128 -41 212.5 -142.5t88.5 -234.5q0 -118 -39 -219t-102.5 -168.5t-144 -116t-162.5 -70.5t-159 -22q-59 -1 -120 15t-106.5 38.5t-82.5 45.5 t-56 39l-20 16l170 158q11 -10 31 -25t76 -39t106 -22q42 0 87 13.5t89.5 43.5t80 72t57.5 104.5t22 136.5q0 76 -52 135.5t-122 59.5q-85 0 -237 -41h4q-7 -3 -30.5 -4.5t-43.5 -1.5h-20v188q72 27 128 55t105 64.5t75.5 81.5t26.5 96t-31.5 83t-74.5 32q-38 0 -76 -18 t-65 -44t-48.5 -52t-31.5 -44z" />
<glyph unicode="4" horiz-adv-x="1282" d="M1219 571v-219h-201v-352h-287v352h-696v133l774 1024h209v-938h201zM731 1018l-330 -447h330v447zM330 571h71l-28 -39l-27 -28l-53 59z" />
<glyph unicode="5" horiz-adv-x="1230" d="M424 1292v-272q82 20 156 20q250 0 387 -129.5t137 -337.5q0 -157 -40.5 -274.5t-115 -188t-172 -105t-217.5 -34.5q-79 0 -156 20.5t-130.5 50t-95.5 59.5t-63 51l-20 20l152 184q7 -7 19.5 -18.5t49.5 -40.5t73 -51.5t84 -41t87 -18.5q122 0 198.5 94.5t76.5 288.5 q0 61 -26 118t-86 98.5t-142 41.5q-131 0 -230 -69h-209v751h854v-217h-571z" />
<glyph unicode="6" horiz-adv-x="1255" d="M678 956q96 0 175.5 -25t144.5 -78t101 -146t36 -218q0 -61 -15 -127t-52 -137t-92.5 -126.5t-145 -91.5t-199.5 -36q-259 0 -400 188.5t-141 536.5q0 224 76.5 416.5t215 309t308.5 116.5q182 0 395 -156l2 -2l-163 -172q-14 12 -37.5 30t-84 47.5t-106.5 29.5 q-71 0 -129.5 -42.5t-97 -115t-63 -152.5t-37.5 -171q135 122 309 122zM631 184q62 0 109.5 31.5t72.5 80.5t37 98t12 95q0 133 -51 192.5t-133 59.5q-166 0 -301 -278q28 -136 94 -207.5t160 -71.5z" />
<glyph unicode="7" horiz-adv-x="1046" d="M51 1278v231h942v-153q-69 -145 -175 -345t-237.5 -429.5t-257.5 -401.5t-198 -203l-168 154q60 36 196.5 245t271 450.5t239.5 451.5h-613z" />
<glyph unicode="8" horiz-adv-x="1202" d="M1038 1188q0 -67 -25 -131t-68 -116t-87 -90.5t-94 -72.5q69 -50 119.5 -95t97 -99t70.5 -113t24 -121q0 -79 -25.5 -142t-61.5 -102t-90 -67t-97 -40.5t-96.5 -19.5t-74.5 -7.5t-44 -0.5h-4q-247 0 -379 113q-113 97 -113 266q1 67 26 133.5t66.5 121.5t88 99t98.5 80 q-242 206 -242 404q0 76 27 137.5t71 100.5t104 64.5t122.5 36.5t130.5 11q55 0 108 -8t105 -24t95 -44t76.5 -65.5t52.5 -91t19 -117.5zM801 350q0 68 -66.5 140.5t-189.5 164.5q-71 -53 -123 -133t-62 -174q1 -40 17 -71.5t41.5 -48.5t50 -28.5t53 -15.5t40 -5t20.5 -1 q150 0 199 88q20 35 20 84zM399 1188q0 -71 48.5 -137t134.5 -138q182 124 182 275q0 43 -15.5 74.5t-43 48t-57.5 23.5t-66 7q-48 0 -86.5 -12t-67.5 -48t-29 -93zM612 891l-63 4q24 12 33 18z" />
<glyph unicode="9" horiz-adv-x="1255" d="M539 553q-96 0 -175 25t-144 78t-101.5 146t-36.5 218q0 61 15 127t52.5 137t93 126.5t144.5 91.5t199 36q259 0 400.5 -188.5t141.5 -534.5q0 -225 -77 -418t-215.5 -309.5t-307.5 -116.5q-185 0 -393 153q-4 4 -6 5l166 172q14 -12 37 -29.5t83 -47t105 -29.5 q71 0 129.5 42.5t97.5 114.5t63.5 152.5t37.5 171.5q-133 -123 -309 -123zM586 1325q-62 0 -109 -31.5t-72 -80t-37 -98t-12 -95.5q0 -133 51.5 -192.5t131.5 -59.5q74 0 151.5 64t149.5 215q-26 135 -92 206.5t-162 71.5z" />
<glyph unicode=":" horiz-adv-x="532" d="M88 141q0 65 49 106.5t127 41.5q74 0 122 -42t48 -106q0 -67 -48 -111t-122 -44q-78 0 -127 43.5t-49 111.5zM88 844q0 65 49 106t127 41q74 0 122 -41.5t48 -105.5q0 -67 -48 -111.5t-122 -44.5q-78 0 -127 44t-49 112z" />
<glyph unicode=";" horiz-adv-x="542" d="M98 133q0 63 48 103t120 40q90 0 134 -54t44 -142q-3 -152 -176 -369l-159 96q77 95 100 189q-111 31 -111 137zM88 844q0 65 49 106t127 41q74 0 122 -41.5t48 -105.5q0 -67 -48 -111.5t-122 -44.5q-78 0 -127 44t-49 112z" />
<glyph unicode="&#x3c;" horiz-adv-x="1439" d="M109 496v176l1200 542v-229l-889 -401q762 -346 889 -402v-229z" />
<glyph unicode="=" horiz-adv-x="1359" d="M1262 846v-205h-1192v205h1192zM1262 532v-204h-1192v204h1192z" />
<glyph unicode="&#x3e;" horiz-adv-x="1439" d="M1298 672v-176l-1200 -543v229l889 402q-632 286 -889 401v229z" />
<glyph unicode="?" horiz-adv-x="1038" d="M612 485l-188 -151q-81 74 -119.5 134.5t-38.5 141.5q0 91 56 169.5t167 176.5q45 43 76 75t66 77t54.5 90t21.5 90q0 176 -183 176q-44 0 -92 -29t-85 -70.5t-67 -83t-46 -70.5l-17 -29l-184 176q4 7 11 18t31.5 44t52 63t71 66.5t90 63t109 44.5t126.5 18 q114 0 201 -27.5t135.5 -68t79 -95.5t40 -102t9.5 -96q0 -53 -12 -103t-39 -97.5t-51 -82.5t-69.5 -80.5t-70.5 -69t-77 -69.5q-135 -124 -135 -176q0 -29 18.5 -57t58.5 -66zM338 133q0 63 48 103t120 40t119 -40t47 -103t-47 -105t-119 -42t-120 42t-48 105z" />
<glyph unicode="@" horiz-adv-x="2181" d="M852 37q-165 1 -244.5 107.5t-79.5 293.5q0 131 39 253t102.5 213t142 160t160.5 104.5t154 35.5q94 0 159 -37.5t81 -87.5l18 70l234 -74q-164 -842 -164 -850q27 6 64.5 24t86.5 58t88.5 92.5t65.5 136t21 179.5q0 91 -28 181t-84.5 171.5t-135 144t-188 99.5 t-234.5 37q-146 0 -286 -68t-243 -178.5t-166 -257t-63 -297.5q0 -198 106.5 -360.5t279.5 -251.5t372 -89q67 0 108 2.5t101.5 14.5t111 35.5t117 67t138.5 106.5l153 -193q-64 -55 -124 -97t-108 -70t-104 -47t-94.5 -29t-97.5 -14.5t-95.5 -5.5t-105.5 -1 q-203 0 -391.5 71t-330 193t-226 297t-84.5 371q0 197 85 386t225 330t331 227.5t391 86.5q176 0 330 -49.5t265 -133.5t190.5 -194.5t119 -233.5t39.5 -249q0 -116 -30 -214.5t-78.5 -166.5t-113 -122.5t-129.5 -86.5t-132.5 -53t-117.5 -29t-89 -8q-158 0 -180 108 q-161 -108 -332 -108zM803 438q0 -195 53 -198q57 -1 119.5 29.5t115 78.5t89 89t61.5 77q1 2 72 313q-24 58 -48.5 95.5t-49 54t-44 22t-45.5 5.5q-50 0 -106 -42t-104.5 -113.5t-80.5 -180.5t-32 -230z" />
<glyph unicode="A" horiz-adv-x="1460" d="M578 1577h272l582 -1577h-302l-190 512h-457l-184 -512h-303zM860 733l-147 393l-148 -393h295z" />
<glyph unicode="B" horiz-adv-x="1310" d="M606 1587q96 0 172.5 -13.5t143 -46.5t111.5 -85t73 -131.5t33 -184.5q-3 -188 -133 -305q56 -35 97 -82t61.5 -94.5t30 -88.5t9.5 -77q0 -41 -1.5 -68t-12.5 -82.5t-31 -94.5t-62.5 -87t-101 -78t-152.5 -50t-212 -19h-504v1548l133 13q191 26 346 26zM416 684v-461h215 q59 0 105.5 10t76.5 24.5t51.5 38.5t32 44t16 49.5t6.5 46.5t1 43q0 21 -4.5 43t-21 52.5t-43.5 53.5t-78 39.5t-118 16.5h-239zM856 1133q-3 120 -49.5 171t-128.5 58q-54 4 -76 4q-94 0 -186 -12v-447h84q47 0 81.5 1.5t73 7t65 15t53 26.5t42.5 40.5t27 57.5t14 78z" />
<glyph unicode="C" horiz-adv-x="1325" d="M1245 1358l-190 -180q-5 8 -14 20.5t-40 45.5t-65 58t-86 45.5t-105 20.5q-57 0 -110.5 -24.5t-101 -75.5t-83 -123.5t-56.5 -175.5t-21 -224q0 -228 110 -384.5t265 -161.5q56 -2 112.5 17.5t96 44t79.5 60.5t55 53t31 36l185 -185q-53 -42 -60 -53q-33 -33 -53 -51 t-70 -52.5t-98.5 -53t-126.5 -32.5t-166 -12q-187 4 -336.5 104.5t-233 276t-83.5 393.5q0 164 36.5 305t100 242t148.5 172.5t182.5 106.5t200.5 35q99 0 186.5 -25.5t142 -62t94.5 -73t57 -61.5z" />
<glyph unicode="D" horiz-adv-x="1468" d="M129 0v1546q146 18 198.5 24t127 11.5t137.5 5.5q78 0 145.5 -6.5t139 -22.5t130 -45t114.5 -71.5t98 -104.5t74 -141t48.5 -185t16.5 -233q0 -365 -185 -571.5t-487 -206.5h-557zM1067 778q0 109 -13 195t-46 161.5t-86 125t-135 78t-191 28.5q-82 0 -178 -14v-1129h268 q166 0 273.5 150.5t107.5 404.5z" />
<glyph unicode="E" horiz-adv-x="1157" d="M1096 0h-969v1577h678q55 0 121 4.5t104 8.5l39 5v-239h-653v-428h555v-223h-555v-482h418q55 0 120.5 4.5t103.5 8.5l38 4v-240z" />
<glyph unicode="F" horiz-adv-x="1112" d="M414 0h-289v1577h680q55 0 121 4.5t104 8.5l39 5v-237h-655v-430h557v-223h-557v-705z" />
<glyph unicode="G" horiz-adv-x="1542" d="M1376 811v-487q0 -95 -79 -177t-200 -128t-249 -48q-129 0 -238 26.5t-187 71.5t-138.5 108.5t-98.5 132.5t-62.5 148t-34 151.5t-9.5 146.5q0 132 25.5 246.5t69 200t103.5 154.5t127.5 114.5t143 76.5t147 44.5t142.5 13.5q70 0 137 -15t118.5 -38.5t97.5 -52t78 -57.5 t55.5 -52.5t34.5 -38.5l11 -15l-190 -190q-6 10 -17.5 26t-47.5 56.5t-73 72t-91 57t-105 25.5q-59 0 -121.5 -21t-125.5 -69.5t-112.5 -119t-80.5 -179t-31 -239.5q0 -73 11.5 -143.5t43.5 -147.5t82 -133.5t134.5 -93.5t193.5 -37q48 0 107.5 19.5t104 53.5t44.5 68v244 h-133q-136 0 -222 45v211q121 -31 230 -31h405z" />
<glyph unicode="H" horiz-adv-x="1525" d="M418 0h-289v1577h289v-651h655v651h289v-1577h-289v702h-655v-702z" />
<glyph unicode="I" horiz-adv-x="534" d="M408 0h-291v1577h291v-1577z" />
<glyph unicode="J" horiz-adv-x="669" d="M254 1577h289v-1573q0 -96 -31 -177.5t-77 -136t-110 -99t-118 -69t-113 -42.5l-92 227q107 31 179.5 103.5t72.5 193.5v1573z" />
<glyph unicode="K" horiz-adv-x="1263" d="M129 1577h289v-545l424 545h342l-563 -723q89 -29 157 -100q16 -18 35 -43t42.5 -61t41 -63.5t48.5 -77.5t48 -77q189 -310 291 -432h-328q-16 17 -36 43t-35 48t-40 61t-37.5 60t-42.5 70t-40 66q-125 212 -145 240q-65 80 -148 80h-14v-668h-289v1577z" />
<glyph unicode="L" horiz-adv-x="1146" d="M127 0v1577h289v-1354h418q55 0 120.5 4.5t103.5 8.5l38 4v-240h-969z" />
<glyph unicode="M" horiz-adv-x="1748" d="M420 0h-289v1577h277l446 -1174l449 1174h276v-1577h-289v797l-307 -797h-256l-307 797v-797z" />
<glyph unicode="N" horiz-adv-x="1488" d="M418 0h-289v1577l268 -2l641 -1040v1042h289v-1577l-268 2l-641 1042v-1044z" />
<glyph unicode="O" horiz-adv-x="1556" d="M766 1606q70 0 136 -11.5t134 -39.5t127 -70t110.5 -107.5t88.5 -148t58.5 -194.5t21.5 -244q0 -157 -26.5 -284.5t-75.5 -215.5t-112 -151.5t-141.5 -99.5t-158 -52.5t-168.5 -16.5q-100 0 -191 22.5t-182 80.5t-157 147.5t-107 234.5t-41 330t41 330.5t107.5 235.5 t157.5 149t183.5 82t194.5 23zM766 1386q-56 0 -109.5 -18t-106 -62t-92 -110t-63.5 -170.5t-24 -234.5q0 -132 24 -237t63 -171.5t91 -110.5t104 -61.5t107 -17.5q59 0 113 17.5t106 60.5t89.5 109t60.5 170t24 236q0 130 -23 234.5t-60.5 171.5t-88.5 111.5t-104.5 63.5 t-110.5 19z" />
<glyph unicode="P" horiz-adv-x="1273" d="M416 0h-289v1577h289v-82q28 37 99.5 74t162.5 37q227 0 369.5 -148t142.5 -383q0 -295 -138 -450.5t-388 -155.5q-136 0 -248 51v-520zM905 1075q0 137 -76.5 222t-207.5 85q-90 0 -205 -75v-508q122 -101 256 -101q108 0 170.5 96t62.5 281z" />
<glyph unicode="Q" horiz-adv-x="1556" d="M766 1606q70 0 136 -11.5t134 -39.5t127 -70t110.5 -107.5t88.5 -148t58.5 -194.5t21.5 -244q0 -152 -26.5 -276.5t-71.5 -211.5t-109.5 -152t-134.5 -102.5t-152 -58.5q52 -35 119 -35q77 0 225 49l66 -211q-60 -26 -146.5 -40.5t-144.5 -14.5q-98 1 -180 26.5 t-135.5 65.5t-87 78.5t-52.5 77.5q-85 17 -159 51.5t-143.5 98.5t-119 151t-79 215t-29.5 284q0 185 41 330.5t107.5 235.5t157.5 149t183.5 82t194.5 23zM766 1386q-56 0 -109.5 -18t-106 -62t-92 -110t-63.5 -170.5t-24 -234.5q0 -132 24 -237t63 -171.5t91 -110.5 t104 -61.5t107 -17.5q59 0 113 17.5t106 60.5t89.5 109t60.5 170t24 236q0 130 -23 234.5t-60.5 171.5t-88.5 111.5t-104.5 63.5t-110.5 19z" />
<glyph unicode="R" horiz-adv-x="1347" d="M418 0h-289v1577h289v-82q34 40 103 75.5t169 35.5q210 0 335.5 -124t137.5 -341q-1 -104 -25.5 -187t-69 -139.5t-97 -93t-117.5 -59.5q85 -88 203 -267q41 -62 69.5 -101t72 -94t93 -104t107.5 -96h-355q-46 35 -93 89.5t-68.5 85.5t-75.5 110q-42 62 -53 78.5 t-47.5 69t-54 72.5t-47 52.5t-52.5 48t-45 23.5h-90v-629zM649 850q32 0 61.5 7.5t61 27.5t54.5 51.5t37.5 84t15.5 120.5q0 108 -58.5 172.5t-156.5 64.5q-125 0 -246 -71v-457h231z" />
<glyph unicode="S" horiz-adv-x="1275" d="M61 309l201 176q91 -145 183 -214t206 -70q109 0 181.5 62.5t72.5 178.5q0 30 -6 55.5t-20 46.5t-27.5 37t-39.5 31.5t-44 25.5t-52.5 22.5t-54.5 19t-59 18.5q-63 19 -106.5 34t-97.5 38.5t-90.5 47t-74.5 58t-60 73.5t-35.5 91t-12.5 113q2 111 39.5 196t90.5 132 t123 77t126.5 39t111.5 9q157 0 273 -56t213 -170l-189 -161q-77 78 -145.5 117.5t-151.5 39.5q-24 0 -47 -4.5t-52 -19t-51 -38t-38 -65.5t-18 -98q-2 -37 13 -67.5t38.5 -51.5t63 -40.5t74 -31.5t85.5 -26q62 -20 106.5 -35.5t101.5 -41t96 -51.5t80 -63.5t66 -80 t40.5 -99t15.5 -121.5q0 -93 -29.5 -170.5t-80.5 -132.5t-120 -93.5t-148.5 -56.5t-166.5 -18q-196 6 -336 86.5t-248 251.5z" />
<glyph unicode="T" horiz-adv-x="1148" d="M-25 1354v223h1174v-223h-447v-1354h-288v1354h-439z" />
<glyph unicode="U" horiz-adv-x="1409" d="M1249 504q0 -98 -22 -178t-57 -133.5t-84.5 -94t-98.5 -63t-106.5 -36.5t-101 -18t-89.5 -4t-90 4.5t-102 18.5t-107.5 36.5t-99 63.5t-84.5 94.5t-57.5 133t-22.5 176.5v1073h291v-1069q0 -77 20 -135t49 -90t68 -51.5t70.5 -25t64.5 -5.5q31 0 63 6t70.5 26t67.5 51.5 t49 88.5t21 131v1073h288v-1073z" />
<glyph unicode="V" horiz-adv-x="1411" d="M825 0h-270l-561 1577h299l397 -1120l397 1120h299z" />
<glyph unicode="W" horiz-adv-x="2009" d="M694 0h-239l-447 1577h295l270 -1018l269 1018h278l269 -1022l270 1022h297l-447 -1577h-239l-289 1008z" />
<glyph unicode="X" horiz-adv-x="1351" d="M997 1577h330l-502 -791q49 -77 156 -244t194.5 -303.5t151.5 -238.5h-330l-338 524l-333 -524h-332l500 786l-500 791h325l340 -528z" />
<glyph unicode="Y" horiz-adv-x="1269" d="M973 1577h315l-522 -823v-754h-287v754l-526 823h323l349 -543z" />
<glyph unicode="Z" horiz-adv-x="1261" d="M1176 293v-242q-42 -23 -114 -35.5t-124 -13.5l-51 -2h-830v201l727 1142h-706v234h1057v-197l-723 -1147h479q14 0 39 2t99.5 17t146.5 41z" />
<glyph unicode="[" horiz-adv-x="741" d="M635 1577v-191h-234v-1701h234v-193h-514v2085h514z" />
<glyph unicode="\" horiz-adv-x="751" d="M-8 1577h280l473 -1577h-282z" />
<glyph unicode="]" horiz-adv-x="741" d="M90 -508v193h236v1701h-236v191h516v-2085h-516z" />
<glyph unicode="^" horiz-adv-x="1345" d="M545 1147h227l522 -1147h-260l-377 823q-65 -141 -192.5 -420.5t-183.5 -402.5h-258z" />
<glyph unicode="_" horiz-adv-x="1359" d="M1262 -2v-199h-1192v199h1192z" />
<glyph unicode="`" horiz-adv-x="712" d="M78 1548h274l269 -299h-203z" />
<glyph unicode="a" horiz-adv-x="1161" d="M219 762q-33 53 -62 102.5t-42 73.5l-13 23q43 25 91 48.5t132 59.5t178 58t177 22q76 0 134.5 -25t91 -61.5t53 -85t26.5 -88t6 -78.5v-567q0 -5 0.5 -10t7 -20.5t18 -29t37 -32.5t60.5 -35l-168 -152q-136 54 -184 129q-150 -117 -336 -117q-15 0 -35.5 2t-56 10 t-69 20.5t-69.5 37.5t-62.5 58t-44 83.5t-17.5 112.5q0 50 9 92.5t37 90.5t73.5 84.5t125 67.5t185.5 46q177 23 215 33v96q0 15 -2 32t-8 37.5t-19.5 34t-32.5 13.5q-122 0 -436 -166zM424 184q72 -6 153 38.5t140 111.5v168q-23 -5 -117 -17l-65 -10q-191 -36 -191 -174 q0 -35 9.5 -60.5t25 -36.5t25.5 -15t20 -5z" />
<glyph unicode="b" horiz-adv-x="1288" d="M705 1149q118 0 210.5 -46.5t149 -127t85 -181t28.5 -214.5q0 -284 -133.5 -443.5t-366.5 -159.5q-62 0 -126.5 27t-102 57t-43.5 48v-109h-275v1679h275v-612q119 82 299 82zM705 920q-185 2 -299 -166v-430q61 -58 134.5 -90.5t137.5 -32.5q102 0 162.5 101.5 t60.5 277.5q0 90 -21.5 165.5t-67 124.5t-107.5 50z" />
<glyph unicode="c" horiz-adv-x="1050" d="M580 1149q71 0 136.5 -21.5t109 -52.5t77 -62.5t49.5 -52.5l15 -22l-181 -170q-4 7 -10.5 18t-28.5 39.5t-45 50.5t-58 40t-69 18q-89 0 -159 -103t-70 -286q0 -148 60.5 -250t158.5 -102q51 0 106.5 28t151.5 119l166 -158q-67 -69 -127 -113t-114.5 -62.5t-92.5 -24 t-90 -5.5q-146 0 -260 75t-174.5 203.5t-60.5 289.5q0 121 31 223.5t82 171.5t118 117t137.5 70t141.5 22z" />
<glyph unicode="d" horiz-adv-x="1318" d="M514 -14q-130 0 -232 78.5t-155 206t-53 276.5q0 283 136 442.5t368 159.5q134 0 270 -84v614h276v-1394q1 -1 0 -6.5t1.5 -17t5.5 -24.5t13 -29t23 -30t36 -28t52 -23l-159 -166q-164 60 -211 156q-164 -134 -371 -131zM518 213q180 -14 330 221v338q-162 148 -270 148 q-102 0 -163 -99t-61 -274q0 -136 45.5 -232t118.5 -102z" />
<glyph unicode="e" horiz-adv-x="1191" d="M72 551q0 163 61.5 299t179 217.5t267.5 81.5q91 0 166.5 -24t124.5 -61t86 -88t56.5 -98t31.5 -97.5t15 -81t3 -54.5v-110h-719q0 -159 64 -253t180 -94q23 0 35.5 1t46.5 12t64 32t77 66t96 109l170 -160q-53 -65 -104.5 -114t-98.5 -77.5t-83.5 -46t-78 -24t-62 -8 t-53.5 -1.5h-3h-3h-3q-125 0 -225 46t-162.5 126t-95.5 182.5t-33 219.5zM580 938q-134 0 -201 -188h397q-21 80 -68 134t-128 54z" />
<glyph unicode="f" horiz-adv-x="815" d="M436 1309v-183h309v-206h-309v-920h-274v920h-137v206h137v183q0 176 84 277.5t270 101.5q78 0 179 -38.5t163 -77.5l62 -38l-158 -158q-19 12 -49 29.5t-96 46.5t-101 29q-19 0 -32.5 -5.5t-22 -18.5t-13.5 -25t-7.5 -36t-3 -40t-1.5 -47z" />
<glyph unicode="g" horiz-adv-x="1265" d="M393 780q0 -207 199 -207q25 0 50 5t52.5 19t48.5 36t34.5 60t13.5 87q0 60 -35 102.5t-78 59t-86 16.5q-42 0 -85 -16.5t-78.5 -59t-35.5 -102.5zM145 270q0 88 119 195q-145 114 -145 315q0 76 32 140t83 106t115 71.5t125.5 42.5t117.5 13q50 0 108 -12 q133 108 310 108q57 0 176 -35l-39 -210q-92 30 -137 30q-20 0 -66 -8q53 -48 86 -111.5t33 -134.5q0 -96 -32.5 -170.5t-81.5 -117t-115 -70t-124 -36.5t-118 -9q-65 0 -96 4q-71 -60 -74 -100q7 6 49.5 10t81.5 2q6 0 22.5 -1t20.5 -1q95 -5 170 -14.5t159 -33.5 t140.5 -60.5t93.5 -98t37 -143.5q0 -77 -22.5 -145.5t-70 -127.5t-116.5 -102t-168 -67.5t-219 -24.5q-134 0 -253.5 50.5t-192 137.5t-72.5 186q1 117 32.5 176.5t108.5 116.5q-78 49 -78 129zM600 -313q157 0 239.5 72.5t82.5 181.5q0 38 -29.5 64.5t-83.5 40.5t-104 20 t-117 10q-45 0 -75 1t-38 1q-40 -25 -63 -47.5t-40.5 -69t-17.5 -113.5q0 -66 77 -113.5t169 -47.5z" />
<glyph unicode="h" d="M406 0h-277v1679h277v-682q204 152 403 152q299 0 299 -363v-786h-274v786q0 177 -162 106q-106 -46 -237 -169l-29 -29v-694z" />
<glyph unicode="i" horiz-adv-x="565" d="M137 1126h275v-1126h-275v1126zM119 1442q0 58 44.5 96.5t112.5 38.5q66 0 110 -38.5t44 -96.5t-44 -96.5t-110 -38.5q-68 0 -112.5 38.5t-44.5 96.5z" />
<glyph unicode="j" horiz-adv-x="460" d="M35 1126h272v-1171q0 -92 -33.5 -177.5t-87 -149t-115.5 -108.5t-124 -67l-74 236q60 8 111 88t51 178v1171zM14 1442q0 58 45 96.5t113 38.5q66 0 111 -38.5t45 -96.5t-45 -96.5t-111 -38.5q-68 0 -113 38.5t-45 96.5z" />
<glyph unicode="k" horiz-adv-x="1169" d="M1196 0h-307q-22 6 -57 34.5t-88.5 85.5t-85 92.5t-95.5 109.5v-3q-151 172 -157 177v-496h-275v1679h275v-866q98 70 190.5 156.5t128.5 156.5h274q-44 -167 -424 -458q41 -26 68 -60q344 -403 455 -519q67 -69 98 -89z" />
<glyph unicode="l" horiz-adv-x="579" d="M121 1679h274v-1339q0 -52 4 -77.5t20 -45t44.5 -25t81.5 -6.5l-10 -209q-252 0 -330 76q-39 39 -59 92t-22.5 85t-2.5 85v1364z" />
<glyph unicode="m" horiz-adv-x="1867" d="M416 0h-277v1126h277v-145q53 43 76.5 60t73.5 49t96.5 45.5t95.5 13.5q100 0 168 -54.5t102 -140.5q52 47 80.5 70t80 58t103.5 51t107 16q301 0 301 -363v-786h-277v786q0 132 -83 126q-79 -7 -201 -123q-58 -54 -82 -91v-698h-275v786q0 161 -120 115 q-87 -32 -197 -146q-32 -34 -49 -57v-698z" />
<glyph unicode="n" d="M406 0h-277v1126h277v-143q223 166 403 166q299 0 299 -363v-786h-274v786q0 73 -24.5 105.5t-69 22.5t-87.5 -29.5t-100 -65t-84.5 -69t-62.5 -56.5v-694z" />
<glyph unicode="o" horiz-adv-x="1210" d="M72 563q0 125 29 225.5t77.5 167t115.5 111t140 63.5t154 19q80 0 152.5 -19.5t139.5 -64t115.5 -111t77.5 -167t29 -224.5q0 -126 -29 -226.5t-77.5 -166.5t-115.5 -110.5t-139.5 -63.5t-152.5 -19q-81 0 -153.5 18t-140 61.5t-116 109t-77.5 167.5t-29 230zM825 563 q0 189 -69.5 285t-167.5 96q-101 0 -170.5 -93t-69.5 -288q0 -99 20.5 -175.5t55 -120.5t76 -65.5t88.5 -21.5q36 0 69.5 12.5t64.5 41.5t53.5 72t36 109t13.5 148z" />
<glyph unicode="p" horiz-adv-x="1284" d="M403 -498h-272v1624h272v-147q39 63 131.5 116.5t202.5 53.5q130 0 231 -80.5t153.5 -209.5t52.5 -279q0 -284 -133.5 -443.5t-366.5 -159.5q-33 0 -65 7t-54 15.5t-48.5 25.5t-39 26.5t-36 30t-28.5 24.5v-604zM737 920q-185 2 -334 -218v-360q65 -61 139 -98t132 -37 q102 0 162.5 99t60.5 274q0 137 -44.5 238t-115.5 102z" />
<glyph unicode="q" horiz-adv-x="1288" d="M508 -23q-130 1 -231 82t-153 209.5t-52 278.5q0 284 133 443t366 159q74 0 148 -34.5t123 -76.5v88h276v-1624h-276v648q-55 -73 -146 -123.5t-188 -49.5zM508 201h2q173 -4 332 241v340q-70 64 -143.5 105t-127.5 41q-102 0 -162.5 -102.5t-60.5 -278.5q0 -89 19 -167 t56.5 -128t84.5 -51z" />
<glyph unicode="r" horiz-adv-x="903" d="M127 1126h262v-110q19 40 85.5 86.5t137.5 46.5q55 0 108.5 -14.5t90 -35.5t65 -42.5t42.5 -36.5l14 -14l-184 -179q-8 11 -22 27t-49 43t-59 27q-58 0 -114 -67.5t-101 -162.5v-694h-276v1126z" />
<glyph unicode="s" horiz-adv-x="1038" d="M379 813q0 -23 13 -41.5t39 -32.5t51.5 -23.5t61.5 -21.5q9 -3 13 -4q42 -13 63.5 -19.5t61 -21t61 -25t54 -28.5t51 -35.5t40.5 -43t33 -53t19 -63t8 -75.5q0 -69 -24 -127.5t-65.5 -98.5t-96.5 -68.5t-116.5 -41.5t-127.5 -13q-136 0 -265.5 67t-209.5 192l195 155 q51 -95 129 -150t155 -57q63 0 107.5 37t44.5 105q0 25 -12.5 46t-29 35t-47.5 28t-51.5 21.5t-56.5 18.5q-62 18 -107 34.5t-98.5 45.5t-87.5 62.5t-57 84t-23 111.5q0 69 20.5 124.5t55.5 90.5t76 60t87.5 37.5t83.5 18t71 5.5q116 0 219.5 -43t179.5 -117l-174 -166 q-50 56 -110 87.5t-115 31.5q-18 0 -35.5 -5t-38 -17.5t-33 -40t-12.5 -66.5z" />
<glyph unicode="t" horiz-adv-x="825" d="M47 924v206h135v406h275v-406h254v-206h-254v-582q0 -33 0.5 -46.5t4 -39t13 -39t25.5 -18.5q48 -15 157 94l166 -158q-81 -85 -168.5 -121.5t-197.5 -36.5q-275 0 -275 365v582h-135z" />
<glyph unicode="u" d="M377 340q-8 -140 85 -132q98 9 275 162q39 34 66 62v694h276v-1126h-276v162q-31 -56 -149.5 -120.5t-252.5 -64.5q-301 0 -301 363v786h277v-786z" />
<glyph unicode="v" horiz-adv-x="1144" d="M20 1126h306l229 -684q73 234 158.5 440.5t128.5 243.5h299q-54 -59 -121 -196.5t-124 -291.5t-106 -300.5t-78 -241.5l-28 -96h-231z" />
<glyph unicode="w" horiz-adv-x="1601" d="M584 0h-246l-326 1126h291l168 -632l180 632h234l180 -637q67 250 130 433t101 204h279q-44 -44 -140.5 -325.5t-171.5 -540.5l-75 -260h-232l-186 645z" />
<glyph unicode="x" horiz-adv-x="1255" d="M82 1126h330l221 -325q83 117 164 216t108 109h334q-73 -53 -210.5 -225.5t-242.5 -322.5q60 -86 204 -288t206 -290h-330l-233 350q-240 -335 -291 -350h-338q59 39 164.5 164t178 223.5t134.5 187.5q-301 413 -399 551z" />
<glyph unicode="y" horiz-adv-x="1060" d="M-18 1126h286l244 -626q234 567 301 626h315q-52 -51 -103 -142.5t-151.5 -321.5t-298.5 -713q-21 -52 -38 -90t-43 -87.5t-58 -92.5t-69 -78q-40 -39 -87.5 -66t-99 -39.5t-88 -17.5t-84.5 -8l-61 213q104 5 151.5 23.5t77.5 49.5q56 50 141 260q15 44 45 117z" />
<glyph unicode="z" horiz-adv-x="1067" d="M995 268v-213q-22 -24 -71 -38t-87 -15l-38 -2h-740v178l564 742h-564v206h904v-176l-564 -741h402q13 0 35 1.5t73.5 16.5t85.5 41z" />
<glyph unicode="{" horiz-adv-x="968" d="M569 1694q69 0 142 -22.5t111 -45.5l38 -22l-88 -222q-1 3 -20.5 18.5t-47.5 31t-55.5 22t-47 -16t-19.5 -77.5v-608q0 -8 -1 -19t-9 -38t-21.5 -49.5t-43.5 -46t-71 -34.5q71 -21 108.5 -81t37.5 -111v-584q0 -54 19.5 -76t47.5 -15.5t56 22t47.5 31.5t19.5 18l88 -224 q-5 -4 -15.5 -9.5t-42 -21t-64 -27t-79 -21t-90.5 -9.5q-65 0 -115.5 24.5t-78.5 60t-45.5 83t-23 86.5t-5.5 78v582q0 4 -1 11.5t-11.5 25.5t-28 32t-56 25.5t-91.5 11.5v172q53 0 92 11t56.5 26.5t27.5 30.5t11 26l1 11v606q0 39 5.5 78.5t23 87.5t45.5 83.5t78.5 60 t115.5 24.5z" />
<glyph unicode="|" horiz-adv-x="509" d="M383 -508h-266v2202h266v-2202z" />
<glyph unicode="}" horiz-adv-x="968" d="M383 1694q65 0 115.5 -24.5t78.5 -60t45.5 -83.5t23 -87.5t5.5 -78.5v-606q0 -4 1 -11t11 -25.5t28 -32t57 -25t92 -11.5v-172q-53 0 -91.5 -11t-56.5 -26.5t-28.5 -31t-11.5 -26.5l-1 -11v-582q0 -39 -5.5 -78t-23 -86.5t-45.5 -83t-78.5 -60t-115.5 -24.5 q-69 0 -142 22t-111 44l-38 22l88 224q0 -2 19.5 -18t48 -31.5t56.5 -22t47.5 15.5t19.5 76v584q0 51 37 111t108 81q-41 11 -70.5 34.5t-43.5 46t-21.5 50t-8.5 38t-1 18.5v608q0 55 -19.5 77.5t-47 16t-56 -22t-48 -31t-20.5 -18.5l-88 222q5 4 15.5 10t42 21.5t64 27.5 t79 21.5t90.5 9.5z" />
<glyph unicode="~" horiz-adv-x="1341" d="M186 537l-125 184q5 4 14 12t40.5 28t67.5 37t93.5 34t118.5 24q104 10 273 -37l-4 2q166 -32 235 -30q56 8 117 34.5t94 48.5l33 23l84 -188q-5 -4 -15 -11.5t-41.5 -27t-64 -35t-81.5 -31t-97 -20.5q-106 -11 -307 37q-120 32 -197 26q-61 -8 -120.5 -35.5t-88.5 -51.5 z" />
<glyph unicode="&#xa1;" horiz-adv-x="608" d="M168 1180h258l27 -1276h-312zM119 1434q0 68 52 113.5t130 45.5q75 0 125.5 -45.5t50.5 -113.5q0 -67 -50.5 -112.5t-125.5 -45.5q-78 0 -130 45t-52 113z" />
<glyph unicode="&#xa2;" horiz-adv-x="1050" d="M629 1352h231l-63 -232q52 -27 97.5 -68t65.5 -68l19 -28l-174 -114l-2 4q-12 11 -66 35q-32 -123 -92 -347t-90 -339h16q51 0 108 29.5t155 123.5l170 -162q-68 -70 -129.5 -115t-117.5 -64t-94.5 -24.5t-91.5 -5.5q-35 0 -69 3l-41 -156h-232l64 237 q-107 78 -167 208.5t-60 285.5q0 123 31 227t82.5 174t119 119.5t139 72t144.5 23.5zM346 555q0 -90 27 -176l147 557q-74 -32 -124 -130t-50 -251z" />
<glyph unicode="&#xa3;" horiz-adv-x="1216" d="M344 104q-21 0 -52 -36.5t-52 -73.5l-21 -37l-186 121q3 7 8 19.5t23 45.5t38.5 60.5t55 55t71.5 38.5l43 221h-135v211h176q91 471 142 680q21 78 67 136t100.5 85.5t101 40t85.5 12.5q44 0 84.5 -11t70 -25.5t68.5 -47t63 -55.5t70 -71l-182 -148q-73 78 -112 113 t-62 35q-11 0 -24.5 -8.5t-31 -37t-28.5 -73.5q-29 -111 -121 -574l-10 -51h276v-211h-319l-43 -225q68 -24 113 -45q112 -53 165 -53q24 0 72.5 37t85.5 74l37 38l166 -166q-8 -8 -22 -21.5t-56 -48.5t-83 -61.5t-96.5 -48t-103.5 -21.5q-75 0 -136.5 18.5t-137.5 53.5h2 q-120 55 -170 55z" />
<glyph unicode="&#xa5;" horiz-adv-x="1269" d="M1120 532v-204h-354v-328h-287v328h-356v204h356v109h-356v205h299q-47 74 -146.5 227.5t-179.5 279.5t-141 224h321l349 -543l348 543h315l-465 -731h297v-205h-354v-109h354z" />
<glyph unicode="&#xa8;" horiz-adv-x="894" d="M102 1403q0 60 37.5 98.5t104.5 38.5q64 0 100.5 -38.5t36.5 -98.5q0 -62 -36.5 -100.5t-100.5 -38.5q-67 0 -104.5 38.5t-37.5 100.5zM496 1403q0 60 36.5 98.5t102.5 38.5q68 0 102.5 -37.5t34.5 -99.5q0 -63 -34.5 -101t-102.5 -38q-66 0 -102.5 38.5t-36.5 100.5z " />
<glyph unicode="&#xa9;" horiz-adv-x="1810" d="M74 788q0 161 64 307.5t173 252.5t259.5 168.5t316.5 62.5q165 0 315 -62.5t258 -168.5t172 -252.5t64 -307.5q0 -215 -108 -396t-294 -286.5t-407 -105.5q-222 0 -409 105.5t-295.5 286.5t-108.5 396zM891 1237q57 0 110.5 -18t88.5 -44t62 -52t40 -44l12 -18l-168 -158 q-3 5 -8.5 14t-22.5 32t-33.5 40.5t-39.5 32t-43 14.5q-54 0 -96.5 -69t-42.5 -195q0 -96 38 -165.5t95 -69.5q33 0 71.5 22.5t116.5 97.5l150 -147q-104 -107 -179 -138.5t-159 -31.5q-173 0 -281 122.5t-108 309.5q0 93 24.5 171.5t65 131.5t92.5 90.5t106.5 54.5 t108.5 17zM305 788q0 -122 46 -233t124 -192t186 -129t226 -48q117 0 224 48t185 129t124 192.5t46 232.5q0 163 -78 302t-211.5 220t-289.5 81q-158 0 -292.5 -81t-212 -220t-77.5 -302z" />
<glyph unicode="&#xad;" horiz-adv-x="714" d="M639 680v-211h-578v211h578z" />
<glyph unicode="&#xae;" horiz-adv-x="1810" d="M776 348h-237v885h231q52 12 135 12q54 -2 104 -17.5t96.5 -45.5t74.5 -84t28 -125q-3 -190 -157 -262q53 -60 90 -113q105 -135 260 -250h-314q-32 22 -63.5 53.5t-44.5 48.5t-43 58h2q-38 53 -83.5 100.5t-78.5 65.5v-326zM776 1040v-194h98q39 0 68.5 28.5t30.5 98.5 q0 44 -21.5 67t-50.5 23q-63 6 -125 -23zM74 788q0 161 64 307.5t173 252.5t259.5 168.5t316.5 62.5q165 0 315 -62.5t258 -168.5t172 -252.5t64 -307.5q0 -215 -108 -396t-294 -286.5t-407 -105.5q-222 0 -409 105.5t-295.5 286.5t-108.5 396zM305 788q0 -122 46 -233 t124 -192t186 -129t226 -48q117 0 224 48t185 129t124 192.5t46 232.5q0 163 -78 302t-211.5 220t-289.5 81q-158 0 -292.5 -81t-212 -220t-77.5 -302z" />
<glyph unicode="&#xb4;" horiz-adv-x="661" d="M385 1548h274l-340 -299h-202z" />
<glyph unicode="&#xb6;" horiz-adv-x="1509" d="M924 -487h-230v985q-122 -56 -225 -56q-187 0 -319 160t-132 408q0 115 43 219t119 180.5t187 122t239 45.5h852v-186h-145v-1878h-230v1878h-159v-1878z" />
<glyph unicode="&#xb7;" horiz-adv-x="512" d="M78 573q0 65 50 107.5t126 42.5q73 0 121.5 -42.5t48.5 -107.5q0 -67 -48 -110t-122 -43q-77 0 -126.5 43t-49.5 110z" />
<glyph unicode="&#xb8;" horiz-adv-x="675" d="M231 -117h-59l133 191h219l-75 -135q59 -17 93 -69.5t27 -119.5q-4 -29 -13.5 -51.5t-32 -46t-69 -36.5t-114.5 -13q-170 0 -279 75l82 132q18 -12 67 -23t95.5 -6t46.5 37q0 65 -121 65z" />
<glyph unicode="&#xbf;" horiz-adv-x="1038" d="M397 1094l189 151q81 -74 119 -134.5t38 -141.5q0 -91 -56 -169.5t-167 -176.5q-45 -42 -76 -74.5t-66 -77.5t-54 -90t-21 -90q0 -176 182 -176q44 0 92 29t85 70.5t67.5 83t46.5 70.5l17 29l184 -176q-4 -7 -11 -18t-31.5 -44t-52 -63t-71.5 -66.5t-90.5 -63t-109 -44.5 t-126.5 -18q-114 0 -201 27.5t-135.5 68t-79 95.5t-40 102t-9.5 96q0 46 11 91.5t25 80.5t43.5 77t50.5 68t62 66.5t62 59.5t66 59q135 124 135 176q0 29 -18.5 56.5t-59.5 66.5zM672 1446q0 -63 -48 -103t-120 -40t-119 40t-47 103t47 105t119 42t120 -42t48 -105z" />
<glyph unicode="&#xc0;" horiz-adv-x="1460" d="M578 1577h272l582 -1577h-302l-190 512h-457l-184 -512h-303zM860 733l-147 393l-148 -393h295zM295 1960h274l269 -299h-203z" />
<glyph unicode="&#xc1;" horiz-adv-x="1460" d="M578 1577h272l582 -1577h-302l-190 512h-457l-184 -512h-303zM860 733l-147 393l-148 -393h295zM721 1960h274l-340 -299h-202z" />
<glyph unicode="&#xc2;" horiz-adv-x="1460" d="M578 1577h272l582 -1577h-302l-190 512h-457l-184 -512h-303zM860 733l-147 393l-148 -393h295zM627 1944h188l324 -299h-258l-160 157l-160 -157h-256z" />
<glyph unicode="&#xc3;" horiz-adv-x="1460" d="M578 1577h272l582 -1577h-302l-190 512h-457l-184 -512h-303zM860 733l-147 393l-148 -393h295zM1092 1980l100 -198q-4 -5 -12 -14t-35 -32t-56.5 -41t-75 -34t-91.5 -19q-56 -4 -119.5 19t-130 48.5t-123.5 25.5q-22 -1 -49.5 -15t-50 -33.5t-42.5 -38.5t-31 -32 l-11 -14l-97 194q4 5 12 14t35 31.5t56 40.5t74.5 34t91.5 19t98.5 -10.5t92.5 -32t90 -34t91 -15.5q36 2 81.5 36t73.5 67z" />
<glyph unicode="&#xc4;" horiz-adv-x="1460" d="M578 1577h272l582 -1577h-302l-190 512h-457l-184 -512h-303zM860 733l-147 393l-148 -393h295zM395 1792q0 60 37.5 98.5t104.5 38.5q64 0 100.5 -38.5t36.5 -98.5q0 -62 -36.5 -100.5t-100.5 -38.5q-67 0 -104.5 38.5t-37.5 100.5zM788 1792q0 60 37 98.5t103 38.5 q68 0 102.5 -37.5t34.5 -99.5q0 -63 -34.5 -101t-102.5 -38q-66 0 -103 38.5t-37 100.5z" />
<glyph unicode="&#xc5;" horiz-adv-x="1460" d="M578 1577h272l582 -1577h-302l-190 512h-457l-184 -512h-303zM860 733l-147 393l-148 -393h295zM678 1870q0 -24 10.5 -41t24.5 -17q12 0 21 17t9 41q0 19 -9 34t-21 15q-13 0 -24 -15t-11 -34zM489 1870q0 82 64.5 140t155.5 58t155 -58t64 -140t-64 -140.5t-155 -58.5 t-155.5 58.5t-64.5 140.5z" />
<glyph unicode="&#xc6;" horiz-adv-x="2013" d="M1921 0h-971v512h-358q-31 -56 -134 -237.5t-153 -274.5h-309l870 1577h764q55 0 120.5 4.5t103.5 8.5l38 5v-239h-653v-428h557v-223h-557v-482h418q55 0 121 4.5t104 8.5l39 4v-240zM950 1155l-237 -422h237v422z" />
<glyph unicode="&#xc7;" horiz-adv-x="1325" d="M1245 1358l-190 -180q-5 8 -14 20.5t-40 45.5t-65 58t-86 45.5t-105 20.5q-57 0 -110.5 -24.5t-101 -75.5t-83 -123.5t-56.5 -175.5t-21 -224q0 -228 110 -384.5t265 -161.5q56 -2 112.5 17.5t96 44t79.5 60.5t55 53t31 36l185 -185q-53 -42 -60 -53q-33 -33 -53 -51 t-70 -52.5t-98.5 -53t-126.5 -32.5t-166 -12q-187 4 -336.5 104.5t-233 276t-83.5 393.5q0 164 36.5 305t100 242t148.5 172.5t182.5 106.5t200.5 35q99 0 186.5 -25.5t142 -62t94.5 -73t57 -61.5zM559 -117h-59l133 191h219l-76 -135q59 -18 93.5 -70.5t27.5 -118.5 q-4 -29 -13.5 -51.5t-32 -46t-69 -36.5t-114.5 -13q-170 0 -279 75l82 132q18 -12 67 -23t95.5 -6t46.5 37q0 65 -121 65z" />
<glyph unicode="&#xc8;" horiz-adv-x="1157" d="M1096 0h-969v1577h678q55 0 121 4.5t104 8.5l39 5v-239h-653v-428h555v-223h-555v-482h418q55 0 120.5 4.5t103.5 8.5l38 4v-240zM178 1958h275l268 -299h-203z" />
<glyph unicode="&#xc9;" horiz-adv-x="1157" d="M1096 0h-969v1577h678q55 0 121 4.5t104 8.5l39 5v-239h-653v-428h555v-223h-555v-482h418q55 0 120.5 4.5t103.5 8.5l38 4v-240zM633 1960h274l-340 -299h-202z" />
<glyph unicode="&#xca;" horiz-adv-x="1157" d="M1096 0h-969v1577h678q55 0 121 4.5t104 8.5l39 5v-239h-653v-428h555v-223h-555v-482h418q55 0 120.5 4.5t103.5 8.5l38 4v-240zM483 1964h189l323 -299h-258l-159 158l-160 -158h-256z" />
<glyph unicode="&#xcb;" horiz-adv-x="1157" d="M1096 0h-969v1577h678q55 0 121 4.5t104 8.5l39 5v-239h-653v-428h555v-223h-555v-482h418q55 0 120.5 4.5t103.5 8.5l38 4v-240zM244 1792q0 61 37 99t104 38q64 0 100.5 -38.5t36.5 -98.5q0 -62 -36.5 -100.5t-100.5 -38.5q-67 0 -104 38.5t-37 100.5zM637 1792 q0 60 36.5 98.5t102.5 38.5q68 0 102.5 -37.5t34.5 -99.5q0 -63 -34.5 -101t-102.5 -38q-66 0 -102.5 38.5t-36.5 100.5z" />
<glyph unicode="&#xcc;" horiz-adv-x="534" d="M408 0h-291v1577h291v-1577zM-158 1970h275l268 -299h-203z" />
<glyph unicode="&#xcd;" horiz-adv-x="534" d="M408 0h-291v1577h291v-1577zM387 1960h275l-340 -299h-203z" />
<glyph unicode="&#xce;" horiz-adv-x="534" d="M408 0h-291v1577h291v-1577zM164 1964h188l324 -299h-258l-160 158l-160 -158h-256z" />
<glyph unicode="&#xcf;" horiz-adv-x="534" d="M408 0h-291v1577h291v-1577zM-68 1798q0 60 37.5 98.5t104.5 38.5q64 0 100.5 -38.5t36.5 -98.5q0 -62 -36.5 -100.5t-100.5 -38.5q-67 0 -104.5 38.5t-37.5 100.5zM326 1798q0 60 36.5 98.5t102.5 38.5q68 0 102.5 -37.5t34.5 -99.5q0 -63 -34.5 -101t-102.5 -38 q-66 0 -102.5 38.5t-36.5 100.5z" />
<glyph unicode="&#xd0;" horiz-adv-x="1597" d="M254 0v717h-154v211h154v618q140 17 196.5 23.5t130 12t136.5 5.5q90 0 165.5 -8.5t155.5 -31.5t143.5 -61t121 -100.5t95.5 -145.5t60.5 -200.5t22.5 -261.5q0 -183 -49 -330.5t-138 -245t-212.5 -150t-272.5 -52.5h-555zM893 928v-211h-350v-494h266q168 0 275.5 150.5 t107.5 404.5q0 109 -13 195t-46 161.5t-86 125t-135.5 78t-192.5 28.5q-80 0 -176 -14v-424h350zM543 1382v-30q-12 -2 -31 -2q-12 -4 -29 -4z" />
<glyph unicode="&#xd1;" horiz-adv-x="1488" d="M418 0h-289v1577l268 -2l641 -1040v1042h289v-1577l-268 2l-641 1042v-1044zM1073 2005l101 -199q-4 -5 -12 -14t-35.5 -31.5t-56.5 -40.5t-75 -34t-92 -19q-45 -3 -95 10.5t-89 32t-91 34t-98 15.5q-22 -1 -49.5 -15t-50 -33.5t-42.5 -38.5t-31 -32l-11 -14l-96 195 q4 5 12 14t34.5 31.5t55.5 40.5t74.5 34t91.5 19t99 -10.5t93 -32t90 -34t91 -15.5q22 1 49 15.5t49.5 34.5t42 40t30.5 34z" />
<glyph unicode="&#xd2;" horiz-adv-x="1556" d="M766 1606q70 0 136 -11.5t134 -39.5t127 -70t110.5 -107.5t88.5 -148t58.5 -194.5t21.5 -244q0 -157 -26.5 -284.5t-75.5 -215.5t-112 -151.5t-141.5 -99.5t-158 -52.5t-168.5 -16.5q-100 0 -191 22.5t-182 80.5t-157 147.5t-107 234.5t-41 330t41 330.5t107.5 235.5 t157.5 149t183.5 82t194.5 23zM766 1386q-56 0 -109.5 -18t-106 -62t-92 -110t-63.5 -170.5t-24 -234.5q0 -132 24 -237t63 -171.5t91 -110.5t104 -61.5t107 -17.5q59 0 113 17.5t106 60.5t89.5 109t60.5 170t24 236q0 130 -23 234.5t-60.5 171.5t-88.5 111.5t-104.5 63.5 t-110.5 19zM338 1972h274l269 -299h-203z" />
<glyph unicode="&#xd3;" horiz-adv-x="1556" d="M766 1606q70 0 136 -11.5t134 -39.5t127 -70t110.5 -107.5t88.5 -148t58.5 -194.5t21.5 -244q0 -157 -26.5 -284.5t-75.5 -215.5t-112 -151.5t-141.5 -99.5t-158 -52.5t-168.5 -16.5q-100 0 -191 22.5t-182 80.5t-157 147.5t-107 234.5t-41 330t41 330.5t107.5 235.5 t157.5 149t183.5 82t194.5 23zM766 1386q-56 0 -109.5 -18t-106 -62t-92 -110t-63.5 -170.5t-24 -234.5q0 -132 24 -237t63 -171.5t91 -110.5t104 -61.5t107 -17.5q59 0 113 17.5t106 60.5t89.5 109t60.5 170t24 236q0 130 -23 234.5t-60.5 171.5t-88.5 111.5t-104.5 63.5 t-110.5 19zM889 1960h274l-340 -299h-202z" />
<glyph unicode="&#xd4;" horiz-adv-x="1556" d="M766 1606q70 0 136 -11.5t134 -39.5t127 -70t110.5 -107.5t88.5 -148t58.5 -194.5t21.5 -244q0 -157 -26.5 -284.5t-75.5 -215.5t-112 -151.5t-141.5 -99.5t-158 -52.5t-168.5 -16.5q-100 0 -191 22.5t-182 80.5t-157 147.5t-107 234.5t-41 330t41 330.5t107.5 235.5 t157.5 149t183.5 82t194.5 23zM766 1386q-56 0 -109.5 -18t-106 -62t-92 -110t-63.5 -170.5t-24 -234.5q0 -132 24 -237t63 -171.5t91 -110.5t104 -61.5t107 -17.5q59 0 113 17.5t106 60.5t89.5 109t60.5 170t24 236q0 130 -23 234.5t-60.5 171.5t-88.5 111.5t-104.5 63.5 t-110.5 19zM657 1964h189l323 -299h-258l-159 158l-160 -158h-256z" />
<glyph unicode="&#xd5;" horiz-adv-x="1556" d="M766 1606q70 0 136 -11.5t134 -39.5t127 -70t110.5 -107.5t88.5 -148t58.5 -194.5t21.5 -244q0 -157 -26.5 -284.5t-75.5 -215.5t-112 -151.5t-141.5 -99.5t-158 -52.5t-168.5 -16.5q-100 0 -191 22.5t-182 80.5t-157 147.5t-107 234.5t-41 330t41 330.5t107.5 235.5 t157.5 149t183.5 82t194.5 23zM766 1386q-56 0 -109.5 -18t-106 -62t-92 -110t-63.5 -170.5t-24 -234.5q0 -132 24 -237t63 -171.5t91 -110.5t104 -61.5t107 -17.5q59 0 113 17.5t106 60.5t89.5 109t60.5 170t24 236q0 130 -23 234.5t-60.5 171.5t-88.5 111.5t-104.5 63.5 t-110.5 19zM1141 2005l100 -199q-4 -5 -12 -14t-35 -31.5t-56.5 -40.5t-75 -34t-91.5 -19q-45 -3 -95 10.5t-89 32t-91 34t-98 15.5q-22 -1 -49.5 -15t-50 -33.5t-42.5 -38.5t-31 -32l-11 -14l-97 195q4 5 12 14t35 31.5t56 40.5t74.5 34t91.5 19t98.5 -10.5t92.5 -32 t90 -34t91 -15.5q36 2 81.5 36t73.5 68z" />
<glyph unicode="&#xd6;" horiz-adv-x="1556" d="M766 1606q70 0 136 -11.5t134 -39.5t127 -70t110.5 -107.5t88.5 -148t58.5 -194.5t21.5 -244q0 -157 -26.5 -284.5t-75.5 -215.5t-112 -151.5t-141.5 -99.5t-158 -52.5t-168.5 -16.5q-100 0 -191 22.5t-182 80.5t-157 147.5t-107 234.5t-41 330t41 330.5t107.5 235.5 t157.5 149t183.5 82t194.5 23zM766 1386q-56 0 -109.5 -18t-106 -62t-92 -110t-63.5 -170.5t-24 -234.5q0 -132 24 -237t63 -171.5t91 -110.5t104 -61.5t107 -17.5q59 0 113 17.5t106 60.5t89.5 109t60.5 170t24 236q0 130 -23 234.5t-60.5 171.5t-88.5 111.5t-104.5 63.5 t-110.5 19zM420 1792q0 61 37 99t104 38q64 0 100.5 -38.5t36.5 -98.5q0 -62 -36.5 -100.5t-100.5 -38.5q-67 0 -104 38.5t-37 100.5zM813 1792q0 60 36.5 98.5t102.5 38.5q68 0 103 -38t35 -99q0 -63 -35 -101t-103 -38q-66 0 -102.5 38.5t-36.5 100.5z" />
<glyph unicode="&#xd8;" horiz-adv-x="1556" d="M766 1606q140 0 252 -45q8 17 24 47.5t19 36.5h276l-114 -213q216 -220 219 -641q0 -157 -26.5 -284.5t-75.5 -215.5t-112 -151.5t-141.5 -99.5t-158 -52.5t-168.5 -16.5q-150 0 -262 45l-43 -84h-273l109 218q-209 216 -209 636q0 185 41 330.5t107.5 235.5t157.5 149 t183.5 82t194.5 23zM1153 786q0 236 -68 369l-475 -926q68 -36 150 -36q59 0 113 17.5t106 60.5t89.5 109t60.5 170t24 236zM766 1386q-56 0 -109.5 -18t-106 -62t-92 -110t-63.5 -170.5t-24 -234.5q0 -214 63 -365q82 158 240 464.5t237 459.5q-71 36 -145 36z" />
<glyph unicode="&#xd9;" horiz-adv-x="1409" d="M1249 504q0 -98 -22 -178t-57 -133.5t-84.5 -94t-98.5 -63t-106.5 -36.5t-101 -18t-89.5 -4t-90 4.5t-102 18.5t-107.5 36.5t-99 63.5t-84.5 94.5t-57.5 133t-22.5 176.5v1073h291v-1069q0 -77 20 -135t49 -90t68 -51.5t70.5 -25t64.5 -5.5q31 0 63 6t70.5 26t67.5 51.5 t49 88.5t21 131v1073h288v-1073zM252 1962h274l269 -299h-203z" />
<glyph unicode="&#xda;" horiz-adv-x="1409" d="M1249 504q0 -98 -22 -178t-57 -133.5t-84.5 -94t-98.5 -63t-106.5 -36.5t-101 -18t-89.5 -4t-90 4.5t-102 18.5t-107.5 36.5t-99 63.5t-84.5 94.5t-57.5 133t-22.5 176.5v1073h291v-1069q0 -77 20 -135t49 -90t68 -51.5t70.5 -25t64.5 -5.5q31 0 63 6t70.5 26t67.5 51.5 t49 88.5t21 131v1073h288v-1073zM836 1939h274l-340 -299h-203z" />
<glyph unicode="&#xdb;" horiz-adv-x="1409" d="M1249 504q0 -98 -22 -178t-57 -133.5t-84.5 -94t-98.5 -63t-106.5 -36.5t-101 -18t-89.5 -4t-90 4.5t-102 18.5t-107.5 36.5t-99 63.5t-84.5 94.5t-57.5 133t-22.5 176.5v1073h291v-1069q0 -77 20 -135t49 -90t68 -51.5t70.5 -25t64.5 -5.5q31 0 63 6t70.5 26t67.5 51.5 t49 88.5t21 131v1073h288v-1073zM594 1964h188l324 -299h-258l-160 158l-160 -158h-256z" />
<glyph unicode="&#xdc;" horiz-adv-x="1409" d="M1249 504q0 -98 -22 -178t-57 -133.5t-84.5 -94t-98.5 -63t-106.5 -36.5t-101 -18t-89.5 -4t-90 4.5t-102 18.5t-107.5 36.5t-99 63.5t-84.5 94.5t-57.5 133t-22.5 176.5v1073h291v-1069q0 -77 20 -135t49 -90t68 -51.5t70.5 -25t64.5 -5.5q31 0 63 6t70.5 26t67.5 51.5 t49 88.5t21 131v1073h288v-1073zM358 1792q0 60 37.5 98.5t104.5 38.5q64 0 100.5 -38.5t36.5 -98.5q0 -62 -36.5 -100.5t-100.5 -38.5q-67 0 -104.5 38.5t-37.5 100.5zM752 1792q0 60 36.5 98.5t102.5 38.5q68 0 102.5 -37.5t34.5 -99.5q0 -63 -34.5 -101t-102.5 -38 q-66 0 -102.5 38.5t-36.5 100.5z" />
<glyph unicode="&#xdd;" horiz-adv-x="1269" d="M973 1577h315l-522 -823v-754h-287v754l-526 823h323l349 -543zM774 1939h275l-340 -299h-203z" />
<glyph unicode="&#xde;" horiz-adv-x="1294" d="M416 0h-289v1577h289v-229q119 49 262 49q227 0 369.5 -148t142.5 -383q0 -295 -138 -450.5t-388 -155.5q-136 0 -248 51v-311zM905 866q0 137 -76.5 222.5t-207.5 85.5q-88 0 -205 -76v-508q122 -101 256 -101q108 0 170.5 96t62.5 281z" />
<glyph unicode="&#xdf;" horiz-adv-x="1341" d="M520 756v211q45 2 85 9.5t84 27t75 49t51.5 80t20.5 116.5q-1 51 -24.5 90t-58.5 59.5t-67.5 30t-58.5 9.5q-86 0 -144 -40.5t-65 -125.5v-1272h-273v920h-135v206h135v148q0 97 38.5 172t106 120.5t153 68t184.5 22.5q40 0 82.5 -5.5t90.5 -19t92 -34t84.5 -53.5 t70 -74.5t47.5 -99.5t18 -126q-3 -208 -129 -334q115 -51 184.5 -151.5t69.5 -251.5q0 -55 -4.5 -100.5t-18.5 -99.5t-37.5 -96.5t-64.5 -83.5t-97 -68t-138 -43.5t-183 -16.5q-92 0 -170 27v229q105 -27 168 -27q69 0 118.5 15.5t78 40t45.5 62.5t22 75t5 86 q0 65 -26.5 112.5t-67.5 74t-101.5 41.5t-117.5 18.5t-128 1.5z" />
<glyph unicode="&#xe0;" horiz-adv-x="1161" d="M219 762q-33 53 -62 102.5t-42 73.5l-13 23q43 25 91 48.5t132 59.5t178 58t177 22q76 0 134.5 -25t91 -61.5t53 -85t26.5 -88t6 -78.5v-567q0 -5 0.5 -10t7 -20.5t18 -29t37 -32.5t60.5 -35l-168 -152q-136 54 -184 129q-150 -117 -336 -117q-15 0 -35.5 2t-56 10 t-69 20.5t-69.5 37.5t-62.5 58t-44 83.5t-17.5 112.5q0 50 9 92.5t37 90.5t73.5 84.5t125 67.5t185.5 46q177 23 215 33v96q0 15 -2 32t-8 37.5t-19.5 34t-32.5 13.5q-122 0 -436 -166zM424 184q72 -6 153 38.5t140 111.5v168q-23 -5 -117 -17l-65 -10q-191 -36 -191 -174 q0 -35 9.5 -60.5t25 -36.5t25.5 -15t20 -5zM309 1548h275l268 -299h-203z" />
<glyph unicode="&#xe1;" horiz-adv-x="1161" d="M219 762q-33 53 -62 102.5t-42 73.5l-13 23q43 25 91 48.5t132 59.5t178 58t177 22q76 0 134.5 -25t91 -61.5t53 -85t26.5 -88t6 -78.5v-567q0 -5 0.5 -10t7 -20.5t18 -29t37 -32.5t60.5 -35l-168 -152q-136 54 -184 129q-150 -117 -336 -117q-15 0 -35.5 2t-56 10 t-69 20.5t-69.5 37.5t-62.5 58t-44 83.5t-17.5 112.5q0 50 9 92.5t37 90.5t73.5 84.5t125 67.5t185.5 46q177 23 215 33v96q0 15 -2 32t-8 37.5t-19.5 34t-32.5 13.5q-122 0 -436 -166zM424 184q72 -6 153 38.5t140 111.5v168q-23 -5 -117 -17l-65 -10q-191 -36 -191 -174 q0 -35 9.5 -60.5t25 -36.5t25.5 -15t20 -5zM618 1548h275l-340 -299h-203z" />
<glyph unicode="&#xe2;" horiz-adv-x="1161" d="M219 762q-33 53 -62 102.5t-42 73.5l-13 23q43 25 91 48.5t132 59.5t178 58t177 22q76 0 134.5 -25t91 -61.5t53 -85t26.5 -88t6 -78.5v-567q0 -5 0.5 -10t7 -20.5t18 -29t37 -32.5t60.5 -35l-168 -152q-136 54 -184 129q-150 -117 -336 -117q-15 0 -35.5 2t-56 10 t-69 20.5t-69.5 37.5t-62.5 58t-44 83.5t-17.5 112.5q0 50 9 92.5t37 90.5t73.5 84.5t125 67.5t185.5 46q177 23 215 33v96q0 15 -2 32t-8 37.5t-19.5 34t-32.5 13.5q-122 0 -436 -166zM424 184q72 -6 153 38.5t140 111.5v168q-23 -5 -117 -17l-65 -10q-191 -36 -191 -174 q0 -35 9.5 -60.5t25 -36.5t25.5 -15t20 -5zM465 1554h188l324 -299h-258l-160 158l-160 -158h-256z" />
<glyph unicode="&#xe3;" horiz-adv-x="1161" d="M219 762q-33 53 -62 102.5t-42 73.5l-13 23q43 25 91 48.5t132 59.5t178 58t177 22q76 0 134.5 -25t91 -61.5t53 -85t26.5 -88t6 -78.5v-567q0 -5 0.5 -10t7 -20.5t18 -29t37 -32.5t60.5 -35l-168 -152q-136 54 -184 129q-150 -117 -336 -117q-15 0 -35.5 2t-56 10 t-69 20.5t-69.5 37.5t-62.5 58t-44 83.5t-17.5 112.5q0 50 9 92.5t37 90.5t73.5 84.5t125 67.5t185.5 46q177 23 215 33v96q0 15 -2 32t-8 37.5t-19.5 34t-32.5 13.5q-122 0 -436 -166zM424 184q72 -6 153 38.5t140 111.5v168q-23 -5 -117 -17l-65 -10q-191 -36 -191 -174 q0 -35 9.5 -60.5t25 -36.5t25.5 -15t20 -5zM942 1538l100 -199q-4 -5 -12 -14t-35 -31.5t-56.5 -40.5t-75 -34t-91.5 -19q-45 -3 -95 10.5t-89 32t-91 34t-98 15.5q-22 -1 -49.5 -15t-50 -33.5t-42.5 -38.5t-31 -33l-11 -13l-96 195q4 5 12 14t34.5 31.5t55.5 40.5t74.5 34 t91.5 19t99 -10.5t93 -32t90 -34t91 -15.5q22 1 49 15.5t49.5 34.5t42 40t30.5 33z" />
<glyph unicode="&#xe4;" horiz-adv-x="1161" d="M219 762q-33 53 -62 102.5t-42 73.5l-13 23q43 25 91 48.5t132 59.5t178 58t177 22q76 0 134.5 -25t91 -61.5t53 -85t26.5 -88t6 -78.5v-567q0 -5 0.5 -10t7 -20.5t18 -29t37 -32.5t60.5 -35l-168 -152q-136 54 -184 129q-150 -117 -336 -117q-15 0 -35.5 2t-56 10 t-69 20.5t-69.5 37.5t-62.5 58t-44 83.5t-17.5 112.5q0 50 9 92.5t37 90.5t73.5 84.5t125 67.5t185.5 46q177 23 215 33v96q0 15 -2 32t-8 37.5t-19.5 34t-32.5 13.5q-122 0 -436 -166zM424 184q72 -6 153 38.5t140 111.5v168q-23 -5 -117 -17l-65 -10q-191 -36 -191 -174 q0 -35 9.5 -60.5t25 -36.5t25.5 -15t20 -5zM246 1403q0 61 37 99t104 38q64 0 100.5 -38.5t36.5 -98.5q0 -62 -36.5 -100.5t-100.5 -38.5q-67 0 -104 38.5t-37 100.5zM639 1403q0 60 36.5 98.5t102.5 38.5q68 0 102.5 -37.5t34.5 -99.5q0 -63 -34.5 -101t-102.5 -38 q-66 0 -102.5 38.5t-36.5 100.5z" />
<glyph unicode="&#xe5;" horiz-adv-x="1161" d="M219 762q-33 53 -62 102.5t-42 73.5l-13 23q43 25 91 48.5t132 59.5t178 58t177 22q76 0 134.5 -25t91 -61.5t53 -85t26.5 -88t6 -78.5v-567q0 -5 0.5 -10t7 -20.5t18 -29t37 -32.5t60.5 -35l-168 -152q-136 54 -184 129q-150 -117 -336 -117q-15 0 -35.5 2t-56 10 t-69 20.5t-69.5 37.5t-62.5 58t-44 83.5t-17.5 112.5q0 50 9 92.5t37 90.5t73.5 84.5t125 67.5t185.5 46q177 23 215 33v96q0 15 -2 32t-8 37.5t-19.5 34t-32.5 13.5q-122 0 -436 -166zM424 184q72 -6 153 38.5t140 111.5v168q-23 -5 -117 -17l-65 -10q-191 -36 -191 -174 q0 -35 9.5 -60.5t25 -36.5t25.5 -15t20 -5zM551 1417q0 -24 10.5 -40.5t24.5 -16.5q12 0 21 16.5t9 40.5q0 19 -9 34t-21 15q-13 0 -24 -15t-11 -34zM362 1417q0 82 64.5 140.5t155.5 58.5t155 -58.5t64 -140.5t-64 -140t-155 -58t-155.5 58t-64.5 140z" />
<glyph unicode="&#xe6;" horiz-adv-x="1845" d="M664 1149q160 0 241 -102q127 102 297 102q91 0 166.5 -24t124.5 -61t86.5 -88t57 -98t31.5 -97.5t15 -81.5t3 -54v-110h-719q0 -159 63 -253t180 -94q22 0 34.5 1t46.5 12t64.5 32t77 66t95.5 109l170 -160q-46 -58 -94 -103.5t-84.5 -73.5t-81 -47.5t-68.5 -28.5 t-64.5 -13.5t-51 -4.5h-44.5q-240 0 -383 160q-174 -160 -391 -160q-15 0 -35.5 2t-56 10t-69 20.5t-69.5 37.5t-62.5 58t-44 83.5t-17.5 112.5q0 50 9 92.5t37 90.5t73.5 84.5t124.5 67.5t184 46q157 20 192 29v100q0 23 -3 45.5t-18 47t-40 24.5q-56 0 -145 -31.5 t-142 -58t-96 -50.5l-65 -32q-31 60 -41 80q-13 25 -19 38.5t-14.5 36.5t-7 38.5t11.5 25.5q306 174 541 174zM434 184q72 -6 152.5 38t138.5 110q-20 67 -23 166l-159 -23h2q-60 -10 -99.5 -28t-58.5 -43t-26 -48.5t-7 -54.5q0 -35 9.5 -60.5t25 -36.5t25.5 -15t20 -5z M1202 938q-137 0 -201 -188h396q-21 80 -67.5 134t-127.5 54z" />
<glyph unicode="&#xe7;" horiz-adv-x="1050" d="M580 1149q71 0 136.5 -21.5t109 -52.5t77 -62.5t49.5 -52.5l15 -22l-181 -170q-4 7 -10.5 18t-28.5 39.5t-45 50.5t-58 40t-69 18q-89 0 -159 -103t-70 -286q0 -148 60.5 -250t158.5 -102q51 0 106.5 28t151.5 119l166 -158q-67 -69 -127 -113t-114.5 -62.5t-92.5 -24 t-90 -5.5q-146 0 -260 75t-174.5 203.5t-60.5 289.5q0 121 31 223.5t82 171.5t118 117t137.5 70t141.5 22zM287 -311l-29 30l92 125h-10l131 230h215l-53 -115q123 -38 123 -158q0 -81 -64.5 -136.5t-195.5 -55.5q-54 0 -100 15.5t-65.5 29.5t-43.5 35zM518 -199 q0 40 -61 43h-72q73 -73 111 -73q22 0 22 30z" />
<glyph unicode="&#xe8;" horiz-adv-x="1191" d="M72 551q0 163 61.5 299t179 217.5t267.5 81.5q91 0 166.5 -24t124.5 -61t86 -88t56.5 -98t31.5 -97.5t15 -81t3 -54.5v-110h-719q0 -159 64 -253t180 -94q23 0 35.5 1t46 12t63.5 32t76.5 66t95.5 109l172 -160q-53 -65 -104.5 -114t-98.5 -77.5t-83.5 -46t-78 -24 t-62 -8t-53.5 -1.5h-3h-3h-3q-125 0 -225 46t-162.5 126t-95.5 182.5t-33 219.5zM580 938q-134 0 -201 -188h397q-21 80 -68 134t-128 54zM66 1522h342l317 -353h-258z" />
<glyph unicode="&#xe9;" horiz-adv-x="1191" d="M72 551q0 163 61.5 299t179 217.5t267.5 81.5q91 0 166.5 -24t124.5 -61t86 -88t56.5 -98t31.5 -97.5t15 -81t3 -54.5v-110h-719q0 -159 64 -253t180 -94q23 0 35.5 1t46.5 12t64 32t77 66t96 109l170 -160q-53 -65 -104.5 -114t-98.5 -77.5t-83.5 -46t-78 -24t-62 -8 t-53.5 -1.5h-3h-3h-3q-125 0 -225 46t-162.5 126t-95.5 182.5t-33 219.5zM580 938q-134 0 -201 -188h397q-21 80 -68 134t-128 54zM698 1548h275l-340 -299h-203z" />
<glyph unicode="&#xea;" horiz-adv-x="1191" d="M72 551q0 163 61.5 299t179 217.5t267.5 81.5q91 0 166.5 -24t124.5 -61t86 -88t56.5 -98t31.5 -97.5t15 -81t3 -54.5v-110h-719q0 -159 64 -253t180 -94q23 0 35.5 1t46.5 12t64 32t77 66t96 109l170 -160q-53 -65 -104.5 -114t-98.5 -77.5t-83.5 -46t-78 -24t-62 -8 t-53.5 -1.5h-3h-3h-3q-125 0 -225 46t-162.5 126t-95.5 182.5t-33 219.5zM580 938q-134 0 -201 -188h397q-21 80 -68 134t-128 54zM498 1554h188l324 -299h-258l-160 158l-160 -158h-256z" />
<glyph unicode="&#xeb;" horiz-adv-x="1191" d="M72 551q0 163 61.5 299t179 217.5t267.5 81.5q91 0 166.5 -24t124.5 -61t86 -88t56.5 -98t31.5 -97.5t15 -81t3 -54.5v-110h-719q0 -159 64 -253t180 -94q23 0 35.5 1t46.5 12t64 32t77 66t96 109l170 -160q-53 -65 -104.5 -114t-98.5 -77.5t-83.5 -46t-78 -24t-62 -8 t-53.5 -1.5h-3h-3h-3q-125 0 -225 46t-162.5 126t-95.5 182.5t-33 219.5zM580 938q-134 0 -201 -188h397q-21 80 -68 134t-128 54zM242 1403q0 61 37 99t104 38q64 0 100.5 -38.5t36.5 -98.5q0 -62 -36.5 -100.5t-100.5 -38.5q-67 0 -104 38.5t-37 100.5zM635 1403 q0 60 36.5 98.5t102.5 38.5q68 0 102.5 -37.5t34.5 -99.5q0 -63 -34.5 -101t-102.5 -38q-66 0 -102.5 38.5t-36.5 100.5z" />
<glyph unicode="&#xec;" horiz-adv-x="524" d="M119 1126h272v-1126h-272v1126zM-154 1548h275l268 -299h-203z" />
<glyph unicode="&#xed;" horiz-adv-x="524" d="M119 1126h272v-1126h-272v1126zM393 1548h275l-340 -299h-203z" />
<glyph unicode="&#xee;" horiz-adv-x="524" d="M119 1126h272v-1126h-272v1126zM168 1554h188l324 -299h-258l-160 158l-160 -158h-256z" />
<glyph unicode="&#xef;" horiz-adv-x="524" d="M119 1126h272v-1126h-272v1126zM-88 1403q0 61 37 99t104 38q64 0 100.5 -38.5t36.5 -98.5q0 -62 -36.5 -100.5t-100.5 -38.5q-67 0 -104 38.5t-37 100.5zM305 1403q0 60 36.5 98.5t102.5 38.5q68 0 103 -38t35 -99q0 -63 -35 -101t-103 -38q-66 0 -102.5 38.5 t-36.5 100.5z" />
<glyph unicode="&#xf0;" horiz-adv-x="1257" d="M514 1548q30 0 76 -4l76 117l184 -121l-47 -76q161 -111 248.5 -319.5t87.5 -417.5q0 -354 -145 -547.5t-410 -193.5q-94 0 -173 24.5t-133 66t-95.5 93.5t-64.5 111t-34.5 113.5t-11.5 105.5q0 250 137 411.5t356 161.5q140 0 258 -65q-56 186 -149 262l-115 -174 l-186 110l76 117q-67 -17 -177 -88l-112 192q54 36 93 57.5t111 42.5t150 21zM584 199q124 0 197.5 127t82.5 354q-142 178 -299 178q-95 0 -156 -102.5t-61 -255.5q0 -46 12.5 -95t38 -97t74 -78.5t111.5 -30.5z" />
<glyph unicode="&#xf1;" d="M406 0h-277v1126h277v-143q223 166 403 166q299 0 299 -363v-786h-274v786q0 73 -24.5 105.5t-69 22.5t-87.5 -29.5t-100 -65t-84.5 -69t-62.5 -56.5v-694zM985 1538l100 -199q-4 -5 -12 -14t-35 -31.5t-56.5 -40.5t-75 -34t-91.5 -19q-45 -3 -95 10.5t-89 32t-91 34 t-98 15.5q-22 -1 -49.5 -15t-50 -33.5t-42.5 -38.5t-31 -33l-11 -13l-96 195q4 5 12 14t34.5 31.5t55.5 40.5t74.5 34t91.5 19t99 -10.5t93 -32t90 -34t91 -15.5q22 1 49 15.5t49.5 34.5t42 40t30.5 33z" />
<glyph unicode="&#xf2;" horiz-adv-x="1210" d="M72 563q0 125 29 225.5t77.5 167t115.5 111t140 63.5t154 19q80 0 152.5 -19.5t139.5 -64t115.5 -111t77.5 -167t29 -224.5q0 -126 -29 -226.5t-77.5 -166.5t-115.5 -110.5t-139.5 -63.5t-152.5 -19q-81 0 -153.5 18t-140 61.5t-116 109t-77.5 167.5t-29 230zM825 563 q0 189 -69.5 285t-167.5 96q-101 0 -170.5 -93t-69.5 -288q0 -99 20.5 -175.5t55 -120.5t76 -65.5t88.5 -21.5q36 0 69.5 12.5t64.5 41.5t53.5 72t36 109t13.5 148zM178 1548h275l268 -299h-203z" />
<glyph unicode="&#xf3;" horiz-adv-x="1210" d="M72 563q0 125 29 225.5t77.5 167t115.5 111t140 63.5t154 19q80 0 152.5 -19.5t139.5 -64t115.5 -111t77.5 -167t29 -224.5q0 -126 -29 -226.5t-77.5 -166.5t-115.5 -110.5t-139.5 -63.5t-152.5 -19q-81 0 -153.5 18t-140 61.5t-116 109t-77.5 167.5t-29 230zM825 563 q0 189 -69.5 285t-167.5 96q-101 0 -170.5 -93t-69.5 -288q0 -99 20.5 -175.5t55 -120.5t76 -65.5t88.5 -21.5q36 0 69.5 12.5t64.5 41.5t53.5 72t36 109t13.5 148zM721 1548h274l-340 -299h-202z" />
<glyph unicode="&#xf4;" horiz-adv-x="1210" d="M72 563q0 125 29 225.5t77.5 167t115.5 111t140 63.5t154 19q80 0 152.5 -19.5t139.5 -64t115.5 -111t77.5 -167t29 -224.5q0 -126 -29 -226.5t-77.5 -166.5t-115.5 -110.5t-139.5 -63.5t-152.5 -19q-81 0 -153.5 18t-140 61.5t-116 109t-77.5 167.5t-29 230zM825 563 q0 189 -69.5 285t-167.5 96q-101 0 -170.5 -93t-69.5 -288q0 -99 20.5 -175.5t55 -120.5t76 -65.5t88.5 -21.5q36 0 69.5 12.5t64.5 41.5t53.5 72t36 109t13.5 148zM502 1554h188l324 -299h-258l-160 158l-160 -158h-256z" />
<glyph unicode="&#xf5;" horiz-adv-x="1210" d="M72 563q0 125 29 225.5t77.5 167t115.5 111t140 63.5t154 19q80 0 152.5 -19.5t139.5 -64t115.5 -111t77.5 -167t29 -224.5q0 -126 -29 -226.5t-77.5 -166.5t-115.5 -110.5t-139.5 -63.5t-152.5 -19q-81 0 -153.5 18t-140 61.5t-116 109t-77.5 167.5t-29 230zM825 563 q0 189 -69.5 285t-167.5 96q-101 0 -170.5 -93t-69.5 -288q0 -99 20.5 -175.5t55 -120.5t76 -65.5t88.5 -21.5q36 0 69.5 12.5t64.5 41.5t53.5 72t36 109t13.5 148zM942 1538l100 -199q-4 -5 -12 -14t-35 -31.5t-56.5 -40.5t-75 -34t-91.5 -19q-45 -3 -95 10.5t-89 32 t-91 34t-98 15.5q-22 -1 -49.5 -15t-50 -33.5t-42.5 -38.5t-31 -33l-11 -13l-96 195q4 5 12 14t34.5 31.5t55.5 40.5t74.5 34t91.5 19t99 -10.5t93 -32t90 -34t91 -15.5q22 1 49 15.5t49.5 34.5t42 40t30.5 33z" />
<glyph unicode="&#xf6;" horiz-adv-x="1210" d="M72 563q0 125 29 225.5t77.5 167t115.5 111t140 63.5t154 19q80 0 152.5 -19.5t139.5 -64t115.5 -111t77.5 -167t29 -224.5q0 -126 -29 -226.5t-77.5 -166.5t-115.5 -110.5t-139.5 -63.5t-152.5 -19q-81 0 -153.5 18t-140 61.5t-116 109t-77.5 167.5t-29 230zM825 563 q0 189 -69.5 285t-167.5 96q-101 0 -170.5 -93t-69.5 -288q0 -99 20.5 -175.5t55 -120.5t76 -65.5t88.5 -21.5q36 0 69.5 12.5t64.5 41.5t53.5 72t36 109t13.5 148zM250 1403q0 61 37 99t104 38q64 0 100.5 -38.5t36.5 -98.5q0 -62 -36.5 -100.5t-100.5 -38.5 q-67 0 -104 38.5t-37 100.5zM643 1403q0 60 36.5 98.5t102.5 38.5q68 0 103 -38t35 -99q0 -63 -35 -101t-103 -38q-66 0 -102.5 38.5t-36.5 100.5z" />
<glyph unicode="&#xf8;" horiz-adv-x="1210" d="M72 563q0 125 29 225.5t77.5 167t115.5 111t140 63.5t154 19q65 0 151 -19l29 58h270l-92 -182q71 -77 113.5 -190.5t42.5 -252.5q0 -126 -29 -226.5t-77.5 -166.5t-115.5 -110.5t-139.5 -63.5t-152.5 -19q-73 0 -162 19l-29 -57h-270l90 180q-145 155 -145 444zM825 563 q0 112 -18 172l-281 -545q33 -10 62 -10q36 0 69.5 12.5t64.5 41.5t53.5 72t36 109t13.5 148zM348 563q0 -107 14 -162q54 106 152 292t127 241q-33 10 -53 10q-101 0 -170.5 -93t-69.5 -288z" />
<glyph unicode="&#xf9;" d="M377 340q-8 -140 85 -132q98 9 275 162q39 34 66 62v694h276v-1126h-276v162q-31 -56 -149.5 -120.5t-252.5 -64.5q-301 0 -301 363v786h277v-786zM190 1548h275l268 -299h-203z" />
<glyph unicode="&#xfa;" d="M377 340q-8 -140 85 -132q98 9 275 162q39 34 66 62v694h276v-1126h-276v162q-31 -56 -149.5 -120.5t-252.5 -64.5q-301 0 -301 363v786h277v-786zM743 1548h275l-340 -299h-203z" />
<glyph unicode="&#xfb;" d="M377 340q-8 -140 85 -132q98 9 275 162q39 34 66 62v694h276v-1126h-276v162q-31 -56 -149.5 -120.5t-252.5 -64.5q-301 0 -301 363v786h277v-786zM498 1554h188l324 -299h-258l-160 158l-160 -158h-256z" />
<glyph unicode="&#xfc;" d="M377 340q-8 -140 85 -132q98 9 275 162q39 34 66 62v694h276v-1126h-276v162q-31 -56 -149.5 -120.5t-252.5 -64.5q-301 0 -301 363v786h277v-786zM248 1403q0 61 37 99t104 38q64 0 100.5 -38.5t36.5 -98.5q0 -62 -36.5 -100.5t-100.5 -38.5q-67 0 -104 38.5t-37 100.5z M641 1403q0 60 36.5 98.5t102.5 38.5q68 0 103 -38t35 -99q0 -63 -35 -101t-103 -38q-66 0 -102.5 38.5t-36.5 100.5z" />
<glyph unicode="&#xfd;" horiz-adv-x="1060" d="M-18 1126h286l244 -626q234 567 301 626h315q-52 -51 -103 -142.5t-151.5 -321.5t-298.5 -713q-21 -52 -38 -90t-43 -87.5t-58 -92.5t-69 -78q-40 -39 -87.5 -66t-99 -39.5t-88 -17.5t-84.5 -8l-61 213q104 5 151.5 23.5t77.5 49.5q56 50 141 260q15 44 45 117zM666 1548 h274l-340 -299h-203z" />
<glyph unicode="&#xfe;" horiz-adv-x="1284" d="M403 -498h-272v2046h272v-508q141 112 334 109q130 -1 231 -81.5t153.5 -209t52.5 -278.5q0 -284 -133.5 -443.5t-366.5 -159.5q-120 0 -271 89v-564zM737 920q-185 2 -334 -218v-360q65 -61 139 -98t132 -37q102 0 162.5 99t60.5 274q0 137 -44.5 238t-115.5 102z" />
<glyph unicode="&#xff;" horiz-adv-x="1060" d="M-18 1126h286l244 -626q234 567 301 626h315q-52 -51 -103 -142.5t-151.5 -321.5t-298.5 -713q-21 -52 -38 -90t-43 -87.5t-58 -92.5t-69 -78q-40 -39 -87.5 -66t-99 -39.5t-88 -17.5t-84.5 -8l-61 213q104 5 151.5 23.5t77.5 49.5q56 50 141 260q15 44 45 117zM160 1305 q0 57 45 95t112 38q66 0 111 -38t45 -95q0 -58 -45 -97t-111 -39q-68 0 -112.5 39t-44.5 97zM545 1305q0 57 45.5 95t111.5 38q69 0 112.5 -38t43.5 -95q0 -59 -43.5 -97.5t-112.5 -38.5q-66 0 -111.5 39t-45.5 97z" />
<glyph unicode="&#x102;" horiz-adv-x="1460" d="M578 1577h272l582 -1577h-302l-190 512h-457l-184 -512h-303zM860 733l-147 393l-148 -393h295zM358 1948h217q6 -63 46.5 -104.5t95.5 -41.5q46 0 84 42t45 104h215q-17 -142 -107 -222.5t-237 -80.5q-320 0 -359 303z" />
<glyph unicode="&#x103;" horiz-adv-x="1161" d="M219 762q-33 53 -62 102.5t-42 73.5l-13 23q43 25 91 48.5t132 59.5t178 58t177 22q76 0 134.5 -25t91 -61.5t53 -85t26.5 -88t6 -78.5v-567q0 -5 0.5 -10t7 -20.5t18 -29t37 -32.5t60.5 -35l-168 -152q-136 54 -184 129q-150 -117 -336 -117q-15 0 -35.5 2t-56 10 t-69 20.5t-69.5 37.5t-62.5 58t-44 83.5t-17.5 112.5q0 50 9 92.5t37 90.5t73.5 84.5t125 67.5t185.5 46q177 23 215 33v96q0 15 -2 32t-8 37.5t-19.5 34t-32.5 13.5q-122 0 -436 -166zM424 184q72 -6 153 38.5t140 111.5v168q-23 -5 -117 -17l-65 -10q-191 -36 -191 -174 q0 -35 9.5 -60.5t25 -36.5t25.5 -15t20 -5zM236 1538h217q6 -63 46 -104t95 -41q46 0 84 41.5t45 103.5h215q-17 -142 -107 -222.5t-237 -80.5q-319 0 -358 303z" />
<glyph unicode="&#x104;" horiz-adv-x="1460" d="M578 1577h272l582 -1577h-302l-190 512h-457l-184 -512h-303zM860 733l-147 393l-148 -393h295zM1040 -98q0 36 21.5 78.5t53 77.5t62.5 65t53 47l21 16l148 -88q-6 -4 -15 -10.5t-32.5 -28t-41.5 -43t-33 -52t-15 -58.5q0 -14 7.5 -22.5t14.5 -8.5q31 0 100 86l152 -139 q-50 -57 -116 -92t-136 -35q-90 0 -167 55.5t-77 151.5z" />
<glyph unicode="&#x106;" horiz-adv-x="1325" d="M1245 1358l-190 -180q-5 8 -14 20.5t-40 45.5t-65 58t-86 45.5t-105 20.5q-57 0 -110.5 -24.5t-101 -75.5t-83 -123.5t-56.5 -175.5t-21 -224q0 -228 110 -384.5t265 -161.5q56 -2 112.5 17.5t96 44t79.5 60.5t55 53t31 36l185 -185q-53 -42 -60 -53q-33 -33 -53 -51 t-70 -52.5t-98.5 -53t-126.5 -32.5t-166 -12q-187 4 -336.5 104.5t-233 276t-83.5 393.5q0 164 36.5 305t100 242t148.5 172.5t182.5 106.5t200.5 35q99 0 186.5 -25.5t142 -62t94.5 -73t57 -61.5zM864 1980h275l-340 -299h-203z" />
<glyph unicode="&#x107;" horiz-adv-x="1050" d="M580 1149q71 0 136.5 -21.5t109 -52.5t77 -62.5t49.5 -52.5l15 -22l-181 -170q-4 7 -10.5 18t-28.5 39.5t-45 50.5t-58 40t-69 18q-89 0 -159 -103t-70 -286q0 -148 60.5 -250t158.5 -102q51 0 106.5 28t151.5 119l166 -158q-67 -69 -127 -113t-114.5 -62.5t-92.5 -24 t-90 -5.5q-146 0 -260 75t-174.5 203.5t-60.5 289.5q0 121 31 223.5t82 171.5t118 117t137.5 70t141.5 22zM692 1548h275l-340 -299h-203z" />
<glyph unicode="&#x108;" horiz-adv-x="1325" d="M1245 1358l-190 -180q-5 8 -14 20.5t-40 45.5t-65 58t-86 45.5t-105 20.5q-57 0 -110.5 -24.5t-101 -75.5t-83 -123.5t-56.5 -175.5t-21 -224q0 -228 110 -384.5t265 -161.5q56 -2 112.5 17.5t96 44t79.5 60.5t55 53t31 36l185 -185q-53 -42 -60 -53q-33 -33 -53 -51 t-70 -52.5t-98.5 -53t-126.5 -32.5t-166 -12q-187 4 -336.5 104.5t-233 276t-83.5 393.5q0 164 36.5 305t100 242t148.5 172.5t182.5 106.5t200.5 35q99 0 186.5 -25.5t142 -62t94.5 -73t57 -61.5zM649 1968h189l323 -299h-258l-160 158l-159 -158h-256z" />
<glyph unicode="&#x109;" horiz-adv-x="1050" d="M580 1149q71 0 136.5 -21.5t109 -52.5t77 -62.5t49.5 -52.5l15 -22l-181 -170q-4 7 -10.5 18t-28.5 39.5t-45 50.5t-58 40t-69 18q-89 0 -159 -103t-70 -286q0 -148 60.5 -250t158.5 -102q51 0 106.5 28t151.5 119l166 -158q-67 -69 -127 -113t-114.5 -62.5t-92.5 -24 t-90 -5.5q-146 0 -260 75t-174.5 203.5t-60.5 289.5q0 121 31 223.5t82 171.5t118 117t137.5 70t141.5 22zM473 1554h189l323 -299h-258l-160 158l-159 -158h-256z" />
<glyph unicode="&#x10c;" horiz-adv-x="1325" d="M1245 1358l-190 -180q-5 8 -14 20.5t-40 45.5t-65 58t-86 45.5t-105 20.5q-57 0 -110.5 -24.5t-101 -75.5t-83 -123.5t-56.5 -175.5t-21 -224q0 -228 110 -384.5t265 -161.5q56 -2 112.5 17.5t96 44t79.5 60.5t55 53t31 36l185 -185q-53 -42 -60 -53q-33 -33 -53 -51 t-70 -52.5t-98.5 -53t-126.5 -32.5t-166 -12q-187 4 -336.5 104.5t-233 276t-83.5 393.5q0 164 36.5 305t100 242t148.5 172.5t182.5 106.5t200.5 35q99 0 186.5 -25.5t142 -62t94.5 -73t57 -61.5zM838 1669h-189l-321 299h256l159 -158l160 158h258z" />
<glyph unicode="&#x10d;" horiz-adv-x="1050" d="M580 1149q71 0 136.5 -21.5t109 -52.5t77 -62.5t49.5 -52.5l15 -22l-181 -170q-4 7 -10.5 18t-28.5 39.5t-45 50.5t-58 40t-69 18q-89 0 -159 -103t-70 -286q0 -148 60.5 -250t158.5 -102q51 0 106.5 28t151.5 119l166 -158q-67 -69 -127 -113t-114.5 -62.5t-92.5 -24 t-90 -5.5q-146 0 -260 75t-174.5 203.5t-60.5 289.5q0 121 31 223.5t82 171.5t118 117t137.5 70t141.5 22zM655 1239h-188l-322 299h256l160 -158l160 158h258z" />
<glyph unicode="&#x10e;" horiz-adv-x="1468" d="M129 0v1546q146 18 198.5 24t127 11.5t137.5 5.5q78 0 145.5 -6.5t139 -22.5t130 -45t114.5 -71.5t98 -104.5t74 -141t48.5 -185t16.5 -233q0 -365 -185 -571.5t-487 -206.5h-557zM1067 778q0 109 -13 195t-46 161.5t-86 125t-135 78t-191 28.5q-82 0 -178 -14v-1129h268 q166 0 273.5 150.5t107.5 404.5zM745 1669h-188l-321 299h256l159 -158l160 158h258z" />
<glyph unicode="&#x114;" horiz-adv-x="1157" d="M1096 0h-969v1577h678q55 0 121 4.5t104 8.5l39 5v-239h-653v-428h555v-223h-555v-482h418q55 0 120.5 4.5t103.5 8.5l38 4v-240zM227 1948h217q6 -63 46.5 -104.5t95.5 -41.5q46 0 84 42t45 104h215q-17 -142 -107 -222.5t-237 -80.5q-320 0 -359 303z" />
<glyph unicode="&#x115;" horiz-adv-x="1191" d="M72 551q0 163 61.5 299t179 217.5t267.5 81.5q91 0 166.5 -24t124.5 -61t86 -88t56.5 -98t31.5 -97.5t15 -81t3 -54.5v-110h-719q0 -159 64 -253t180 -94q23 0 35.5 1t46.5 12t64 32t77 66t96 109l170 -160q-53 -65 -104.5 -114t-98.5 -77.5t-83.5 -46t-78 -24t-62 -8 t-53.5 -1.5h-3h-3h-3q-125 0 -225 46t-162.5 126t-95.5 182.5t-33 219.5zM580 938q-134 0 -201 -188h397q-21 80 -68 134t-128 54zM217 1538h217q6 -63 46 -104t95 -41q47 0 85 41.5t45 103.5h215q-17 -142 -107.5 -222.5t-237.5 -80.5q-319 0 -358 303z" />
<glyph unicode="&#x118;" horiz-adv-x="1157" d="M1096 0h-969v1577h678q55 0 121 4.5t104 8.5l39 5v-239h-653v-428h555v-223h-555v-482h418q55 0 120.5 4.5t103.5 8.5l38 4v-240zM600 -98q0 36 21.5 78.5t53 77.5t62.5 65t53 47l21 16l147 -88q-6 -4 -15 -10.5t-32.5 -28t-41.5 -43t-33 -52t-15 -58.5q0 -14 8 -22.5 t15 -8.5q31 0 100 86l152 -139q-50 -57 -116 -92t-136 -35q-90 0 -167 55.5t-77 151.5z" />
<glyph unicode="&#x119;" horiz-adv-x="1191" d="M72 551q0 163 61.5 299t179 217.5t267.5 81.5q91 0 166.5 -24t124.5 -61t86 -88t56.5 -98t31.5 -97.5t15 -81t3 -54.5v-110h-719q0 -159 64 -253t180 -94q23 0 35.5 1t46.5 12t64 32t77 66t96 109l170 -160q-53 -65 -104.5 -114t-98.5 -77.5t-83.5 -46t-78 -24t-62 -8 t-53.5 -1.5h-3h-3h-3q-125 0 -225 46t-162.5 126t-95.5 182.5t-33 219.5zM580 938q-134 0 -201 -188h397q-21 80 -68 134t-128 54zM461 -98q0 36 21.5 78.5t52.5 77.5t62.5 65t52.5 47l22 16l147 -88q-6 -4 -15 -10.5t-32.5 -28t-41.5 -43t-33 -52t-15 -58.5q0 -14 8 -22.5 t15 -8.5q31 0 100 86l151 -139q-50 -57 -115.5 -92t-135.5 -35q-90 0 -167 55.5t-77 151.5z" />
<glyph unicode="&#x11a;" horiz-adv-x="1157" d="M1096 0h-969v1577h678q55 0 121 4.5t104 8.5l39 5v-239h-653v-428h555v-223h-555v-482h418q55 0 120.5 4.5t103.5 8.5l38 4v-240zM694 1649h-188l-322 299h256l160 -158l160 158h258z" />
<glyph unicode="&#x11b;" horiz-adv-x="1191" d="M72 551q0 163 61.5 299t179 217.5t267.5 81.5q91 0 166.5 -24t124.5 -61t86 -88t56.5 -98t31.5 -97.5t15 -81t3 -54.5v-110h-719q0 -159 64 -253t180 -94q23 0 35.5 1t46.5 12t64 32t77 66t96 109l170 -160q-53 -65 -104.5 -114t-98.5 -77.5t-83.5 -46t-78 -24t-62 -8 t-53.5 -1.5h-3h-3h-3q-125 0 -225 46t-162.5 126t-95.5 182.5t-33 219.5zM580 938q-134 0 -201 -188h397q-21 80 -68 134t-128 54zM662 1239h-189l-321 299h256l159 -158l160 158h258z" />
<glyph unicode="&#x11c;" horiz-adv-x="1542" d="M1376 811v-487q0 -95 -79 -177t-200 -128t-249 -48q-129 0 -238 26.5t-187 71.5t-138.5 108.5t-98.5 132.5t-62.5 148t-34 151.5t-9.5 146.5q0 132 25.5 246.5t69 200t103.5 154.5t127.5 114.5t143 76.5t147 44.5t142.5 13.5q70 0 137 -15t118.5 -38.5t97.5 -52t78 -57.5 t55.5 -52.5t34.5 -38.5l11 -15l-190 -190q-6 10 -17.5 26t-47.5 56.5t-73 72t-91 57t-105 25.5q-59 0 -121.5 -21t-125.5 -69.5t-112.5 -119t-80.5 -179t-31 -239.5q0 -73 11.5 -143.5t43.5 -147.5t82 -133.5t134.5 -93.5t193.5 -37q48 0 107.5 19.5t104 53.5t44.5 68v244 h-133q-136 0 -222 45v211q121 -31 230 -31h405zM717 1964h188l324 -299h-258l-160 158l-160 -158h-256z" />
<glyph unicode="&#x11d;" horiz-adv-x="1265" d="M393 780q0 -207 199 -207q25 0 50 5t52.5 19t48.5 36t34.5 60t13.5 87q0 60 -35 102.5t-78 59t-86 16.5q-42 0 -85 -16.5t-78.5 -59t-35.5 -102.5zM145 270q0 88 119 195q-145 114 -145 315q0 76 32 140t83 106t115 71.5t125.5 42.5t117.5 13q50 0 108 -12 q133 108 310 108q57 0 176 -35l-39 -210q-92 30 -137 30q-20 0 -66 -8q53 -48 86 -111.5t33 -134.5q0 -96 -32.5 -170.5t-81.5 -117t-115 -70t-124 -36.5t-118 -9q-65 0 -96 4q-71 -60 -74 -100q7 6 49.5 10t81.5 2q6 0 22.5 -1t20.5 -1q95 -5 170 -14.5t159 -33.5 t140.5 -60.5t93.5 -98t37 -143.5q0 -77 -22.5 -145.5t-70 -127.5t-116.5 -102t-168 -67.5t-219 -24.5q-134 0 -253.5 50.5t-192 137.5t-72.5 186q1 117 32.5 176.5t108.5 116.5q-78 49 -78 129zM600 -313q157 0 239.5 72.5t82.5 181.5q0 38 -29.5 64.5t-83.5 40.5t-104 20 t-117 10q-45 0 -75 1t-38 1q-40 -25 -63 -47.5t-40.5 -69t-17.5 -113.5q0 -66 77 -113.5t169 -47.5zM449 1554h188l324 -299h-259l-159 158l-160 -158h-256z" />
<glyph unicode="&#x11e;" horiz-adv-x="1542" d="M1376 811v-487q0 -95 -79 -177t-200 -128t-249 -48q-129 0 -238 26.5t-187 71.5t-138.5 108.5t-98.5 132.5t-62.5 148t-34 151.5t-9.5 146.5q0 132 25.5 246.5t69 200t103.5 154.5t127.5 114.5t143 76.5t147 44.5t142.5 13.5q70 0 137 -15t118.5 -38.5t97.5 -52t78 -57.5 t55.5 -52.5t34.5 -38.5l11 -15l-190 -190q-6 10 -17.5 26t-47.5 56.5t-73 72t-91 57t-105 25.5q-59 0 -121.5 -21t-125.5 -69.5t-112.5 -119t-80.5 -179t-31 -239.5q0 -73 11.5 -143.5t43.5 -147.5t82 -133.5t134.5 -93.5t193.5 -37q48 0 107.5 19.5t104 53.5t44.5 68v244 h-133q-136 0 -222 45v211q121 -31 230 -31h405zM444 1968h218q6 -63 46 -104t95 -41q46 0 84 41.5t45 103.5h215q-17 -142 -107 -222.5t-237 -80.5q-320 0 -359 303z" />
<glyph unicode="&#x11f;" horiz-adv-x="1265" d="M393 780q0 -207 199 -207q25 0 50 5t52.5 19t48.5 36t34.5 60t13.5 87q0 60 -35 102.5t-78 59t-86 16.5q-42 0 -85 -16.5t-78.5 -59t-35.5 -102.5zM145 270q0 88 119 195q-145 114 -145 315q0 76 32 140t83 106t115 71.5t125.5 42.5t117.5 13q50 0 108 -12 q133 108 310 108q57 0 176 -35l-39 -210q-92 30 -137 30q-20 0 -66 -8q53 -48 86 -111.5t33 -134.5q0 -96 -32.5 -170.5t-81.5 -117t-115 -70t-124 -36.5t-118 -9q-65 0 -96 4q-71 -60 -74 -100q7 6 49.5 10t81.5 2q6 0 22.5 -1t20.5 -1q95 -5 170 -14.5t159 -33.5 t140.5 -60.5t93.5 -98t37 -143.5q0 -77 -22.5 -145.5t-70 -127.5t-116.5 -102t-168 -67.5t-219 -24.5q-134 0 -253.5 50.5t-192 137.5t-72.5 186q1 117 32.5 176.5t108.5 116.5q-78 49 -78 129zM600 -313q157 0 239.5 72.5t82.5 181.5q0 38 -29.5 64.5t-83.5 40.5t-104 20 t-117 10q-45 0 -75 1t-38 1q-40 -25 -63 -47.5t-40.5 -69t-17.5 -113.5q0 -66 77 -113.5t169 -47.5zM236 1538h217q6 -63 46 -104t95 -41q46 0 84 41.5t45 103.5h215q-17 -142 -107 -222.5t-237 -80.5q-319 0 -358 303z" />
<glyph unicode="&#x124;" horiz-adv-x="1525" d="M418 0h-289v1577h289v-651h655v651h289v-1577h-289v702h-655v-702zM668 1964h188l324 -299h-258l-160 158l-160 -158h-256z" />
<glyph unicode="&#x128;" horiz-adv-x="534" d="M408 0h-291v1577h291v-1577zM631 1991l100 -199q-4 -5 -12 -14t-35 -31.5t-56.5 -40.5t-75 -34t-91.5 -19q-45 -3 -95 10.5t-89 32t-91 34t-98 15.5q-22 -1 -49.5 -15t-50 -33.5t-42.5 -38.5t-31 -32l-11 -14l-97 194q4 5 12 14t35 32t56 41t74.5 34t91.5 19 q58 4 125 -19t132.5 -48.5t115.5 -25.5q36 2 81.5 36.5t73.5 68.5z" />
<glyph unicode="&#x129;" horiz-adv-x="524" d="M119 1126h272v-1126h-272v1126zM625 1538l100 -199q-4 -5 -12 -14t-35 -31.5t-56.5 -40.5t-75 -34t-91.5 -19q-45 -3 -95 10.5t-89 32t-91 34t-98 15.5q-22 -1 -49.5 -15t-50 -33.5t-42.5 -38.5t-31 -33l-11 -13l-97 195q4 5 12 14t35 31.5t56 40.5t74.5 34t91.5 19 t98.5 -10.5t92.5 -32t90 -34t91 -15.5q36 2 81.5 36t73.5 67z" />
<glyph unicode="&#x12c;" horiz-adv-x="534" d="M408 0h-291v1577h291v-1577zM-88 1968h217q6 -63 46 -104t95 -41q46 0 84 41.5t45 103.5h215q-17 -142 -107 -222.5t-237 -80.5q-319 0 -358 303z" />
<glyph unicode="&#x12d;" horiz-adv-x="524" d="M119 1126h272v-1126h-272v1126zM-106 1538h217q6 -63 46 -104t95 -41q46 0 84 41.5t45 103.5h215q-17 -142 -107 -222.5t-237 -80.5q-319 0 -358 303z" />
<glyph unicode="&#x12e;" horiz-adv-x="534" d="M408 0h-291v1577h291v-1577zM43 -98q0 36 21.5 78.5t52.5 77.5t62.5 65t52.5 47l22 16l147 -88q-6 -4 -15 -10.5t-32.5 -28t-41.5 -43t-33 -52t-15 -58.5q0 -14 8 -22.5t15 -8.5q31 0 100 86l152 -139q-50 -57 -116 -92t-136 -35q-90 0 -167 55.5t-77 151.5z" />
<glyph unicode="&#x12f;" horiz-adv-x="565" d="M137 1126h275v-1126h-275v1126zM119 1442q0 58 44.5 96.5t112.5 38.5q66 0 110 -38.5t44 -96.5t-44 -96.5t-110 -38.5q-68 0 -112.5 38.5t-44.5 96.5zM37 -98q0 36 21.5 78.5t52.5 77.5t62.5 65t52.5 47l22 16l147 -88q-6 -4 -15 -10.5t-32.5 -28t-41.5 -43t-33 -52 t-15 -58.5q0 -14 8 -22.5t15 -8.5q31 0 100 86l151 -139q-50 -57 -115.5 -92t-135.5 -35q-90 0 -167 55.5t-77 151.5z" />
<glyph unicode="&#x131;" horiz-adv-x="524" d="M119 1126h272v-1126h-272v1126z" />
<glyph unicode="&#x134;" horiz-adv-x="591" d="M254 1577h289v-1573q0 -96 -31 -177.5t-77 -136t-110 -99t-118 -69t-113 -42.5l-92 227q107 31 179.5 103.5t72.5 193.5v1573zM217 1964h189l323 -299h-258l-160 158l-159 -158h-256z" />
<glyph unicode="&#x135;" horiz-adv-x="460" d="M35 1126h272v-1171q0 -92 -33.5 -177.5t-87 -149t-115.5 -108.5t-124 -67l-74 236q60 8 111 88t51 178v1171zM82 1554h188l324 -299h-258l-160 158l-160 -158h-256z" />
<glyph unicode="&#x143;" horiz-adv-x="1488" d="M418 0h-289v1577l268 -2l641 -1040v1042h289v-1577l-268 2l-641 1042v-1044zM885 1939h274l-340 -299h-203z" />
<glyph unicode="&#x144;" d="M406 0h-277v1126h277v-143q223 166 403 166q299 0 299 -363v-786h-274v786q0 73 -24.5 105.5t-69 22.5t-87.5 -29.5t-100 -65t-84.5 -69t-62.5 -56.5v-694zM668 1548h274l-340 -299h-203z" />
<glyph unicode="&#x147;" horiz-adv-x="1488" d="M418 0h-289v1577l268 -2l641 -1040v1042h289v-1577l-268 2l-641 1042v-1044zM776 1649h-188l-322 299h256l160 -158l160 158h258z" />
<glyph unicode="&#x148;" d="M406 0h-277v1126h277v-143q223 166 403 166q299 0 299 -363v-786h-274v786q0 73 -24.5 105.5t-69 22.5t-87.5 -29.5t-100 -65t-84.5 -69t-62.5 -56.5v-694zM717 1239h-189l-321 299h256l160 -158l159 158h258z" />
<glyph unicode="&#x14e;" horiz-adv-x="1556" d="M766 1606q70 0 136 -11.5t134 -39.5t127 -70t110.5 -107.5t88.5 -148t58.5 -194.5t21.5 -244q0 -157 -26.5 -284.5t-75.5 -215.5t-112 -151.5t-141.5 -99.5t-158 -52.5t-168.5 -16.5q-100 0 -191 22.5t-182 80.5t-157 147.5t-107 234.5t-41 330t41 330.5t107.5 235.5 t157.5 149t183.5 82t194.5 23zM766 1386q-56 0 -109.5 -18t-106 -62t-92 -110t-63.5 -170.5t-24 -234.5q0 -132 24 -237t63 -171.5t91 -110.5t104 -61.5t107 -17.5q59 0 113 17.5t106 60.5t89.5 109t60.5 170t24 236q0 130 -23 234.5t-60.5 171.5t-88.5 111.5t-104.5 63.5 t-110.5 19zM399 1974h217q6 -63 46 -104t96 -41q46 0 84 41.5t45 103.5h215q-17 -142 -107 -222.5t-237 -80.5q-320 0 -359 303z" />
<glyph unicode="&#x14f;" horiz-adv-x="1210" d="M72 563q0 125 29 225.5t77.5 167t115.5 111t140 63.5t154 19q80 0 152.5 -19.5t139.5 -64t115.5 -111t77.5 -167t29 -224.5q0 -126 -29 -226.5t-77.5 -166.5t-115.5 -110.5t-139.5 -63.5t-152.5 -19q-81 0 -153.5 18t-140 61.5t-116 109t-77.5 167.5t-29 230zM825 563 q0 189 -69.5 285t-167.5 96q-101 0 -170.5 -93t-69.5 -288q0 -99 20.5 -175.5t55 -120.5t76 -65.5t88.5 -21.5q36 0 69.5 12.5t64.5 41.5t53.5 72t36 109t13.5 148zM227 1538h217q6 -63 46 -104t96 -41q46 0 84 41.5t45 103.5h215q-17 -142 -107 -222.5t-237 -80.5 q-320 0 -359 303z" />
<glyph unicode="&#x152;" horiz-adv-x="1970" d="M1880 0h-899q-145 -29 -215 -29q-83 0 -160 16.5t-155.5 52t-143 99t-115 150.5t-78.5 214.5t-28 282.5q0 185 41 330.5t107 235.5t158 149t184.5 82t195.5 23q110 0 209 -29h608q55 0 121 4.5t104 8.5l39 5v-239h-655v-428h557v-223h-557v-482h418q55 0 121 4.5t105 8.5 l38 4v-240zM909 225v1129q-60 32 -137 32q-56 0 -109.5 -18t-106.5 -62t-92.5 -110t-64 -170.5t-24.5 -234.5q0 -132 24.5 -237t63.5 -171.5t91.5 -110.5t104.5 -61.5t107 -17.5q68 0 143 32z" />
<glyph unicode="&#x153;" horiz-adv-x="1998" d="M84 563q0 125 29 225.5t77.5 167t115.5 111t140 63.5t154 19q113 0 213.5 -41t169.5 -125q68 74 163.5 120t201.5 46q91 0 166.5 -24t124.5 -61t86 -88t56.5 -98t31.5 -97.5t15 -81t3 -54.5v-110h-719q0 -159 64 -253t180 -94q23 0 35.5 1t46 12t63.5 32t76.5 66 t95.5 109l172 -160q-53 -65 -104.5 -114t-98.5 -77.5t-83.5 -46t-78 -24t-62 -8t-53.5 -1.5h-9q-240 0 -379 156q-133 -156 -377 -156q-81 0 -153.5 18t-140 61.5t-116 109t-77.5 167.5t-29 230zM840 575q-3 183 -73.5 276t-166.5 93q-46 0 -87 -20.5t-76.5 -63.5 t-56 -119.5t-20.5 -177.5q0 -192 70.5 -287.5t169.5 -95.5q95 0 164.5 88.5t75.5 272.5v34zM1348 938q-134 0 -201 -188h397q-21 80 -68 134t-128 54z" />
<glyph unicode="&#x154;" horiz-adv-x="1347" d="M418 0h-289v1577h289v-82q34 40 103 75.5t169 35.5q210 0 335.5 -124t137.5 -341q-1 -104 -25.5 -187t-69 -139.5t-97 -93t-117.5 -59.5q85 -88 203 -267q41 -62 69.5 -101t72 -94t93 -104t107.5 -96h-355q-46 35 -93 89.5t-68.5 85.5t-75.5 110q-42 62 -53 78.5 t-47.5 69t-54 72.5t-47 52.5t-52.5 48t-45 23.5h-90v-629zM649 850q32 0 61.5 7.5t61 27.5t54.5 51.5t37.5 84t15.5 120.5q0 108 -58.5 172.5t-156.5 64.5q-125 0 -246 -71v-457h231zM741 1960h275l-340 -299h-203z" />
<glyph unicode="&#x155;" horiz-adv-x="903" d="M127 1126h262v-110q19 40 85.5 86.5t137.5 46.5q55 0 108.5 -14.5t90 -35.5t65 -42.5t42.5 -36.5l14 -14l-184 -179q-8 11 -22 27t-49 43t-59 27q-58 0 -114 -67.5t-101 -162.5v-694h-276v1126zM500 1548h274l-340 -299h-203z" />
<glyph unicode="&#x158;" horiz-adv-x="1347" d="M418 0h-289v1577h289v-82q34 40 103 75.5t169 35.5q210 0 335.5 -124t137.5 -341q-1 -104 -25.5 -187t-69 -139.5t-97 -93t-117.5 -59.5q85 -88 203 -267q41 -62 69.5 -101t72 -94t93 -104t107.5 -96h-355q-46 35 -93 89.5t-68.5 85.5t-75.5 110q-42 62 -53 78.5 t-47.5 69t-54 72.5t-47 52.5t-52.5 48t-45 23.5h-90v-629zM649 850q32 0 61.5 7.5t61 27.5t54.5 51.5t37.5 84t15.5 120.5q0 108 -58.5 172.5t-156.5 64.5q-125 0 -246 -71v-457h231zM707 1669h-189l-321 299h256l159 -158l160 158h258z" />
<glyph unicode="&#x159;" horiz-adv-x="903" d="M127 1126h262v-110q19 40 85.5 86.5t137.5 46.5q55 0 108.5 -14.5t90 -35.5t65 -42.5t42.5 -36.5l14 -14l-184 -179q-8 11 -22 27t-49 43t-59 27q-58 0 -114 -67.5t-101 -162.5v-694h-276v1126zM530 1239h-188l-322 299h256l160 -158l160 158h258z" />
<glyph unicode="&#x15a;" horiz-adv-x="1275" d="M61 309l201 176q91 -145 183 -214t206 -70q109 0 181.5 62.5t72.5 178.5q0 30 -6 55.5t-20 46.5t-27.5 37t-39.5 31.5t-44 25.5t-52.5 22.5t-54.5 19t-59 18.5q-63 19 -106.5 34t-97.5 38.5t-90.5 47t-74.5 58t-60 73.5t-35.5 91t-12.5 113q2 111 39.5 196t90.5 132 t123 77t126.5 39t111.5 9q157 0 273 -56t213 -170l-189 -161q-77 78 -145.5 117.5t-151.5 39.5q-24 0 -47 -4.5t-52 -19t-51 -38t-38 -65.5t-18 -98q-2 -37 13 -67.5t38.5 -51.5t63 -40.5t74 -31.5t85.5 -26q62 -20 106.5 -35.5t101.5 -41t96 -51.5t80 -63.5t66 -80 t40.5 -99t15.5 -121.5q0 -93 -29.5 -170.5t-80.5 -132.5t-120 -93.5t-148.5 -56.5t-166.5 -18q-196 6 -336 86.5t-248 251.5zM741 1960h275l-340 -299h-203z" />
<glyph unicode="&#x15b;" horiz-adv-x="1038" d="M379 813q0 -23 13 -41.5t39 -32.5t51.5 -23.5t61.5 -21.5q9 -3 13 -4q42 -13 63.5 -19.5t61 -21t61 -25t54 -28.5t51 -35.5t40.5 -43t33 -53t19 -63t8 -75.5q0 -69 -24 -127.5t-65.5 -98.5t-96.5 -68.5t-116.5 -41.5t-127.5 -13q-136 0 -265.5 67t-209.5 192l195 155 q51 -95 129 -150t155 -57q63 0 107.5 37t44.5 105q0 25 -12.5 46t-29 35t-47.5 28t-51.5 21.5t-56.5 18.5q-62 18 -107 34.5t-98.5 45.5t-87.5 62.5t-57 84t-23 111.5q0 69 20.5 124.5t55.5 90.5t76 60t87.5 37.5t83.5 18t71 5.5q116 0 219.5 -43t179.5 -117l-174 -166 q-50 56 -110 87.5t-115 31.5q-18 0 -35.5 -5t-38 -17.5t-33 -40t-12.5 -66.5zM616 1548h275l-340 -299h-203z" />
<glyph unicode="&#x15c;" horiz-adv-x="1275" d="M61 309l201 176q91 -145 183 -214t206 -70q109 0 181.5 62.5t72.5 178.5q0 30 -6 55.5t-20 46.5t-27.5 37t-39.5 31.5t-44 25.5t-52.5 22.5t-54.5 19t-59 18.5q-63 19 -106.5 34t-97.5 38.5t-90.5 47t-74.5 58t-60 73.5t-35.5 91t-12.5 113q2 111 39.5 196t90.5 132 t123 77t126.5 39t111.5 9q157 0 273 -56t213 -170l-189 -161q-77 78 -145.5 117.5t-151.5 39.5q-24 0 -47 -4.5t-52 -19t-51 -38t-38 -65.5t-18 -98q-2 -37 13 -67.5t38.5 -51.5t63 -40.5t74 -31.5t85.5 -26q62 -20 106.5 -35.5t101.5 -41t96 -51.5t80 -63.5t66 -80 t40.5 -99t15.5 -121.5q0 -93 -29.5 -170.5t-80.5 -132.5t-120 -93.5t-148.5 -56.5t-166.5 -18q-196 6 -336 86.5t-248 251.5zM539 1972h188l324 -299h-258l-160 158l-160 -158h-256z" />
<glyph unicode="&#x15d;" horiz-adv-x="1038" d="M379 813q0 -23 13 -41.5t39 -32.5t51.5 -23.5t61.5 -21.5q9 -3 13 -4q42 -13 63.5 -19.5t61 -21t61 -25t54 -28.5t51 -35.5t40.5 -43t33 -53t19 -63t8 -75.5q0 -69 -24 -127.5t-65.5 -98.5t-96.5 -68.5t-116.5 -41.5t-127.5 -13q-136 0 -265.5 67t-209.5 192l195 155 q51 -95 129 -150t155 -57q63 0 107.5 37t44.5 105q0 25 -12.5 46t-29 35t-47.5 28t-51.5 21.5t-56.5 18.5q-62 18 -107 34.5t-98.5 45.5t-87.5 62.5t-57 84t-23 111.5q0 69 20.5 124.5t55.5 90.5t76 60t87.5 37.5t83.5 18t71 5.5q116 0 219.5 -43t179.5 -117l-174 -166 q-50 56 -110 87.5t-115 31.5q-18 0 -35.5 -5t-38 -17.5t-33 -40t-12.5 -66.5zM395 1554h189l323 -299h-258l-160 158l-159 -158h-256z" />
<glyph unicode="&#x160;" horiz-adv-x="1275" d="M61 309l201 176q91 -145 183 -214t206 -70q109 0 181.5 62.5t72.5 178.5q0 30 -6 55.5t-20 46.5t-27.5 37t-39.5 31.5t-44 25.5t-52.5 22.5t-54.5 19t-59 18.5q-63 19 -106.5 34t-97.5 38.5t-90.5 47t-74.5 58t-60 73.5t-35.5 91t-12.5 113q2 111 39.5 196t90.5 132 t123 77t126.5 39t111.5 9q157 0 273 -56t213 -170l-189 -161q-77 78 -145.5 117.5t-151.5 39.5q-24 0 -47 -4.5t-52 -19t-51 -38t-38 -65.5t-18 -98q-2 -37 13 -67.5t38.5 -51.5t63 -40.5t74 -31.5t85.5 -26q62 -20 106.5 -35.5t101.5 -41t96 -51.5t80 -63.5t66 -80 t40.5 -99t15.5 -121.5q0 -93 -29.5 -170.5t-80.5 -132.5t-120 -93.5t-148.5 -56.5t-166.5 -18q-196 6 -336 86.5t-248 251.5zM698 1669h-188l-322 299h256l160 -158l160 158h258z" />
<glyph unicode="&#x161;" horiz-adv-x="1038" d="M379 813q0 -23 13 -41.5t39 -32.5t51.5 -23.5t61.5 -21.5q9 -3 13 -4q42 -13 63.5 -19.5t61 -21t61 -25t54 -28.5t51 -35.5t40.5 -43t33 -53t19 -63t8 -75.5q0 -69 -24 -127.5t-65.5 -98.5t-96.5 -68.5t-116.5 -41.5t-127.5 -13q-136 0 -265.5 67t-209.5 192l195 155 q51 -95 129 -150t155 -57q63 0 107.5 37t44.5 105q0 25 -12.5 46t-29 35t-47.5 28t-51.5 21.5t-56.5 18.5q-62 18 -107 34.5t-98.5 45.5t-87.5 62.5t-57 84t-23 111.5q0 69 20.5 124.5t55.5 90.5t76 60t87.5 37.5t83.5 18t71 5.5q116 0 219.5 -43t179.5 -117l-174 -166 q-50 56 -110 87.5t-115 31.5q-18 0 -35.5 -5t-38 -17.5t-33 -40t-12.5 -66.5zM588 1239h-189l-321 299h256l160 -158l159 158h258z" />
<glyph unicode="&#x164;" horiz-adv-x="1148" d="M-25 1354v223h1174v-223h-447v-1354h-288v1354h-439zM662 1669h-189l-321 299h256l159 -158l160 158h258z" />
<glyph unicode="&#x168;" horiz-adv-x="1409" d="M1249 504q0 -98 -22 -178t-57 -133.5t-84.5 -94t-98.5 -63t-106.5 -36.5t-101 -18t-89.5 -4t-90 4.5t-102 18.5t-107.5 36.5t-99 63.5t-84.5 94.5t-57.5 133t-22.5 176.5v1073h291v-1069q0 -77 20 -135t49 -90t68 -51.5t70.5 -25t64.5 -5.5q31 0 63 6t70.5 26t67.5 51.5 t49 88.5t21 131v1073h288v-1073zM1024 2040l100 -199q-4 -5 -12 -14t-35 -31.5t-56.5 -40.5t-75 -34t-91.5 -19q-45 -3 -95 10.5t-89 32t-91 34t-98 15.5q-22 -1 -49.5 -15t-50 -33.5t-42.5 -38.5t-31 -33l-11 -13l-96 194q4 5 12 14t34.5 32t55.5 41t74.5 34t91.5 19 t99 -10.5t93 -32t90 -34t91 -15.5q22 1 49 15.5t49.5 34.5t42 40t30.5 33z" />
<glyph unicode="&#x169;" d="M377 340q-8 -140 85 -132q98 9 275 162q39 34 66 62v694h276v-1126h-276v162q-31 -56 -149.5 -120.5t-252.5 -64.5q-301 0 -301 363v786h277v-786zM961 1538l100 -199q-4 -5 -12 -14t-35 -31.5t-56.5 -40.5t-75 -34t-91.5 -19q-45 -3 -95 10.5t-89 32t-91 34t-98 15.5 q-36 -2 -82 -35t-74 -65l-29 -33l-96 195q4 5 12 14t35 31.5t56 40.5t74.5 34t91.5 19t98.5 -10.5t92.5 -32t90 -34t91 -15.5q36 2 81.5 36t73.5 67z" />
<glyph unicode="&#x16c;" horiz-adv-x="1409" d="M1249 504q0 -98 -22 -178t-57 -133.5t-84.5 -94t-98.5 -63t-106.5 -36.5t-101 -18t-89.5 -4t-90 4.5t-102 18.5t-107.5 36.5t-99 63.5t-84.5 94.5t-57.5 133t-22.5 176.5v1073h291v-1069q0 -77 20 -135t49 -90t68 -51.5t70.5 -25t64.5 -5.5q31 0 63 6t70.5 26t67.5 51.5 t49 88.5t21 131v1073h288v-1073zM334 1954h217q6 -63 46 -104.5t95 -41.5q46 0 84 42t45 104h215q-17 -142 -107 -222.5t-237 -80.5q-319 0 -358 303z" />
<glyph unicode="&#x16d;" d="M377 340q-8 -140 85 -132q98 9 275 162q39 34 66 62v694h276v-1126h-276v162q-31 -56 -149.5 -120.5t-252.5 -64.5q-301 0 -301 363v786h277v-786zM221 1538h217q6 -63 46 -104t96 -41q46 0 84 41.5t45 103.5h215q-17 -142 -107 -222.5t-237 -80.5q-320 0 -359 303z" />
<glyph unicode="&#x16e;" horiz-adv-x="1409" d="M1249 504q0 -98 -22 -178t-57 -133.5t-84.5 -94t-98.5 -63t-106.5 -36.5t-101 -18t-89.5 -4t-90 4.5t-102 18.5t-107.5 36.5t-99 63.5t-84.5 94.5t-57.5 133t-22.5 176.5v1073h291v-1069q0 -77 20 -135t49 -90t68 -51.5t70.5 -25t64.5 -5.5q31 0 63 6t70.5 26t67.5 51.5 t49 88.5t21 131v1073h288v-1073zM655 1874q0 -24 10.5 -40.5t24.5 -16.5q12 0 21.5 16.5t9.5 40.5q0 19 -9.5 34t-21.5 15q-13 0 -24 -15t-11 -34zM467 1874q0 82 64 140.5t155 58.5t155 -58.5t64 -140.5t-64 -140.5t-155 -58.5t-155 58.5t-64 140.5z" />
<glyph unicode="&#x16f;" d="M377 340q-8 -140 85 -132q98 9 275 162q39 34 66 62v694h276v-1126h-276v162q-31 -56 -149.5 -120.5t-252.5 -64.5q-301 0 -301 363v786h277v-786zM547 1417q0 -24 10.5 -40.5t24.5 -16.5q12 0 21 16.5t9 40.5q0 19 -9 34t-21 15q-13 0 -24 -15t-11 -34zM358 1417 q0 82 64.5 140.5t155.5 58.5t155 -58.5t64 -140.5t-64 -140t-155 -58t-155.5 58t-64.5 140z" />
<glyph unicode="&#x173;" d="M377 340q-8 -140 85 -132q98 9 275 162q39 34 66 62v694h276v-1126h-276v162q-31 -56 -149.5 -120.5t-252.5 -64.5q-301 0 -301 363v786h277v-786zM721 -98q0 36 21.5 78.5t52.5 77.5t62.5 65t52.5 47l22 16l147 -88q-6 -4 -15 -10.5t-32.5 -28t-41.5 -43t-33 -52 t-15 -58.5q0 -14 8 -22.5t15 -8.5q31 0 100 86l152 -139q-50 -57 -116 -92t-136 -35q-90 0 -167 55.5t-77 151.5z" />
<glyph unicode="&#x174;" horiz-adv-x="2009" d="M694 0h-239l-447 1577h295l270 -1018l269 1018h278l269 -1022l270 1022h297l-447 -1577h-239l-289 1008zM907 1944h189l323 -299h-258l-160 157l-159 -157h-256z" />
<glyph unicode="&#x175;" horiz-adv-x="1601" d="M584 0h-246l-326 1126h291l168 -632l180 632h234l180 -637q67 250 130 433t101 204h279q-44 -44 -140.5 -325.5t-171.5 -540.5l-75 -260h-232l-186 645zM670 1554h188l324 -299h-258l-160 158l-160 -158h-256z" />
<glyph unicode="&#x176;" horiz-adv-x="1269" d="M973 1577h315l-522 -823v-754h-287v754l-526 823h323l349 -543zM537 1960h188l324 -299h-258l-160 158l-160 -158h-256z" />
<glyph unicode="&#x177;" horiz-adv-x="1060" d="M-18 1126h286l244 -626q234 567 301 626h315q-52 -51 -103 -142.5t-151.5 -321.5t-298.5 -713q-21 -52 -38 -90t-43 -87.5t-58 -92.5t-69 -78q-40 -39 -87.5 -66t-99 -39.5t-88 -17.5t-84.5 -8l-61 213q104 5 151.5 23.5t77.5 49.5q56 50 141 260q15 44 45 117zM422 1554 h188l324 -299h-258l-160 158l-160 -158h-256z" />
<glyph unicode="&#x178;" horiz-adv-x="1269" d="M973 1577h315l-522 -823v-754h-287v754l-526 823h323l349 -543zM301 1802q0 61 37 99t104 38q64 0 101 -38.5t37 -98.5q0 -62 -37 -100.5t-101 -38.5q-67 0 -104 38.5t-37 100.5zM694 1802q0 60 37 98.5t103 38.5q68 0 102.5 -37.5t34.5 -99.5q0 -63 -34.5 -101 t-102.5 -38q-66 0 -103 38.5t-37 100.5z" />
<glyph unicode="&#x179;" horiz-adv-x="1261" d="M1176 293v-242q-42 -23 -114 -35.5t-124 -13.5l-51 -2h-830v201l727 1142h-706v234h1057v-197l-723 -1147h479q14 0 39 2t99.5 17t146.5 41zM721 1960h274l-340 -299h-202z" />
<glyph unicode="&#x17a;" horiz-adv-x="1067" d="M995 268v-213q-22 -24 -71 -38t-87 -15l-38 -2h-740v178l564 742h-564v206h904v-176l-564 -741h402q13 0 35 1.5t73.5 16.5t85.5 41zM659 1548h275l-340 -299h-203z" />
<glyph unicode="&#x17d;" horiz-adv-x="1261" d="M1176 293v-242q-42 -23 -114 -35.5t-124 -13.5l-51 -2h-830v201l727 1142h-706v234h1057v-197l-723 -1147h479q14 0 39 2t99.5 17t146.5 41zM745 1665h-188l-321 299h256l159 -158l160 158h258z" />
<glyph unicode="&#x17e;" horiz-adv-x="1067" d="M995 268v-213q-22 -24 -71 -38t-87 -15l-38 -2h-740v178l564 742h-564v206h904v-176l-564 -741h402q13 0 35 1.5t73.5 16.5t85.5 41zM627 1239h-189l-321 299h256l159 -158l160 158h258z" />
<glyph unicode="&#x1fc;" horiz-adv-x="2013" d="M1921 0h-971v512h-358q-31 -56 -134 -237.5t-153 -274.5h-309l870 1577h764q55 0 120.5 4.5t103.5 8.5l38 5v-239h-653v-428h557v-223h-557v-482h418q55 0 121 4.5t104 8.5l39 4v-240zM950 1155l-237 -422h237v422zM1202 1964h275l-340 -299h-203z" />
<glyph unicode="&#x1fd;" horiz-adv-x="1845" d="M664 1149q160 0 241 -102q127 102 297 102q91 0 166.5 -24t124.5 -61t86.5 -88t57 -98t31.5 -97.5t15 -81.5t3 -54v-110h-719q0 -159 63 -253t180 -94q22 0 34.5 1t46.5 12t64.5 32t77 66t95.5 109l170 -160q-46 -58 -94 -103.5t-84.5 -73.5t-81 -47.5t-68.5 -28.5 t-64.5 -13.5t-51 -4.5h-44.5q-240 0 -383 160q-174 -160 -391 -160q-15 0 -35.5 2t-56 10t-69 20.5t-69.5 37.5t-62.5 58t-44 83.5t-17.5 112.5q0 50 9 92.5t37 90.5t73.5 84.5t124.5 67.5t184 46q157 20 192 29v100q0 23 -3 45.5t-18 47t-40 24.5q-56 0 -145 -31.5 t-142 -58t-96 -50.5l-65 -32q-31 60 -41 80q-13 25 -19 38.5t-14.5 36.5t-7 38.5t11.5 25.5q306 174 541 174zM434 184q72 -6 152.5 38t138.5 110q-20 67 -23 166l-159 -23h2q-60 -10 -99.5 -28t-58.5 -43t-26 -48.5t-7 -54.5q0 -35 9.5 -60.5t25 -36.5t25.5 -15t20 -5z M1202 938q-137 0 -201 -188h396q-21 80 -67.5 134t-127.5 54zM989 1548h275l-340 -299h-203z" />
<glyph unicode="&#x237;" horiz-adv-x="460" d="M35 1126h272v-1171q0 -92 -33.5 -177.5t-87 -149t-115.5 -108.5t-124 -67l-74 236q60 8 111 88t51 178v1171z" />
<glyph unicode="&#x2c6;" horiz-adv-x="1026" d="M408 1554h188l324 -299h-258l-160 158l-160 -158h-256z" />
<glyph unicode="&#x2c7;" horiz-adv-x="1026" d="M596 1239h-188l-322 299h256l160 -158l160 158h258z" />
<glyph unicode="&#x2d8;" horiz-adv-x="897" d="M109 1538h217q6 -63 46 -104t95 -41q46 0 84 41.5t45 103.5h215q-17 -142 -107 -222.5t-237 -80.5q-319 0 -358 303z" />
<glyph unicode="&#x2d9;" horiz-adv-x="401" d="M39 1440q0 59 45.5 98t114.5 39q67 0 112 -39t45 -98q0 -60 -44.5 -98.5t-112.5 -38.5q-69 0 -114.5 38.5t-45.5 98.5z" />
<glyph unicode="&#x2da;" horiz-adv-x="657" d="M295 1417q0 -24 10.5 -40.5t24.5 -16.5q12 0 21 16.5t9 40.5q0 19 -9 34t-21 15q-13 0 -24 -15t-11 -34zM106 1417q0 82 64.5 140.5t155.5 58.5t155 -58.5t64 -140.5t-64 -140t-155 -58t-155.5 58t-64.5 140z" />
<glyph unicode="&#x2db;" horiz-adv-x="661" d="M80 -98q0 36 21.5 78.5t52.5 77.5t62.5 65t53.5 47l21 16l147 -88q-6 -4 -15 -10.5t-32.5 -28t-41.5 -43t-33 -52t-15 -58.5q0 -14 8 -22.5t15 -8.5q31 0 100 86l151 -139q-50 -57 -115.5 -92t-135.5 -35q-90 0 -167 55.5t-77 151.5z" />
<glyph unicode="&#x2dc;" horiz-adv-x="1110" d="M905 1538l101 -199q-4 -5 -12 -14t-35.5 -31.5t-56.5 -40.5t-75 -34t-92 -19q-45 -3 -95 10.5t-89 32t-91 34t-98 15.5q-22 -1 -49.5 -15t-50 -33.5t-42.5 -38.5t-31 -33l-11 -13l-96 195q4 5 12 14t34.5 31.5t55.5 40.5t74.5 34t91.5 19t99 -10.5t93 -32t90 -34 t91 -15.5q22 1 49 15.5t49.5 34.5t42 40t30.5 33z" />
<glyph unicode="&#x2dd;" horiz-adv-x="1015" d="M356 1550h349l-410 -360h-262zM625 1550h350l-410 -360h-262z" />
<glyph unicode="&#x1e80;" horiz-adv-x="2009" d="M694 0h-239l-447 1577h295l270 -1018l269 1018h278l269 -1022l270 1022h297l-447 -1577h-239l-289 1008zM530 1964h275l268 -299h-203z" />
<glyph unicode="&#x1e81;" horiz-adv-x="1601" d="M584 0h-246l-326 1126h291l168 -632l180 632h234l180 -637q67 250 130 433t101 204h279q-44 -44 -140.5 -325.5t-171.5 -540.5l-75 -260h-232l-186 645zM342 1548h274l269 -299h-203z" />
<glyph unicode="&#x1e82;" horiz-adv-x="2009" d="M694 0h-239l-447 1577h295l270 -1018l269 1018h278l269 -1022l270 1022h297l-447 -1577h-239l-289 1008zM1141 1960h274l-340 -299h-203z" />
<glyph unicode="&#x1e83;" horiz-adv-x="1601" d="M584 0h-246l-326 1126h291l168 -632l180 632h234l180 -637q67 250 130 433t101 204h279q-44 -44 -140.5 -325.5t-171.5 -540.5l-75 -260h-232l-186 645zM909 1548h275l-340 -299h-203z" />
<glyph unicode="&#x1e84;" horiz-adv-x="2009" d="M694 0h-239l-447 1577h295l270 -1018l269 1018h278l269 -1022l270 1022h297l-447 -1577h-239l-289 1008zM670 1790q0 61 37 99t104 38q64 0 100.5 -38.5t36.5 -98.5q0 -62 -36.5 -100.5t-100.5 -38.5q-67 0 -104 38.5t-37 100.5zM1063 1790q0 60 36.5 98.5t102.5 38.5 q68 0 102.5 -37.5t34.5 -99.5q0 -63 -34.5 -101t-102.5 -38q-66 0 -102.5 38.5t-36.5 100.5z" />
<glyph unicode="&#x1e85;" horiz-adv-x="1601" d="M584 0h-246l-326 1126h291l168 -632l180 632h234l180 -637q67 250 130 433t101 204h279q-44 -44 -140.5 -325.5t-171.5 -540.5l-75 -260h-232l-186 645zM434 1403q0 61 37 99t104 38q64 0 101 -38.5t37 -98.5q0 -62 -37 -100.5t-101 -38.5q-67 0 -104 38.5t-37 100.5z M827 1403q0 60 37 98.5t103 38.5q68 0 102.5 -37.5t34.5 -99.5q0 -63 -34.5 -101t-102.5 -38q-66 0 -103 38.5t-37 100.5z" />
<glyph unicode="&#x1ef2;" horiz-adv-x="1269" d="M973 1577h315l-522 -823v-754h-287v754l-526 823h323l349 -543zM193 1964h274l268 -299h-203z" />
<glyph unicode="&#x1ef3;" horiz-adv-x="1060" d="M-18 1126h286l244 -626q234 567 301 626h315q-52 -51 -103 -142.5t-151.5 -321.5t-298.5 -713q-21 -52 -38 -90t-43 -87.5t-58 -92.5t-69 -78q-40 -39 -87.5 -66t-99 -39.5t-88 -17.5t-84.5 -8l-61 213q104 5 151.5 23.5t77.5 49.5q56 50 141 260q15 44 45 117zM119 1548 h274l269 -299h-203z" />
<glyph unicode="&#x2000;" horiz-adv-x="1036" />
<glyph unicode="&#x2001;" horiz-adv-x="2073" />
<glyph unicode="&#x2002;" horiz-adv-x="1036" />
<glyph unicode="&#x2003;" horiz-adv-x="2073" />
<glyph unicode="&#x2004;" horiz-adv-x="691" />
<glyph unicode="&#x2005;" horiz-adv-x="518" />
<glyph unicode="&#x2006;" horiz-adv-x="345" />
<glyph unicode="&#x2007;" horiz-adv-x="345" />
<glyph unicode="&#x2008;" horiz-adv-x="259" />
<glyph unicode="&#x2009;" horiz-adv-x="414" />
<glyph unicode="&#x200a;" horiz-adv-x="115" />
<glyph unicode="&#x2010;" horiz-adv-x="714" d="M639 680v-211h-578v211h578z" />
<glyph unicode="&#x2011;" horiz-adv-x="714" d="M639 680v-211h-578v211h578z" />
<glyph unicode="&#x2012;" horiz-adv-x="714" d="M639 680v-211h-578v211h578z" />
<glyph unicode="&#x2013;" horiz-adv-x="1359" d="M1262 676v-201h-1192v201h1192z" />
<glyph unicode="&#x2014;" horiz-adv-x="1626" d="M1518 676v-201h-1446v201h1446z" />
<glyph unicode="&#x2018;" horiz-adv-x="430" d="M383 1192q0 -62 -47.5 -102.5t-118.5 -40.5q-90 0 -134 54t-44 142q3 158 176 369l158 -96q-76 -96 -101 -189q111 -31 111 -137z" />
<glyph unicode="&#x2019;" horiz-adv-x="430" d="M39 1432q0 63 48 103t120 40q89 0 132.5 -54t43.5 -143q-3 -153 -174 -368l-160 96q76 93 101 188q-53 13 -82 49.5t-29 88.5z" />
<glyph unicode="&#x201c;" horiz-adv-x="780" d="M346 1192q0 -62 -47.5 -102.5t-118.5 -40.5q-90 0 -134 54t-44 142q3 158 176 369l158 -96q-74 -94 -100 -189q110 -31 110 -137zM762 1192q0 -63 -48 -103t-120 -40q-89 0 -132.5 53.5t-43.5 142.5q3 158 176 369l158 -96q-76 -96 -101 -189q111 -31 111 -137z" />
<glyph unicode="&#x201d;" horiz-adv-x="780" d="M418 1432q0 63 48 103t120 40q89 0 132.5 -54t43.5 -143q-3 -153 -174 -368l-160 96q74 91 100 188q-53 13 -81.5 49.5t-28.5 88.5zM2 1432q0 63 48 103t120 40q89 0 132.5 -54t43.5 -143q-3 -153 -174 -368l-160 96q76 93 101 188q-53 13 -82 49.5t-29 88.5z" />
<glyph unicode="&#x2022;" horiz-adv-x="702" d="M61 502q0 110 82 184t205 74q120 0 199.5 -74t79.5 -184q0 -114 -79.5 -190t-199.5 -76q-123 0 -205 76t-82 190z" />
<glyph unicode="&#x2026;" horiz-adv-x="1267" d="M49 145q0 67 51.5 112.5t128.5 45.5q76 0 127.5 -45t51.5 -113t-51.5 -113.5t-127.5 -45.5t-128 45.5t-52 113.5zM440 145q0 67 52.5 112.5t130.5 45.5q75 0 125.5 -45.5t50.5 -112.5q0 -68 -50.5 -113.5t-125.5 -45.5q-78 0 -130.5 45.5t-52.5 113.5zM834 145 q0 67 51.5 112.5t128.5 45.5q76 0 127 -45t51 -113t-51 -113.5t-127 -45.5t-128 45.5t-52 113.5z" />
<glyph unicode="&#x202f;" horiz-adv-x="414" />
<glyph unicode="&#x205f;" horiz-adv-x="518" />
<glyph unicode="&#x2122;" horiz-adv-x="1802" d="M1085 764h-251v774h233l213 -465l207 465h233v-774h-256v192l-78 -192h-219l-82 199v-199zM74 1352v186h735v-186h-240v-588h-256v588h-239z" />
<glyph unicode="&#x2212;" horiz-adv-x="1357" d="M1260 678v-205h-1190v205h1190z" />
<glyph unicode="&#x25fc;" horiz-adv-x="1126" d="M0 1126h1126v-1126h-1126v1126z" />
<glyph unicode="&#xf6c9;" horiz-adv-x="712" d="M322 1905h268l-309 -258h-179z" />
<glyph unicode="&#xf6cb;" horiz-adv-x="894" d="M102 1761q0 60 37.5 98.5t104.5 38.5q64 0 100.5 -38.5t36.5 -98.5q0 -62 -36.5 -100.5t-100.5 -38.5q-67 0 -104.5 38.5t-37.5 100.5zM496 1761q0 60 36.5 98.5t102.5 38.5q68 0 102.5 -37.5t34.5 -99.5q0 -63 -34.5 -101t-102.5 -38q-66 0 -102.5 38.5t-36.5 100.5z " />
<glyph horiz-adv-x="1396" d="M84 756q0 173 33 309t88 223.5t133 145t162 81t180 23.5q97 0 180.5 -24t160.5 -81t131 -144.5t86 -223.5t32 -309q0 -174 -32 -310t-86 -224t-131 -145.5t-160.5 -81.5t-180.5 -24q-80 0 -151.5 17t-139.5 53.5t-122.5 99t-96 147t-64 204t-22.5 264.5zM987 756 q0 287 -83.5 425t-223.5 138q-139 0 -226 -139t-87 -424q0 -145 25.5 -255t70 -174.5t99 -96t118.5 -31.5q134 0 220.5 137t86.5 420z" />
<glyph horiz-adv-x="753" d="M612 0h-284v1182l-119 -101l-166 189l317 239h252v-1509z" />
<glyph horiz-adv-x="1107" d="M293 1149l-90 -8q-121 119 -121 135q26 45 61.5 85.5t88.5 82.5t128.5 67.5t161.5 26.5q127 0 227.5 -45.5t160 -135.5t59.5 -212q0 -242 -537 -926h572v-219h-945v166q26 29 68.5 79t152 187t193.5 256t152.5 249.5t68.5 203.5q0 84 -52.5 131t-121.5 47 q-40 -1 -78 -18.5t-64 -42.5t-46 -49.5t-30 -42.5z" />
<glyph horiz-adv-x="1122" d="M233 1139l-165 164q3 5 8 13.5t23 33t39 46.5t55.5 49t72 46.5t89.5 33t108 13.5q157 0 269 -96t112 -242q0 -132 -135 -256q128 -41 212.5 -142.5t88.5 -234.5q0 -118 -39 -219t-102.5 -168.5t-144 -116t-162.5 -70.5t-159 -22q-59 -1 -120 15t-106.5 38.5t-82.5 45.5 t-56 39l-20 16l170 158q11 -10 31 -25t76 -39t106 -22q42 0 87 13.5t89.5 43.5t80 72t57.5 104.5t22 136.5q0 76 -52 135.5t-122 59.5q-85 0 -237 -41h4q-7 -3 -30.5 -4.5t-43.5 -1.5h-20v188q72 27 128 55t105 64.5t75.5 81.5t26.5 96t-31.5 83t-74.5 32q-38 0 -76 -18 t-65 -44t-48.5 -52t-31.5 -44z" />
<glyph horiz-adv-x="1282" d="M1219 571v-219h-201v-352h-287v352h-696v133l774 1024h209v-938h201zM731 1018l-330 -447h330v447zM330 571h71l-28 -39l-27 -28l-53 59z" />
<glyph horiz-adv-x="1230" d="M424 1292v-272q82 20 156 20q250 0 387 -129.5t137 -337.5q0 -157 -40.5 -274.5t-115 -188t-172 -105t-217.5 -34.5q-79 0 -156 20.5t-130.5 50t-95.5 59.5t-63 51l-20 20l152 184q7 -7 19.5 -18.5t49.5 -40.5t73 -51.5t84 -41t87 -18.5q122 0 198.5 94.5t76.5 288.5 q0 61 -26 118t-86 98.5t-142 41.5q-131 0 -230 -69h-209v751h854v-217h-571z" />
<glyph horiz-adv-x="1255" d="M678 956q96 0 175.5 -25t144.5 -78t101 -146t36 -218q0 -61 -15 -127t-52 -137t-92.5 -126.5t-145 -91.5t-199.5 -36q-259 0 -400 188.5t-141 536.5q0 224 76.5 416.5t215 309t308.5 116.5q182 0 395 -156l2 -2l-163 -172q-14 12 -37.5 30t-84 47.5t-106.5 29.5 q-71 0 -129.5 -42.5t-97 -115t-63 -152.5t-37.5 -171q135 122 309 122zM631 184q62 0 109.5 31.5t72.5 80.5t37 98t12 95q0 133 -51 192.5t-133 59.5q-166 0 -301 -278q28 -136 94 -207.5t160 -71.5z" />
<glyph horiz-adv-x="1046" d="M51 1278v231h942v-153q-69 -145 -175 -345t-237.5 -429.5t-257.5 -401.5t-198 -203l-168 154q60 36 196.5 245t271 450.5t239.5 451.5h-613z" />
<glyph horiz-adv-x="1202" d="M1038 1188q0 -67 -25 -131t-68 -116t-87 -90.5t-94 -72.5q69 -50 119.5 -95t97 -99t70.5 -113t24 -121q0 -79 -25.5 -142t-61.5 -102t-90 -67t-97 -40.5t-96.5 -19.5t-74.5 -7.5t-44 -0.5h-4q-247 0 -379 113q-113 97 -113 266q1 67 26 133.5t66.5 121.5t88 99t98.5 80 q-242 206 -242 404q0 76 27 137.5t71 100.5t104 64.5t122.5 36.5t130.5 11q55 0 108 -8t105 -24t95 -44t76.5 -65.5t52.5 -91t19 -117.5zM801 350q0 68 -66.5 140.5t-189.5 164.5q-71 -53 -123 -133t-62 -174q1 -40 17 -71.5t41.5 -48.5t50 -28.5t53 -15.5t40 -5t20.5 -1 q150 0 199 88q20 35 20 84zM399 1188q0 -71 48.5 -137t134.5 -138q182 124 182 275q0 43 -15.5 74.5t-43 48t-57.5 23.5t-66 7q-48 0 -86.5 -12t-67.5 -48t-29 -93zM612 891l-63 4q24 12 33 18z" />
<glyph horiz-adv-x="1255" d="M539 553q-96 0 -175 25t-144 78t-101.5 146t-36.5 218q0 61 15 127t52.5 137t93 126.5t144.5 91.5t199 36q259 0 400.5 -188.5t141.5 -534.5q0 -225 -77 -418t-215.5 -309.5t-307.5 -116.5q-185 0 -393 153q-4 4 -6 5l166 172q14 -12 37 -29.5t83 -47t105 -29.5 q71 0 129.5 42.5t97.5 114.5t63.5 152.5t37.5 171.5q-133 -123 -309 -123zM586 1325q-62 0 -109 -31.5t-72 -80t-37 -98t-12 -95.5q0 -133 51.5 -192.5t131.5 -59.5q74 0 151.5 64t149.5 215q-26 135 -92 206.5t-162 71.5z" />
<glyph horiz-adv-x="1026" d="M408 1944h188l324 -299h-258l-160 157l-160 -157h-256z" />
</font>
</defs>
</svg>
