<?xml version="1.0" standalone="no"?>
<!DOCTYPE svg PUBLIC "-//W3C//DTD SVG 1.1//EN" "http://www.w3.org/Graphics/SVG/1.1/DTD/svg11.dtd" >
<svg xmlns="http://www.w3.org/2000/svg">
<metadata></metadata>
<defs>
<font id="junctionregular" horiz-adv-x="1546" >
<font-face units-per-em="2048" ascent="1536" descent="-512" />
<missing-glyph horiz-adv-x="532" />
<glyph unicode="&#xfb01;" horiz-adv-x="1187" d="M66 983v143h145v197q0 80 18.5 146.5t58.5 115.5t103.5 77t151.5 28q80 0 158.5 -29t144.5 -64q76 -39 145 -90l-104 -104q-61 39 -121 72q-53 27 -111.5 49t-109.5 22t-83 -17.5t-49.5 -47t-24.5 -70.5t-7 -88v-197h635v-1126h-170v983h-465v-983h-170v983h-145z" />
<glyph unicode="&#xfb02;" horiz-adv-x="1263" d="M66 983v143h145v197q0 80 16.5 146.5t54 115.5t98 77t148.5 28q66 0 132.5 -22.5t119.5 -49.5v-164q-43 25 -86 45q-37 16 -81 31.5t-85 15.5q-51 0 -80.5 -17.5t-44 -47t-18.5 -70.5t-4 -88v-197h332v-143h-332v-983h-170v983h-145zM866 299v1380h170v-1380q0 -35 3 -75 t24 -60q43 -43 131 -43l-6 -146q-25 0 -57.5 2.5t-67.5 9.5t-67.5 20t-57.5 38q-27 27 -41 59.5t-21.5 66.5t-8.5 66.5t-1 61.5z" />
<glyph unicode="&#xfb03;" horiz-adv-x="1742" d="M66 983v143h145v197q0 80 16.5 146.5t54 115.5t98 77t148.5 28q43 0 88.5 -11.5t88.5 -28t78.5 -35t60.5 -32.5q41 49 102.5 78t151.5 29q80 0 158.5 -29t144.5 -64q76 -39 145 -90l-104 -104q-61 39 -121 72q-53 27 -111.5 49t-109.5 22t-83 -17.5t-49.5 -47 t-24.5 -70.5t-7 -88v-197h635v-1126h-170v983h-465v-983h-170v983h-385v-983h-170v983h-145zM381 1126h385v197q0 74 14 131q-43 25 -86 45q-37 16 -81 31.5t-85 15.5q-51 0 -80.5 -17.5t-44 -47t-18.5 -70.5t-4 -88v-197z" />
<glyph unicode="&#xfb04;" horiz-adv-x="1818" d="M66 983v143h145v197q0 80 16.5 146.5t54 115.5t98 77t148.5 28q43 0 87 -10.5t85 -26t77 -33.5t61 -33q39 47 98 75t147 28q66 0 132.5 -22.5t119.5 -49.5v-164q-43 25 -86 45q-37 16 -81 31.5t-85 15.5q-51 0 -80.5 -17.5t-44 -47t-18.5 -70.5t-4 -88v-197h332v-143 h-332v-983h-170v983h-385v-983h-170v983h-145zM381 1126h385v197q0 70 12 131q-2 2 -26.5 16.5t-61.5 31t-80 30.5t-82 14q-51 0 -80.5 -17.5t-44 -47t-18.5 -70.5t-4 -88v-197zM1421 299v1380h170v-1380q0 -35 3 -75t24 -60q43 -43 131 -43l-6 -146q-25 0 -57.5 2.5 t-67.5 9.5t-67.5 20t-57.5 38q-27 27 -41 59.5t-21.5 66.5t-8.5 66.5t-1 61.5z" />
<glyph horiz-adv-x="2048" />
<glyph horiz-adv-x="2048" />
<glyph unicode="&#xd;" horiz-adv-x="532" />
<glyph unicode=" "  horiz-adv-x="532" />
<glyph unicode="&#x09;" horiz-adv-x="532" />
<glyph unicode="&#xa0;" horiz-adv-x="532" />
<glyph unicode="!" horiz-adv-x="598" d="M172 115q0 53 37 89t92 36q53 0 89 -36t36 -89q0 -55 -36 -92t-89 -37q-55 0 -92 37t-37 92zM197 1679h202l-26 -1302h-150z" />
<glyph unicode="&#x22;" horiz-adv-x="770" d="M90 1462q0 49 33 81t82 32q66 0 95.5 -48t29.5 -120q-2 -86 -39 -177t-103 -171l-94 51q45 55 77 112.5t42 125.5q-55 0 -89 32.5t-34 81.5zM440 1462q0 49 33 81t82 32q66 0 95.5 -48t29.5 -120q-2 -86 -39 -177t-102 -171l-95 51q45 55 77 112.5t42 125.5 q-55 0 -89 32.5t-34 81.5z" />
<glyph unicode="#" horiz-adv-x="1685" d="M80 489l35 148h338l88 362h-348l34 148h351l106 430h152l-107 -430h361l106 430h152l-107 -430h365l-35 -148h-367l-88 -362h377l-35 -148h-379l-118 -489h-152l119 489h-361l-118 -489h-152l119 489h-336zM604 637h361l88 362h-361z" />
<glyph unicode="$" horiz-adv-x="1265" d="M111 274l127 113q68 -111 148.5 -172t191.5 -80v613q-82 27 -157 59.5t-131.5 81.5t-89 117.5t-30.5 167.5q2 127 44 208.5t103.5 130t131 69t129.5 26.5v116h139v-120q113 -14 195.5 -61.5t152.5 -129.5l-123 -104q-47 49 -100.5 82.5t-124.5 46.5v-545 q86 -29 166 -64.5t143.5 -90t101 -132.5t37.5 -186q0 -106 -35.5 -187t-97 -137.5t-143.5 -88.5t-172 -40v-104h-139v108q-154 18 -266.5 90t-200.5 213zM346 1174q-2 -47 15.5 -83t48 -64t74.5 -49.5t94 -39.5v504q-37 -4 -76 -18.5t-73 -45t-57.5 -80.5t-25.5 -124z M717 131q57 6 106 27.5t86 57.5t58.5 87t21.5 117q0 61 -21.5 105t-58.5 78t-87 57.5t-105 44.5v-574z" />
<glyph unicode="%" horiz-adv-x="2050" d="M121 1167q0 125 36 207t91 131t123.5 69.5t136.5 20.5t137.5 -20.5t125.5 -69.5t91 -132t35 -210q0 -125 -36 -207t-91 -131t-123.5 -68.5t-136.5 -19.5t-136.5 20.5t-124.5 70t-92 132t-36 207.5zM295 1167q0 -92 18.5 -149t48 -90t68.5 -44.5t80 -11.5t79 11.5t67.5 43 t48 88t18.5 148.5q0 94 -18.5 151.5t-48 90.5t-68.5 44t-80 11t-79 -12t-67.5 -44t-48 -88t-18.5 -149zM328 -96l1188 1763h196l-1188 -1763h-196zM1153 399q0 125 36 207t91 131t124 69.5t136 20.5q68 0 137.5 -20.5t126 -69.5t91 -132t34.5 -210q0 -125 -35.5 -207 t-91 -131t-124 -68.5t-136.5 -19.5t-136.5 20.5t-124.5 70t-92 132t-36 207.5zM1327 399q0 -92 18.5 -149t48 -90t68.5 -44.5t80 -11.5t79 11.5t67.5 43t48 88t18.5 148.5q0 94 -18.5 151.5t-48 90.5t-68.5 44t-80 11t-79 -12t-67.5 -44t-48 -88t-18.5 -149z" />
<glyph unicode="&#x26;" horiz-adv-x="1810" d="M121 410q0 82 29.5 147.5t79 120.5t115 100t138.5 86q-94 104 -152.5 194.5t-58.5 182.5q0 96 39 160.5t101.5 103.5t139.5 55.5t155 16.5q76 0 152.5 -16.5t137 -55.5t98.5 -103.5t38 -160.5q0 -68 -33 -123t-88.5 -102t-127 -90t-149.5 -82q78 -86 178.5 -193.5 t198.5 -210.5q51 80 90 164t86 176l133 -65q-51 -102 -99 -200.5t-101 -186.5q80 -78 137 -124t74 -50q35 -10 70.5 8t74.5 106l123 -71q-35 -80 -71 -124t-70.5 -64.5t-67.5 -21.5t-59 3q-41 6 -122 59t-184 148q-84 -96 -200.5 -153.5t-290.5 -57.5q-80 0 -170 22.5 t-167 73.5t-127 131t-50 197zM293 410q0 -68 40 -117t95 -81t113.5 -46t93.5 -14q129 2 219 46t158 111q-117 117 -230.5 239t-201.5 216q-59 -33 -110.5 -69t-91.5 -79t-62.5 -94t-22.5 -112zM444 1241q0 -55 54.5 -129t140.5 -166q61 31 119.5 63.5t103.5 68.5t72 76 t27 87q0 61 -23 101t-58.5 64t-81.5 34t-91 10q-47 0 -93.5 -10t-84 -34t-61.5 -63.5t-24 -101.5z" />
<glyph unicode="'" horiz-adv-x="419" d="M90 1464q0 49 33 81t82 32q66 0 95.5 -48t29.5 -120q-2 -86 -39 -177t-103 -171l-94 51q45 55 77 112.5t42 125.5q-55 0 -89 32.5t-34 81.5z" />
<glyph unicode="(" horiz-adv-x="688" d="M121 520q0 74 9 178.5t31.5 219t59.5 229.5t92.5 207t130 153.5t172.5 69.5l13 -143q-68 -25 -119 -84.5t-89 -139.5t-62.5 -174t-39 -187t-20.5 -179t-6 -150q0 -63 6 -149t20.5 -179.5t39 -187.5t62.5 -174t89 -139.5t119 -81.5l-13 -144q-98 10 -172.5 72t-130 154 t-92.5 205.5t-59.5 227.5t-31.5 218t-9 178z" />
<glyph unicode=")" horiz-adv-x="688" d="M59 -391q68 23 119 82t89 139t62.5 174t39 187.5t20.5 179.5t6 149t-6 149.5t-20.5 179.5t-39 187t-62.5 174t-89 139.5t-119 84.5l13 143q98 -8 172.5 -69.5t130 -153.5t92.5 -207t59.5 -229.5t31.5 -219t9 -178.5t-9 -178t-31.5 -218t-59.5 -227.5t-92.5 -205.5 t-130 -153.5t-172.5 -72.5z" />
<glyph unicode="*" horiz-adv-x="1261" d="M98 1161l52 133l413 -166l-4 449h143l-4 -449l414 166l51 -133l-424 -166l295 -327l-119 -101l-284 353l-283 -353l-123 101l295 327z" />
<glyph unicode="+" horiz-adv-x="1327" d="M100 496v137h484v493h137v-493h506v-137h-506v-496h-137v496h-484z" />
<glyph unicode="," horiz-adv-x="409" d="M80 100q0 49 32.5 81t82.5 32q66 0 95 -48t29 -120q-2 -86 -38.5 -177t-102.5 -171l-94 51q45 55 77 112.5t42 125.5q-55 0 -89 32.5t-34 81.5z" />
<glyph unicode="-" horiz-adv-x="704" d="M111 492v143h483v-143h-483z" />
<glyph unicode="." horiz-adv-x="419" d="M90 109q0 51 35 83.5t88 32.5q51 0 84 -32.5t33 -83.5q0 -53 -33 -88t-84 -35q-53 0 -88 35t-35 88z" />
<glyph unicode="/" horiz-adv-x="720" d="M39 0l473 1577h170l-473 -1577h-170z" />
<glyph unicode="0" horiz-adv-x="1249" d="M121 571q0 172 45 288t116.5 185.5t162 99.5t180.5 30t180 -30t161.5 -99.5t116.5 -185.5t45 -288t-45 -287.5t-116.5 -185t-161.5 -99.5t-180 -30t-180.5 30t-162 99.5t-116.5 185t-45 287.5zM293 571q0 -129 29.5 -216t76.5 -139t106.5 -73.5t119.5 -21.5 q59 0 118.5 21.5t106.5 73.5t76.5 139t29.5 216t-29.5 216t-76.5 139.5t-106.5 74t-118.5 21.5t-119 -21.5t-107 -74t-76.5 -139.5t-29.5 -216z" />
<glyph unicode="1" horiz-adv-x="743" d="M100 936l293 221h182v-1157h-182v963l-182 -154z" />
<glyph unicode="2" horiz-adv-x="1097" d="M100 0v131l48 35q49 35 120.5 91t154.5 129t154.5 148.5t118.5 147.5t47 129q-2 113 -63.5 164t-153.5 49q-76 -2 -131 -32.5t-92 -69.5q-43 -46 -74 -101q-33 31 -55 56l-39 39t-16 18q23 37 57.5 80t84.5 79.5t116.5 62.5t150.5 26q178 0 284 -94.5t106 -276.5 q0 -61 -29 -128t-76 -131.5t-106.5 -124.5t-119 -112.5t-115.5 -93.5t-95 -65h610v-156h-887z" />
<glyph unicode="3" horiz-adv-x="1112" d="M70 -293l108 103q23 -20 58 -35q29 -12 71.5 -22.5t100.5 -6.5q63 0 135.5 25.5t135 79t104.5 135.5t42 194q0 47 -20.5 92t-54 80t-78.5 55.5t-94 20.5q-55 0 -106.5 -8t-91.5 -18.5t-66 -17.5l-25 -7v139q72 27 136 59.5t113.5 74.5t79 93.5t29.5 114.5q0 74 -53 117 t-121 43q-72 0 -121 -22.5t-82 -49.5q-37 -31 -61 -69l-96 94q33 57 86 104q43 39 110.5 72t161.5 33q70 0 132.5 -23.5t109.5 -66.5t74.5 -102.5t27.5 -129.5q0 -47 -15.5 -89t-41 -78t-58 -67.5t-65.5 -58.5q72 -10 135.5 -41.5t112.5 -82t78.5 -117t31.5 -144.5 q0 -154 -57 -266.5t-144 -186t-190.5 -109.5t-193.5 -36q-74 -2 -135.5 18.5t-106.5 43.5q-53 27 -96 63z" />
<glyph unicode="4" horiz-adv-x="1271" d="M70 0v96l802 1063h125v-1003h215v-156h-215v-418h-182v418h-745zM295 147l39 9h481v688l-491 -666l-29 -28v-3z" />
<glyph unicode="5" horiz-adv-x="1220" d="M141 -242l99 121q43 -41 96 -74q45 -29 104.5 -50t128.5 -21q74 0 138.5 25.5t113.5 80t77 139t28 203.5q0 53 -20.5 108.5t-61.5 101.5t-103.5 76t-148.5 30q-70 0 -138.5 -14.5t-134.5 -59.5h-135v733h791v-153h-610v-410q45 20 97 36.5t130 16.5q123 0 216 -34.5 t156.5 -96t95.5 -146.5t32 -184q0 -162 -39 -276.5t-109 -187t-166 -106.5t-209 -34q-102 0 -181 26.5t-134 61.5q-66 37 -113 88z" />
<glyph unicode="6" horiz-adv-x="1245" d="M129 705q0 174 43 329.5t121 274t183.5 188.5t232.5 70q68 0 126 -17.5t105 -41t78 -45t43 -29.5l-109 -113q-29 23 -65 41q-31 16 -75 29.5t-95 13.5q-80 0 -141.5 -35t-108.5 -93t-80 -133t-53.5 -156t-30.5 -162t-12 -148q51 78 103 129t104.5 82t101.5 43t96 12 q86 0 164 -23.5t136.5 -78t93 -142.5t34.5 -215q0 -72 -23.5 -160.5t-78.5 -167.5t-147.5 -133.5t-227.5 -54.5q-248 0 -383 189.5t-135 546.5zM313 461q33 -166 119 -254t215 -88q88 0 146.5 39t94.5 95t51 119.5t15 112.5q0 86 -21.5 145.5t-56 95.5t-81.5 51.5t-99 15.5 q-43 0 -91 -15.5t-97 -52.5t-99.5 -101.5t-95.5 -162.5z" />
<glyph unicode="7" horiz-adv-x="1036" d="M8 -281q31 20 86.5 93t124 180.5t144 238.5t149.5 266.5t140.5 263.5t115.5 228h-676v170h885v-121q-31 -66 -77 -158t-101.5 -200.5t-119 -226t-127 -231t-127 -218t-119.5 -187.5t-102 -137.5t-79 -68.5z" />
<glyph unicode="8" horiz-adv-x="1191" d="M131 336q0 80 31 149.5t77 129t101 105.5t104 77q-57 45 -107 94t-87 103.5t-58.5 112.5t-21.5 124q0 94 38 158.5t98.5 104.5t136 56.5t151.5 16.5t151.5 -16.5t137 -56.5t100.5 -104.5t39 -158.5q0 -80 -33 -147.5t-81 -123t-102 -97.5t-97 -68q68 -47 131 -98.5 t112 -108t79 -119.5t30 -133q0 -96 -33 -160.5t-82 -105.5t-108.5 -61.5t-110.5 -30t-89 -9.5h-44t-43 1t-88 10.5t-109.5 30t-107.5 61.5t-82 105.5t-33 158.5zM297 336q0 -86 44 -132t98.5 -66.5t101.5 -22.5t53 -2t54 2t101.5 21.5t97.5 65.5t44 134q0 45 -27.5 93 t-74 95t-106.5 95.5t-126 97.5q-43 -27 -87 -65t-81 -86t-62.5 -105.5t-29.5 -124.5zM338 1231q0 -49 20.5 -95t55.5 -89t80 -84t94 -80q29 14 74 44.5t87 76t71.5 102.5t29.5 125q0 59 -22.5 98t-59.5 62.5t-83 33t-91 9.5t-91 -9.5t-83 -33t-59.5 -62.5t-22.5 -98z" />
<glyph unicode="9" horiz-adv-x="1245" d="M121 641q0 72 23.5 161t79 168t147.5 133t227 54q248 0 383 -189.5t135 -545.5q0 -174 -43 -331t-121 -274.5t-184 -187t-231 -69.5q-68 0 -126.5 17t-105.5 41t-77.5 45.5t-43.5 29.5l109 112q29 -25 65 -43q31 -16 74 -28.5t96 -12.5q78 0 140.5 35t109.5 93.5t80 133 t53.5 155.5t30.5 162t12 149q-51 -78 -103 -129.5t-104.5 -82t-102.5 -43t-95 -12.5q-86 0 -164 23.5t-136.5 78t-93 142.5t-34.5 215zM291 641q0 -86 21.5 -145.5t56 -95t82 -51t98.5 -15.5q43 0 91 15.5t97 52t98.5 101t96.5 163.5q-33 166 -119 254t-215 88 q-88 0 -146.5 -39t-94 -95.5t-51 -120t-15.5 -112.5z" />
<glyph unicode=":" horiz-adv-x="522" d="M141 109q0 51 35 83.5t88 32.5q51 0 84 -32.5t33 -83.5q0 -53 -33 -88t-84 -35q-53 0 -88 35t-35 88zM141 846q0 51 35 84t88 33q51 0 84 -33t33 -84q0 -53 -33 -88t-84 -35q-53 0 -88 35t-35 88z" />
<glyph unicode=";" horiz-adv-x="532" d="M141 846q0 51 35 84t88 33q51 0 84 -33t33 -84q0 -53 -33 -88t-84 -35q-53 0 -88 35t-35 88zM152 100q0 49 32.5 81t81.5 32q66 0 95.5 -48t29.5 -120q-2 -86 -39 -177t-102 -171l-94 51q45 55 76.5 112.5t41.5 125.5q-55 0 -88.5 32.5t-33.5 81.5z" />
<glyph unicode="&#x3c;" horiz-adv-x="1429" d="M152 500v147l1136 514v-147l-975 -441l975 -440v-147z" />
<glyph unicode="=" horiz-adv-x="1349" d="M111 344v137h1128v-137h-1128zM111 672v137h1128v-137h-1128z" />
<glyph unicode="&#x3e;" horiz-adv-x="1429" d="M141 -14v147l973 440l-973 441v147l1137 -514v-147z" />
<glyph unicode="?" horiz-adv-x="1028" d="M82 1393q49 80 117 143q57 53 140 98t191 45q137 0 221.5 -38.5t129.5 -95t60 -120t15 -114.5q0 -84 -28.5 -154t-73.5 -129t-100.5 -112.5t-110.5 -102.5q-68 -61 -116 -115.5t-48 -97.5q0 -49 28 -83t81 -81l-119 -98q-33 29 -59.5 56.5t-46 57t-30.5 66.5t-11 84 q0 98 60 175t153 159q43 39 87 83t78.5 91t58 97.5t25.5 103.5q0 31 -7 69.5t-32.5 73.5t-77 58.5t-137.5 23.5q-80 0 -142 -38t-107 -85q-53 -53 -91 -123zM397 100q0 49 33 81t82 32t81 -31.5t32 -81.5q0 -49 -32 -81.5t-81 -32.5t-82 32.5t-33 81.5z" />
<glyph unicode="@" horiz-adv-x="2170" d="M111 535q0 203 82.5 391t224 332.5t327 231.5t388.5 87q223 0 396 -77t290.5 -199.5t179 -277.5t61.5 -310q0 -139 -37.5 -243.5t-99 -179.5t-136.5 -123t-148.5 -77t-137 -40t-102.5 -11q-92 0 -118 51t-9 131q-41 -35 -87 -68.5t-98.5 -59t-109 -40t-117.5 -14.5 q-147 2 -211.5 106.5t-64.5 276.5q0 168 56 309t141 241.5t183.5 157t184.5 56.5q39 0 77 -6t75.5 -23.5t73.5 -50.5t71 -84q6 29 11 50.5t9 37.5q4 18 9 33l159 -37q-59 -260 -104 -465q-20 -88 -38.5 -172t-33 -150.5t-24 -107.5t-9.5 -43q4 -4 42 2t92.5 27.5t116 60.5 t112.5 101.5t82 149.5t26 204q0 125 -50 249.5t-147 225t-239.5 163t-326.5 62.5q-170 0 -326 -73.5t-273.5 -196.5t-188.5 -282t-71 -326q0 -170 71 -311.5t188.5 -245t273.5 -161t326 -57.5q80 0 151.5 7.5t148 34t165 78.5t198.5 145l102 -127q-127 -104 -227 -164 t-189 -90.5t-173 -38.5t-176 -8q-203 0 -388.5 70.5t-327 195.5t-224 297t-82.5 375zM748 422q0 -117 26.5 -180.5t87.5 -67.5q84 -2 162 40t141.5 96.5t106.5 106.5t57 72l76 345q-31 74 -62.5 117.5t-64.5 66t-64.5 29t-64.5 6.5q-61 0 -131 -46t-130.5 -129t-100 -199 t-39.5 -257z" />
<glyph unicode="A" horiz-adv-x="1449" d="M49 0l582 1577h188l582 -1577h-191l-198 537h-576l-196 -537h-191zM494 692h460l-217 586q-4 14 -6 31q-6 26 -6 67q-2 -29 -6 -55.5t-8 -42.5z" />
<glyph unicode="B" horiz-adv-x="1300" d="M172 0v1550q78 8 188.5 22.5t251.5 14.5q109 0 198 -21.5t153.5 -71.5t102.5 -136t44 -215q-2 -125 -46 -202t-114 -122q72 -31 117 -77t69.5 -96t34 -98t9.5 -83q0 -31 -2 -78t-17.5 -99t-48.5 -104.5t-94 -93.5q-60 -40 -152 -66q-85 -24 -208 -24h-19h-287h-180z M352 156h287q135 0 209 32.5t108.5 79.5t41 101.5t6.5 95.5q0 25 -10.5 67.5t-46.5 84.5t-102.5 72t-178.5 30h-314v-563zM352 874h222.5t181.5 23t126 79t54 171q0 78 -19.5 130t-52.5 85t-77 48t-93 20q-47 4 -94 4q-44 0 -86 -4q-88 -8 -162 -17v-539z" />
<glyph unicode="C" horiz-adv-x="1314" d="M121 743q0 213 53 375t142.5 270.5t205 164t238.5 55.5q125 0 212 -34t140 -75q63 -47 102 -106l-118 -115q-31 43 -80 78q-41 29 -104.5 54.5t-153.5 25.5q-84 0 -166 -43t-145.5 -129t-102.5 -216t-39 -305q0 -129 36 -239.5t98.5 -192.5t144.5 -130t174 -50h13 q92 -1 162 25q75 28 126 63t77 65l25 29l113 -112q-25 -20 -61.5 -60.5t-97 -79t-149.5 -67.5q-78 -25 -187 -25h-31q-135 4 -251 63.5t-199 162t-130 243t-47 305.5z" />
<glyph unicode="D" horiz-adv-x="1458" d="M172 0v1550q74 8 132 15.5t107.5 12.5t93.5 7t91 2q141 0 275.5 -29.5t237.5 -116.5t165.5 -246t62.5 -417q0 -186 -47 -330.5t-132 -244t-203.5 -151.5t-260.5 -52h-342h-180zM352 156h342q98 0 183.5 43t147.5 122.5t97 195.5t35 261t-25.5 266t-89 207t-171 134.5 t-271.5 48.5q-100 0 -162.5 -9.5t-85.5 -13.5v-1255z" />
<glyph unicode="E" horiz-adv-x="1146" d="M172 0v1577h651q49 0 89 1t69 3q33 2 57 6v-164h-686v-528h584v-156h-584v-583h500q49 0 89 1t69 3q33 2 57 6v-166h-895z" />
<glyph unicode="F" horiz-adv-x="1101" d="M172 0v1577h651q49 0 89 1t69 3q33 2 57 6v-162h-686v-530h584v-156h-584v-739h-180z" />
<glyph unicode="G" horiz-adv-x="1531" d="M121 754q0 240 70.5 403.5t179 263t237.5 143.5t246 44q121 0 211 -38t154 -83q72 -53 127 -121l-121 -119q-41 57 -95 103q-47 39 -114.5 70.5t-153.5 31.5q-84 0 -180 -38t-180 -122t-139.5 -216t-55.5 -322q0 -94 22.5 -203t84 -202t168 -154.5t274.5 -61.5 q45 0 102.5 15.5t107.5 42t85 59.5t35 69v295h-185q-37 0 -90 2t-96 25v147q49 -12 103.5 -13t89.5 -1h350v-473q0 -70 -43 -130t-114 -104t-159 -70t-178 -28q-152 0 -265.5 36t-196.5 95.5t-137 138t-86 167t-45 177.5t-13 171z" />
<glyph unicode="H" horiz-adv-x="1515" d="M172 0v1577h180v-684h811v684h180v-1577h-180v737h-811v-737h-180z" />
<glyph unicode="I" horiz-adv-x="524" d="M172 0v1577h180v-1577h-180z" />
<glyph unicode="J" horiz-adv-x="581" d="M-23 -369q47 12 92.5 38t81 66t58 97t22.5 133v1612h181v-1612q0 -123 -38 -210t-94.5 -144t-121 -91t-115.5 -50z" />
<glyph unicode="K" horiz-adv-x="1253" d="M172 0v1577h180v-698l545 698h223l-577 -737q41 -4 99 -35t106 -80q23 -25 58.5 -78t78.5 -121.5t90 -146.5t92 -150.5t86 -133t72 -95.5h-2h-211q-18 18 -48 64.5t-68 106.5t-78 128t-75.5 128t-65.5 107.5t-46 67.5q-53 68 -124 88q-37 11 -77 11q-37 0 -78 -9v-692 h-180z" />
<glyph unicode="L" horiz-adv-x="1136" d="M172 0v1577h180v-1421h500q49 0 89 1t69 3q33 2 57 6v-166h-895z" />
<glyph unicode="M" horiz-adv-x="1738" d="M172 0v1577h180l514 -1352l2 -14l2 14l516 1352h181v-1577h-181v1106l3 35l-9 -35l-424 -1106h-174l-424 1106l-8 33l2 -33v-1106h-180z" />
<glyph unicode="N" horiz-adv-x="1478" d="M172 0v1577h180v-2l762 -1239l14 -29l-2 29v1241h181v-1577h-181v2l-761 1243l-15 29l2 -29v-1245h-180z" />
<glyph unicode="O" d="M121 786q0 240 59.5 398.5t153.5 253t211.5 132.5t232.5 38q113 0 227.5 -39t208 -132.5t152.5 -251t59 -394.5q0 -242 -56 -401t-148.5 -252t-210 -131t-238.5 -38q-113 0 -228.5 37t-209.5 130t-153.5 251t-59.5 399zM301 791q0 -190 44 -318.5t113.5 -205.5 t152.5 -109.5t161 -32.5q84 0 168 31.5t151.5 108.5t110.5 204t43 317q0 186 -42 314.5t-109.5 207t-150.5 112.5t-165 34q-80 0 -165 -32.5t-153.5 -110.5t-113.5 -205t-45 -315z" />
<glyph unicode="P" horiz-adv-x="1263" d="M172 0v1577h180v-61q72 41 158 66.5t178 25.5q104 0 192.5 -38t151 -106.5t97 -164t34.5 -209.5q0 -297 -129 -447.5t-360 -150.5q-104 0 -181 31.5t-141 74.5v-598h-180zM352 788q72 -63 155 -98t175 -35q137 0 222 107t85 328q0 80 -24.5 145t-70.5 113.5t-113.5 75 t-151.5 26.5q-72 0 -141.5 -27.5t-135.5 -76.5v-558z" />
<glyph unicode="Q" d="M121 786q0 240 59.5 398.5t153.5 253t211.5 132.5t232.5 38q113 0 227.5 -39t208 -132.5t152.5 -251t59 -394.5q0 -217 -46 -367t-122.5 -245t-177 -143t-207.5 -61q14 -16 33 -33.5t44.5 -32.5t61.5 -24.5t83 -9.5q43 0 92 8t100 25l45 -148q-20 -10 -51 -16t-64.5 -10 t-66.5 -6t-55 -2q-100 2 -174 28.5t-126.5 65.5t-83 82t-42.5 75q-102 14 -200.5 62.5t-175.5 142.5t-124 242.5t-47 361.5zM301 791q0 -190 44 -318.5t113.5 -205.5t152.5 -109.5t161 -32.5q84 0 168 31.5t151.5 108.5t110.5 204t43 317q0 186 -42 314.5t-109.5 207 t-150.5 112.5t-165 34q-80 0 -165 -32.5t-153.5 -110.5t-113.5 -205t-45 -315z" />
<glyph unicode="R" horiz-adv-x="1337" d="M172 0v1577h180v-64q82 51 165 72t181 23q195 0 309.5 -120t127.5 -331q0 -121 -32 -206t-82 -142t-113.5 -89t-129.5 -46q68 -55 132.5 -145.5t131 -187.5t134 -188.5t141.5 -148.5v-4h-219q-45 35 -90 93.5t-91.5 126t-94.5 139t-97 133t-101.5 106.5t-105.5 61h-166 v-659h-180zM352 813h303q49 0 102.5 15.5t97.5 53.5t73.5 104.5t29.5 170.5q0 131 -76.5 210t-211.5 79q-90 0 -166 -24.5t-152 -75.5v-533z" />
<glyph unicode="S" horiz-adv-x="1265" d="M111 279l127 112q80 -129 180 -191.5t244 -66.5q66 0 125 18.5t104 54.5t71.5 91t26.5 129q0 72 -29.5 121t-80 83t-116 56.5t-134.5 44.5q-90 27 -173 59.5t-147.5 82t-102.5 121.5q-36 68 -36 166v11q2 141 53 226.5t122 132.5t147.5 62.5t132.5 15.5q152 0 255 -49.5 t185 -147.5l-123 -104q-59 63 -131 100t-186 37q-35 0 -81 -9.5t-89 -39t-74 -82.5t-35 -142v-8q0 -54 24 -92q26 -41 72.5 -71.5t108 -53t127.5 -43.5q90 -29 177 -63.5t156.5 -88t111.5 -132t42 -193.5t-42 -201t-112.5 -143t-161.5 -85t-192 -28q-186 6 -317 79t-229 231 z" />
<glyph unicode="T" horiz-adv-x="1138" d="M14 1421v156h1110v-156h-469v-1421h-180v1421h-461z" />
<glyph unicode="U" horiz-adv-x="1398" d="M172 489v1088h180v-1083q0 -119 38 -191t92.5 -109.5t114.5 -49t103 -11.5t102.5 12.5t113 51.5t92.5 108.5t39 183.5v1088h180v-1088q0 -115 -28 -197.5t-72 -140t-100 -92t-114.5 -53t-114 -25t-98.5 -6.5t-99 6.5t-114.5 26t-115 54t-100.5 92t-71.5 139.5t-27.5 196z " />
<glyph unicode="V" horiz-adv-x="1400" d="M45 1577h191l458 -1296l6 -27l7 27l458 1296h191l-561 -1577h-189z" />
<glyph unicode="W" horiz-adv-x="1998" d="M51 1577h185l331 -1249l4 -25l4 25l328 1249h191l327 -1253l4 -25l5 25l331 1253h187l-447 -1577h-149l-348 1217l-7 36l-6 -36l-344 -1217h-149z" />
<glyph unicode="X" horiz-adv-x="1341" d="M59 0l500 786l-500 791h215l396 -616l393 616h219l-502 -791l502 -786h-219l-393 612l-389 -612h-222z" />
<glyph unicode="Y" horiz-adv-x="1259" d="M18 1577h211l404 -633l405 633h203l-520 -821v-756h-178v756z" />
<glyph unicode="Z" horiz-adv-x="1251" d="M100 0v168l789 1241h-768v168h987v-164l-789 -1245h594q41 0 84 4q35 4 77 10t77 19v-170q-23 -12 -62.5 -17.5t-80.5 -9.5q-47 -4 -99 -4h-809z" />
<glyph unicode="[" horiz-adv-x="731" d="M172 -532v2109h418v-123h-246v-1864h246v-122h-418z" />
<glyph unicode="\" horiz-adv-x="741" d="M49 1577h170l473 -1577h-170z" />
<glyph unicode="]" horiz-adv-x="731" d="M141 -410h246v1864h-246v123h418v-2109h-418v122z" />
<glyph unicode="^" horiz-adv-x="1335" d="M80 0l514 1126h147l514 -1126h-147l-440 965l-441 -965h-147z" />
<glyph unicode="_" horiz-adv-x="1349" d="M111 0h1128v-131h-1128v131z" />
<glyph unicode="`" horiz-adv-x="702" d="M111 1548h213l268 -299h-141z" />
<glyph unicode="a" horiz-adv-x="1150" d="M111 283q0 55 14 111.5t58 107.5t124 91t209 58q113 16 180.5 26.5t104.5 20.5v129q0 16 -3 44t-16.5 54.5t-39 46t-68.5 19.5t-93.5 -12t-100.5 -29.5t-96 -38t-81 -38t-45 -23.5l-33 -16l-11 22q-11 21 -23.5 46.5t-22.5 47t-10 23.5q27 14 83 45t129.5 59.5t157.5 51 t170 22.5q88 0 141.5 -36t83 -86t39 -106.5t9.5 -95.5v-606q0 -4 1 -18.5t11 -36t32.5 -45t65.5 -43.5l-110 -103q-74 29 -109 76t-49 101q-74 -78 -172 -127.5t-213 -49.5q-16 0 -68.5 8.5t-107.5 39t-98 92t-43 168.5zM279 283q0 -53 18 -85t41.5 -49.5t47.5 -23.5t36 -6 q11 -1 22 -1q42 0 86 12q54 15 104 42t93 62.5t74 74.5v242q-47 -10 -106.5 -18.5t-159.5 -24.5q-84 -12 -134.5 -35.5t-78 -54.5t-35.5 -66t-8 -69z" />
<glyph unicode="b" horiz-adv-x="1277" d="M172 0v1679h170v-698q33 37 71 67.5t84 54t101 36t125 12.5q115 0 199 -47t138 -126t80.5 -182.5t26.5 -213.5q0 -289 -126 -448t-347 -159q-78 0 -172 33t-180 103v-111h-170zM342 299q76 -76 174 -119t178 -43q137 0 219 118t82 327q0 78 -17 149.5t-51 127.5t-85 90 t-119 34q-74 0 -134.5 -18.5t-106.5 -49t-80.5 -68.5t-59.5 -77v-471z" />
<glyph unicode="c" horiz-adv-x="1040" d="M111 543q0 160 45 274.5t114.5 188t155.5 109.5t168 36q86 0 151.5 -27.5t108.5 -62.5q51 -39 86 -90l-109 -103q-23 35 -57 64q-29 25 -74 45t-110 20q-53 0 -107.5 -27.5t-99.5 -84t-72.5 -142.5t-27.5 -200q0 -84 21.5 -160t59 -133t93 -90t123.5 -33q31 0 60.5 4 t61 17.5t69.5 39t83 68.5l107 -102q-61 -61 -113.5 -97.5t-99 -54.5t-88.5 -22.5t-80 -4.5q-106 0 -192.5 44t-148 120t-95 179.5t-33.5 224.5z" />
<glyph unicode="d" horiz-adv-x="1308" d="M111 545q0 289 128 447.5t349 158.5q84 0 173 -40t177 -116v684h172v-1409v-12q0 -35 10 -65q10 -31 35 -63t74 -48l-109 -111q-53 18 -84.5 46t-50 58.5t-27 60.5t-10.5 54q-82 -92 -188 -150q-103 -56 -231 -56h-9q-94 0 -170 46t-129 123.5t-81.5 179t-28.5 212.5z M287 545q0 -78 16 -147.5t47 -124t74 -87t96 -36.5q15 -1 30 -1q64 -1 118 21q66 26 118 69.5t89.5 93.5t62.5 89v375q-86 84 -178 135t-172 51q-137 0 -219 -114.5t-82 -323.5z" />
<glyph unicode="e" horiz-adv-x="1181" d="M111 551q0 123 33.5 232.5t97 190.5t152.5 129t200 48q104 0 179 -32t125 -80t80 -107.5t46 -115.5t20.5 -100t4.5 -65v-80h-768q-1 -17 -1 -34q0 -80 16 -148q19 -82 60 -141.5t102.5 -92t143.5 -32.5q23 0 57.5 2t79.5 20.5t98.5 58.5t112.5 118l105 -101 q-78 -96 -145.5 -146t-126 -71.5t-104.5 -25t-77 -3.5q-123 0 -215 46.5t-153.5 125t-92 183t-30.5 221.5zM303 723h571q-6 43 -24.5 92t-51 91t-82.5 70t-122 28q-57 0 -103.5 -21.5t-82 -59.5t-62.5 -89.5t-43 -110.5z" />
<glyph unicode="f" horiz-adv-x="804" d="M66 983v143h145v197q0 80 16.5 146.5t54 115.5t98 77t148.5 28q59 0 123 -20.5t117 -45.5q61 -29 117 -65l-105 -105q-43 25 -86 45q-37 16 -81 31.5t-85 15.5q-51 0 -80.5 -17.5t-44 -47t-18.5 -70.5t-4 -88v-197h332v-143h-332v-983h-170v983h-145z" />
<glyph unicode="g" horiz-adv-x="1255" d="M121 -201q0 68 13 116t37 84t54.5 63.5t67.5 54.5q-43 18 -74 49t-31 84t42 108.5t104 104.5q-72 41 -123 118.5t-51 213.5q0 96 46 164.5t113.5 111.5t144.5 63.5t140 20.5t137 -18q63 57 145.5 88.5t164.5 31.5q29 0 60.5 -5t62.5 -15l-29 -143q-37 12 -94 12 q-88 0 -166 -33q68 -43 115 -111.5t47 -166.5q0 -123 -45.5 -199t-113 -119t-144 -58.5t-140.5 -15.5q-29 0 -59.5 2.5t-63.5 8.5q-49 -35 -85 -78t-36 -86q6 -6 38 -9t73 -4t79 -2.5t56 -1.5q100 -6 203.5 -20t187.5 -50t137.5 -99.5t53.5 -165.5q0 -92 -35 -176 t-105.5 -147.5t-179 -100.5t-256.5 -37q-96 0 -185 28.5t-156.5 78.5t-108.5 116t-41 139zM289 -201q0 -45 28.5 -84t74.5 -67.5t103.5 -45t116.5 -16.5q104 0 180 26t126.5 69t75 99t24.5 118q0 55 -39 90t-98.5 54t-133 27.5t-143.5 12.5q-29 0 -67.5 1t-79.5 1 q-37 -23 -68 -45.5t-53.5 -54t-34.5 -75.5t-12 -110zM330 795q0 -88 28.5 -139.5t70.5 -78t89 -34.5t86 -8t86 10t88 38.5t70 80t29 131.5q0 63 -29 106t-70 70.5t-88 40t-86 12.5t-86 -12.5t-89 -40t-70.5 -70.5t-28.5 -106z" />
<glyph unicode="h" horiz-adv-x="1236" d="M172 0v1679h172v-770q47 45 103.5 89t120 78t131 54.5t137.5 20.5q139 0 199.5 -94t60.5 -256v-801h-172v801q0 84 -20.5 131t-67.5 47q-80 0 -154 -27.5t-137.5 -69.5t-114.5 -88t-86 -83v-711h-172z" />
<glyph unicode="i" horiz-adv-x="555" d="M172 1473q0 45 29.5 74.5t77.5 29.5q45 0 74.5 -29.5t29.5 -74.5q0 -47 -29.5 -77t-74.5 -30q-47 0 -77 30t-30 77zM193 0v1126h169v-1126h-169z" />
<glyph unicode="j" horiz-adv-x="450" d="M-74 -401q31 4 59.5 30.5t51 69.5t37 97t14.5 116v1214h170v-1214q0 -96 -26.5 -177t-67.5 -141.5t-90 -100.5t-97 -56zM68 1473q0 45 29.5 74.5t76.5 29.5q45 0 75 -29.5t30 -74.5q0 -47 -30 -77t-75 -30q-47 0 -76.5 30t-29.5 77z" />
<glyph unicode="k" horiz-adv-x="1132" d="M172 0v1679h172v-950q4 4 35 24.5t75 52.5t95 73t99 84t87 85t58 78h174q-12 -43 -61.5 -102t-118 -121.5t-145.5 -124t-142 -110.5q29 -10 57.5 -30t56.5 -50q33 -39 85.5 -98.5t110.5 -125t117.5 -130t109.5 -116.5t85 -85t43 -33h-231q-14 4 -44 31.5t-69 69.5 t-84 93.5t-89 102.5t-85 98t-71 82q-31 33 -53.5 50.5t-45.5 23.5q-12 4 -27.5 2t-21.5 -4v-549h-172z" />
<glyph unicode="l" horiz-adv-x="569" d="M172 299v1380h170v-1380q0 -35 3 -75t24 -60q43 -43 131 -43l-6 -146q-25 0 -58 2.5t-67.5 9.5t-67.5 20t-57 38q-27 27 -41.5 59.5t-21.5 66.5t-8 66.5t-1 61.5z" />
<glyph unicode="m" horiz-adv-x="1857" d="M172 0v1126h172v-202q39 43 86 84t100.5 72.5t112.5 51t127 19.5q117 0 177.5 -56.5t76.5 -176.5q39 45 87 87t101.5 74.5t115 52t128.5 19.5q139 0 199.5 -94t60.5 -256v-801h-172v801q0 84 -20.5 131t-67.5 47q-78 0 -143.5 -27.5t-117.5 -67.5t-93 -86t-72 -83v-715 h-172v801q0 84 -20.5 131t-67.5 47q-74 0 -137.5 -27.5t-117.5 -67.5t-97 -86t-74 -83v-715h-172z" />
<glyph unicode="n" horiz-adv-x="1236" d="M172 0v1126h172v-217q47 45 103.5 89t120 78t131 54.5t137.5 20.5q139 0 199.5 -94t60.5 -256v-801h-172v801q0 84 -20.5 131t-67.5 47q-78 0 -149 -26.5t-133 -66.5t-115.5 -87t-94.5 -88v-711h-172z" />
<glyph unicode="o" horiz-adv-x="1200" d="M111 563q0 162 42 273.5t110.5 181t156.5 101.5t180 32t180 -32t157 -101.5t111 -182t42 -272.5q0 -164 -42 -275.5t-111 -181t-157 -100.5t-180 -31t-180 30t-156.5 98.5t-110.5 181t-42 278.5zM283 563q0 -121 27.5 -207t72.5 -139t101.5 -77.5t115.5 -24.5 q57 0 114.5 23.5t102.5 76.5t73 139t28 209q0 119 -28 204t-73 138t-102.5 79t-114.5 26q-59 0 -115.5 -23.5t-101.5 -77t-72.5 -138.5t-27.5 -208z" />
<glyph unicode="p" horiz-adv-x="1273" d="M172 -532v1658h168v-188q35 45 79 84t96 67.5t112.5 45t130.5 16.5q94 0 168.5 -48t127 -126t81 -181.5t28.5 -213.5q0 -289 -126 -448t-347 -159q-78 0 -171 43t-179 113v-663h-168zM340 319q37 -37 82 -69.5t91 -56t91 -37t86 -13.5q137 0 219 115t82 324 q0 78 -16.5 149.5t-47 127.5t-73.5 90t-96 34q-80 0 -146.5 -26.5t-119 -67.5t-90 -87t-62.5 -85v-398z" />
<glyph unicode="q" horiz-adv-x="1277" d="M111 545q0 289 125.5 447.5t347.5 158.5q76 0 170 -33t180 -102v110h172v-1658h-172v747q-35 -43 -79 -87t-96 -78t-113.5 -54.5t-129.5 -20.5q-94 0 -169 48.5t-127 126t-80.5 181t-28.5 214.5zM283 545q0 -78 16 -150.5t47 -130t74 -92.5t96 -35h10q74 0 136 29 q65 31 117 77t91 97t64 90v377q-39 37 -83 70.5t-90 58.5t-92 40t-85 15q-137 0 -219 -118.5t-82 -327.5z" />
<glyph unicode="r" horiz-adv-x="892" d="M172 0v1126h172v-153q53 92 126 135t159 43q66 0 117 -17.5t85 -39.5q39 -25 70 -56l-119 -114q-14 16 -37 30q-18 12 -45.5 22.5t-62.5 10.5q-49 0 -93 -26.5t-81 -67.5t-66.5 -91t-52.5 -97v-705h-172z" />
<glyph unicode="s" horiz-adv-x="1028" d="M90 205l119 96q47 -86 137 -133t189 -49q43 0 82.5 11t70.5 34.5t50.5 59.5t19.5 85q0 43 -22.5 75t-59.5 54.5t-82 38t-90 29.5q-66 18 -128.5 41.5t-113.5 59.5t-81.5 89.5t-30.5 132.5q0 102 40.5 166t97 98.5t118 46t102.5 11.5q111 0 203 -36t151 -95l-110 -107 q-41 43 -104.5 69t-139.5 26q-23 0 -54.5 -6.5t-61.5 -26t-51.5 -54.5t-21.5 -92q0 -37 19.5 -62.5t52.5 -43.5t75 -32.5t87 -28.5q68 -20 135.5 -44t120.5 -63t86 -97.5t33 -148.5q0 -86 -34 -148.5t-90 -103.5t-128 -61.5t-146 -20.5q-61 0 -124.5 14.5t-122 43 t-107.5 71.5t-86 101z" />
<glyph unicode="t" horiz-adv-x="815" d="M90 987v143h143v406h173v-406h270v-143h-270v-659q0 -29 2 -64t11 -65.5t30.5 -52t62.5 -21.5q51 0 91 21.5t79 58.5l104 -101q-68 -72 -144.5 -100.5t-174.5 -28.5q-129 0 -181.5 96.5t-52.5 256.5v659h-143z" />
<glyph unicode="u" horiz-adv-x="1236" d="M141 326v800h172v-800q0 -84 20.5 -134.5t67.5 -50.5q76 0 146.5 27t134 67.5t117 88t94.5 90.5v712h172v-1126h-172v199q-47 -45 -104.5 -86t-121 -72t-131 -48.5t-135.5 -17.5q-139 0 -199.5 93.5t-60.5 257.5z" />
<glyph unicode="v" horiz-adv-x="1069" d="M31 1126h198l293 -870l6 -39q0 -4 1 1t2 12.5t2.5 15.5t1.5 10q35 131 81 276.5t93 270.5t87 214t62 109h186q-31 -33 -64.5 -98t-70.5 -150t-72.5 -183.5t-68.5 -196.5q-78 -229 -158 -498h-149z" />
<glyph unicode="w" horiz-adv-x="1591" d="M51 1126h187l223 -839l6 -43l6 43l240 839h147l240 -839l8 -43l6 43q20 78 45 168t50.5 182t50 178t46 153.5t39 109.5t27.5 48h168q-10 -10 -31.5 -64t-48 -135t-57.5 -181.5t-62 -202.5q-72 -242 -157 -543h-146l-252 868l-247 -868h-162z" />
<glyph unicode="x" horiz-adv-x="1191" d="M70 0q10 4 42.5 42t74.5 93t91.5 121t94.5 128t80.5 113.5t54.5 77.5l-397 551h217l278 -407q37 53 85 122.5t93 132t80 105.5t45 47h213q-10 -4 -38.5 -37.5t-67.5 -83t-83 -109.5t-87 -118.5t-81 -112t-63 -87.5l410 -578h-217l-291 434q-35 -49 -85 -122.5t-99 -141.5 t-88 -118t-49 -52h-213z" />
<glyph unicode="y" horiz-adv-x="1050" d="M-10 -414q94 6 139 31t78 57q18 18 35.5 39t36 53.5t41 80t51.5 118.5l55 137l-393 1024h182l305 -790q53 129 109.5 264t105.5 248t86 189.5t51 88.5h195q-14 -14 -28.5 -32.5t-37 -61.5t-56.5 -118.5t-88 -205.5t-134 -321.5t-191 -466.5q-39 -96 -85 -189t-123 -169 q-84 -80 -161 -101.5t-130 -23.5z" />
<glyph unicode="z" horiz-adv-x="1056" d="M100 0v145l635 838h-635v143h842v-143l-635 -838h524q31 0 60 5q25 4 49.5 10t36.5 20v-145q-10 -12 -34.5 -18.5t-49.5 -10.5q-29 -4 -64 -6h-729z" />
<glyph unicode="{" horiz-adv-x="958" d="M162 526v103q74 0 113.5 22.5t58.5 50.5q23 33 24 76v611q0 39 8.5 92t32 102t66.5 83t115 34q51 0 94 -11.5t76 -23.5q37 -14 67 -33l-57 -143q-20 10 -45 18q-23 8 -55.5 14.5t-79.5 6.5q-16 0 -25.5 -15.5t-14.5 -37t-7.5 -45t-2.5 -41.5v-613q0 -2 -3 -23.5t-15 -51 t-39 -63.5t-74 -60q49 -27 76 -61t39 -63.5t14 -51t2 -23.5v-612q0 -18 2.5 -42t7.5 -45.5t14 -37t26 -15.5q47 0 79.5 5.5t55.5 13.5q25 8 45 20l57 -143q-31 -20 -67 -35q-33 -12 -76 -22.5t-94 -10.5q-72 0 -115 34t-66.5 83t-32 102.5t-8.5 92.5v610q-2 41 -24 74 q-18 29 -58 52t-114 23z" />
<glyph unicode="|" horiz-adv-x="499" d="M172 -532v2232h156v-2232h-156z" />
<glyph unicode="}" horiz-adv-x="958" d="M141 -477l58 143q16 -12 43 -20q23 -8 56.5 -13.5t80.5 -5.5q14 0 24.5 15.5t15.5 37t7 45t2 42.5v610q2 35 16 72q12 31 39 65.5t74 63.5q-47 27 -73.5 60.5t-39 63t-14.5 50t-2 24.5v613q0 18 -2 41.5t-7 45t-15.5 37t-24.5 15.5q-47 0 -81 -6t-56 -15q-27 -8 -43 -18 l-58 143q31 18 68 33q33 12 76 23.5t94 11.5q70 0 114 -34t67.5 -83t31.5 -102.5t8 -91.5v-611q2 -43 25 -76q18 -29 57 -51t115 -22v-103q-72 0 -112 -21.5t-58.5 -48t-22.5 -50t-4 -27.5v-612q0 -39 -8 -92.5t-31.5 -102.5t-67.5 -83t-114 -34q-51 0 -94 10.5t-76 22.5 q-37 14 -68 35z" />
<glyph unicode="~" horiz-adv-x="1331" d="M111 715q27 23 67 45q35 18 89.5 34.5t131.5 26.5q55 6 123 -6t140 -31q63 -14 135.5 -26.5t130.5 -5.5q59 6 102 18t72 25q33 14 53 30l66 -114q-31 -23 -72 -43q-35 -16 -87 -33t-118 -23q-70 -8 -146.5 5.5t-154.5 31.5q-61 16 -120.5 25.5t-106.5 5.5 q-66 -8 -111 -19.5t-72 -23.5q-33 -14 -49 -31z" />
<glyph unicode="&#xa1;" horiz-adv-x="598" d="M172 1028q0 55 36 92t89 37q55 0 92 -37t37 -92q0 -53 -37 -89t-92 -36q-53 0 -89 36t-36 89zM199 -536l26 1302h150l26 -1302h-202z" />
<glyph unicode="&#xa2;" horiz-adv-x="1040" d="M111 543q0 160 45 274.5t114.5 188t155.5 109.5t168 36q12 0 24.5 -1t22.5 -3l51 194h119l-59 -221q47 -20 82.5 -45.5t58.5 -48.5q27 -27 47 -55l-109 -103q-12 18 -28 37q-16 16 -38 33.5t-52 32.5l-217 -830q37 -14 84 -14q31 0 60.5 4t61 17.5t69.5 39t83 68.5 l107 -102q-61 -61 -113.5 -97.5t-99 -54.5t-88.5 -22.5t-80 -4.5q-61 0 -123 17l-45 -176h-119l57 223q-113 70 -176 203t-63 301zM283 543q0 -102 29.5 -188.5t82.5 -145.5l207 788h-12q-53 0 -107.5 -27.5t-99.5 -84t-72.5 -142t-27.5 -200.5z" />
<glyph unicode="&#xa3;" horiz-adv-x="1206" d="M53 51q25 45 60 84q29 35 69.5 66.5t93.5 48.5l56 295h-148v143h176q20 106 43 216t43.5 209t39 182t30.5 135q20 80 61 130t87.5 78.5t90.5 40t72 11.5q47 0 85 -13.5t73 -37t70 -57.5t73 -75l-110 -90q-55 59 -97 94t-94 35q-12 0 -32.5 -6t-42 -23.5t-41 -47 t-31.5 -76.5t-28.5 -124t-36 -171t-41 -199.5t-42.5 -210.5h299v-143h-327l-58 -299q41 -10 81 -26.5t77 -33.5q49 -23 99.5 -41t99.5 -18q35 0 70.5 19.5t66.5 41.5q37 27 70 62l102 -103q-47 -49 -100 -86q-45 -33 -99.5 -59.5t-109.5 -26.5q-74 0 -137.5 21.5 t-122.5 50.5q-51 23 -102.5 42.5t-100.5 19.5q-35 0 -63.5 -20.5t-51.5 -43.5q-25 -29 -45 -63z" />
<glyph unicode="&#xa5;" horiz-adv-x="1259" d="M18 1577h211l404 -633l405 633h203l-487 -768h338v-137h-371v-191h371v-137h-371v-344h-178v344h-375v137h375v191h-375v137h340z" />
<glyph unicode="&#xa8;" horiz-adv-x="884" d="M131 1356q0 45 29.5 74.5t77.5 29.5q45 0 74.5 -29.5t29.5 -74.5q0 -47 -29.5 -77t-74.5 -30q-47 0 -77 30t-30 77zM543 1356q0 45 30.5 74.5t75.5 29.5q47 0 76 -29.5t29 -74.5q0 -47 -29 -77t-76 -30q-45 0 -75.5 30t-30.5 77z" />
<glyph unicode="&#xa9;" horiz-adv-x="1800" d="M111 788q0 164 62.5 308.5t170 252t250.5 169t307 61.5t307.5 -61.5t251 -169t169 -252t61.5 -308.5t-61.5 -307t-169 -250.5t-251 -169t-307.5 -61.5t-307 61.5t-250.5 169t-170 250.5t-62.5 307zM229 788q0 -137 53.5 -258.5t144.5 -213t213 -144.5t261 -53 q137 0 259 53t213 144.5t144.5 213t53.5 258.5t-53.5 260t-144.5 213.5t-213 143.5t-259 53q-139 0 -261 -53t-213 -143.5t-144.5 -213.5t-53.5 -260zM551 772q0 117 33.5 201t86 139t115 82t121.5 27q66 0 114 -22.5t81 -49.5q37 -31 65 -70l-92 -88q-18 25 -43 47 q-23 18 -54.5 33.5t-74.5 15.5q-35 0 -71.5 -18t-66.5 -57t-49.5 -98.5t-19.5 -141.5q0 -57 14.5 -108.5t41 -91.5t63.5 -63.5t82 -23.5q20 0 42 3.5t45.5 13.5t50 28.5t61.5 51.5l86 -86q-47 -49 -86 -77t-74 -41t-65.5 -17.5t-59.5 -4.5q-78 0 -141.5 32t-109.5 88 t-70.5 132t-24.5 164z" />
<glyph unicode="&#xad;" horiz-adv-x="704" d="M111 492v143h483v-143h-483z" />
<glyph unicode="&#xae;" horiz-adv-x="1800" d="M111 788q0 164 62.5 308.5t170 252t250.5 169t307 61.5t307.5 -61.5t251 -169t169 -252t61.5 -308.5t-61.5 -307t-169 -250.5t-251 -169t-307.5 -61.5t-307 61.5t-250.5 169t-170 250.5t-62.5 307zM229 788q0 -137 53.5 -258.5t144.5 -213t213 -144.5t261 -53 q137 0 259 53t213 144.5t144.5 213t53.5 258.5t-53.5 260t-144.5 213.5t-213 143.5t-259 53q-139 0 -261 -53t-213 -143.5t-144.5 -213.5t-53.5 -260zM598 365v852h127v-29q47 27 95 34t102 7q43 -2 88 -15.5t81.5 -43t61.5 -75.5t25 -114q0 -63 -15.5 -108.5t-42 -76 t-60.5 -49t-71 -28.5q31 -29 67 -72t64 -82q37 -51 81 -102t110 -98h-174q-35 25 -68 65.5t-63 85.5q-43 59 -97.5 114.5t-101.5 76.5h-82v-342h-127zM725 809h166q27 0 54.5 8t51 26.5t40 51.5t16.5 86q0 72 -41 103.5t-90 31.5q-55 4 -103.5 -7t-93.5 -38v-262z" />
<glyph unicode="&#xb4;" horiz-adv-x="702" d="M111 1249l268 299h213l-340 -299h-141z" />
<glyph unicode="&#xb6;" horiz-adv-x="1499" d="M100 1020q0 115 40 216t113 177t175 120t227 44h682v-117h-153v-1972h-117v1972h-141v-1972h-117v1081q-43 -31 -92 -53q-41 -20 -94.5 -35.5t-110.5 -15.5q-84 0 -158.5 40t-131 112.5t-89.5 175t-33 227.5z" />
<glyph unicode="&#xb7;" horiz-adv-x="501" d="M131 563q0 51 35 84t88 33q51 0 84 -33t33 -84q0 -53 -33 -88t-84 -35q-53 0 -88 35t-35 88z" />
<glyph unicode="&#xb8;" horiz-adv-x="665" d="M131 -336l57 74q16 -16 49 -39t80 -23t66.5 22.5t19.5 49.5q0 43 -33.5 63.5t-93.5 22.5h-38l96 166h108l-51 -106q63 -10 103.5 -42t40.5 -104q0 -63 -50.5 -114.5t-167.5 -51.5q-37 0 -66.5 9.5t-53 22.5t-40 26.5t-26.5 23.5z" />
<glyph unicode="&#xbf;" horiz-adv-x="1028" d="M76 -179q0 84 28.5 154t73.5 129t100.5 112.5t110.5 102.5q68 61 116 115.5t48 97.5q0 49 -28 83t-81 81l119 98q33 -29 59.5 -56.5t46 -57t30.5 -66.5t11 -84q0 -98 -60 -175t-153 -159q-43 -39 -87 -83t-78.5 -91t-58 -97.5t-25.5 -103.5q0 -31 7 -69.5t32.5 -73.5 t77 -58.5t137.5 -23.5q80 0 142 38t107 85q53 53 91 123l108 -103q-49 -80 -117 -143q-57 -53 -140 -98t-191 -45q-137 0 -221.5 38.5t-129.5 95t-60 120t-15 114.5zM407 1032q0 49 32 81.5t81 32.5t82 -32.5t33 -81.5t-33 -81t-82 -32t-81 31.5t-32 81.5z" />
<glyph unicode="&#xc0;" horiz-adv-x="1449" d="M49 0l582 1577h188l582 -1577h-191l-198 537h-576l-196 -537h-191zM299 1978h213l268 -299h-141zM494 692h460l-217 586q-4 14 -6 31q-6 26 -6 67q-2 -29 -6 -55.5t-8 -42.5z" />
<glyph unicode="&#xc1;" horiz-adv-x="1449" d="M49 0l582 1577h188l582 -1577h-191l-198 537h-576l-196 -537h-191zM494 692h460l-217 586q-4 14 -6 31q-6 26 -6 67q-2 -29 -6 -55.5t-8 -42.5zM668 1679l268 299h213l-340 -299h-141z" />
<glyph unicode="&#xc2;" horiz-adv-x="1449" d="M49 0l582 1577h188l582 -1577h-191l-198 537h-576l-196 -537h-191zM338 1679l319 299h135l320 -299h-186l-201 195l-201 -195h-186zM494 692h460l-217 586q-4 14 -6 31q-6 26 -6 67q-2 -29 -6 -55.5t-8 -42.5z" />
<glyph unicode="&#xc3;" horiz-adv-x="1449" d="M49 0l582 1577h188l582 -1577h-191l-198 537h-576l-196 -537h-191zM305 1810q25 29 57 52q29 20 70 36.5t94 20.5q45 4 99.5 -12.5t109.5 -36.5q47 -16 95.5 -32.5t86.5 -14.5q45 2 77 14t54 27q25 16 44 36l51 -102q-25 -29 -58 -51q-29 -20 -69.5 -36.5t-93.5 -20.5 q-45 -4 -99.5 12t-109.5 37q-47 16 -95.5 32.5t-87.5 14.5q-45 -4 -76.5 -15.5t-54.5 -25.5q-25 -16 -43 -37zM494 692h460l-217 586q-4 14 -6 31q-6 26 -6 67q-2 -29 -6 -55.5t-8 -42.5z" />
<glyph unicode="&#xc4;" horiz-adv-x="1449" d="M49 0l582 1577h188l582 -1577h-191l-198 537h-576l-196 -537h-191zM414 1796q0 45 29.5 74.5t77.5 29.5q45 0 74.5 -29.5t29.5 -74.5q0 -47 -29.5 -77t-74.5 -30q-47 0 -77 30t-30 77zM494 692h460l-217 586q-4 14 -6 31q-6 26 -6 67q-2 -29 -6 -55.5t-8 -42.5zM826 1796 q0 45 30.5 74.5t75.5 29.5q47 0 76 -29.5t29 -74.5q0 -47 -29 -77t-76 -30q-45 0 -75.5 30t-30.5 77z" />
<glyph unicode="&#xc5;" horiz-adv-x="1449" d="M49 0l582 1577h188l582 -1577h-191l-198 537h-576l-196 -537h-191zM494 692h460l-217 586q-4 14 -6 31q-6 26 -6 67q-2 -29 -6 -55.5t-8 -42.5zM530 1870q0 -82 57.5 -139t139.5 -57q39 0 73.5 15t60 42t40 62.5t14.5 76.5q0 39 -14.5 74t-40 60.5t-60 40t-73.5 14.5 q-41 0 -77 -14.5t-62.5 -40t-42 -60.5t-15.5 -74q0 39 15.5 74t42 60.5t62.5 40t77 14.5q39 0 73.5 -14.5t60 -40t40 -60.5t14.5 -74q0 -41 -14.5 -76.5t-40 -62.5t-60 -42t-73.5 -15q-82 0 -139.5 57t-57.5 139q0 39 15.5 74t42 60.5t62.5 40t77 14.5q39 0 73.5 -14.5 t60 -40t40 -60.5t14.5 -74q0 -41 -14.5 -76.5t-40 -62.5t-60 -42t-73.5 -15q-82 0 -139.5 57t-57.5 139zM628 1870q0 -41 29 -69.5t70 -28.5q35 0 63.5 28.5t28.5 69.5q0 35 -29 63.5t-63 28.5q-41 0 -70 -28.5t-29 -63.5z" />
<glyph unicode="&#xc6;" horiz-adv-x="2002" d="M49 0l871 1577h759q49 0 89 1t69 3q33 2 57 6v-164h-686v-528h584v-156h-584v-583h500q49 0 89 1t69 3q33 2 57 6v-166h-895v537h-481l-299 -537h-199zM633 692h395v707z" />
<glyph unicode="&#xc7;" horiz-adv-x="1314" d="M121 743q0 213 53 375t142.5 270.5t205 164t238.5 55.5q125 0 212 -34t140 -75q63 -47 102 -106l-118 -115q-31 43 -80 78q-41 29 -104.5 54.5t-153.5 25.5q-84 0 -166 -43t-145.5 -129t-102.5 -216t-39 -305q0 -129 36 -239.5t98.5 -192.5t144.5 -130t174 -50 q100 -2 175 25.5t126 62.5t77 65l25 29l113 -112q-25 -20 -61.5 -60.5t-97 -79t-149.5 -67.5t-218 -25q-135 4 -251 63.5t-199 162t-130 243t-47 305.5zM479 -336l57 74q16 -16 49 -39t80 -23t66.5 22.5t19.5 49.5q0 43 -33.5 63.5t-93.5 22.5h-38l96 166h108l-51 -106 q63 -10 103.5 -42t40.5 -104q0 -63 -50.5 -114.5t-167.5 -51.5q-37 0 -66.5 9.5t-53 22.5t-40 26.5t-26.5 23.5z" />
<glyph unicode="&#xc8;" horiz-adv-x="1146" d="M172 0v1577h651q49 0 89 1t69 3q33 2 57 6v-164h-686v-528h584v-156h-584v-583h500q49 0 89 1t69 3q33 2 57 6v-166h-895zM174 1978h213l268 -299h-141z" />
<glyph unicode="&#xc9;" horiz-adv-x="1146" d="M172 0v1577h651q49 0 89 1t69 3q33 2 57 6v-164h-686v-528h584v-156h-584v-583h500q49 0 89 1t69 3q33 2 57 6v-166h-895zM514 1679l268 299h213l-340 -299h-141z" />
<glyph unicode="&#xca;" horiz-adv-x="1146" d="M172 0v1577h651q49 0 89 1t69 3q33 2 57 6v-164h-686v-528h584v-156h-584v-583h500q49 0 89 1t69 3q33 2 57 6v-166h-895zM184 1679l319 299h135l320 -299h-186l-201 195l-201 -195h-186z" />
<glyph unicode="&#xcb;" horiz-adv-x="1146" d="M172 0v1577h651q49 0 89 1t69 3q33 2 57 6v-164h-686v-528h584v-156h-584v-583h500q49 0 89 1t69 3q33 2 57 6v-166h-895zM260 1796q0 45 29.5 74.5t77.5 29.5q45 0 74.5 -29.5t29.5 -74.5q0 -47 -29.5 -77t-74.5 -30q-47 0 -77 30t-30 77zM672 1796q0 45 30.5 74.5 t75.5 29.5q47 0 76 -29.5t29 -74.5q0 -47 -29 -77t-76 -30q-45 0 -75.5 30t-30.5 77z" />
<glyph unicode="&#xcc;" horiz-adv-x="514" d="M-125 1978h213l268 -299h-141zM168 0v1577h180v-1577h-180z" />
<glyph unicode="&#xcd;" horiz-adv-x="514" d="M160 1679l268 299h213l-340 -299h-141zM168 0v1577h180v-1577h-180z" />
<glyph unicode="&#xce;" horiz-adv-x="589" d="M-90 1679l319 299h135l320 -299h-186l-201 195l-201 -195h-186zM205 0v1577h180v-1577h-180z" />
<glyph unicode="&#xcf;" horiz-adv-x="512" d="M-53 1796q0 45 29.5 74.5t77.5 29.5q45 0 74.5 -29.5t29.5 -74.5q0 -47 -29.5 -77t-74.5 -30q-47 0 -77 30t-30 77zM168 0v1577h180v-1577h-180zM359 1796q0 45 30.5 74.5t75.5 29.5q47 0 76 -29.5t29 -74.5q0 -47 -29 -77t-76 -30q-45 0 -75.5 30t-30.5 77z" />
<glyph unicode="&#xd0;" horiz-adv-x="1587" d="M141 752v143h160v655q74 8 132.5 15.5t107.5 12.5t93 7t91 2q141 0 275.5 -29.5t237.5 -116.5t165.5 -246t62.5 -417q0 -186 -47 -330.5t-132 -244t-203.5 -151.5t-260.5 -52h-522v752h-160zM481 156h342q98 0 183.5 43t148 122.5t97 195.5t34.5 261t-25.5 266t-89 207 t-171 134.5t-271.5 48.5q-100 0 -162.5 -9.5t-85.5 -13.5v-516h369v-143h-369v-596z" />
<glyph unicode="&#xd1;" horiz-adv-x="1478" d="M172 0v1577h180v-2l762 -1239l14 -29l-2 29v1241h181v-1577h-181v2l-761 1243l-15 29l2 -29v-1245h-180zM319 1810q25 29 57 52q29 20 70 36.5t94 20.5q45 4 99.5 -12.5t109.5 -36.5q47 -16 95.5 -32.5t86.5 -14.5q45 2 77 14t54 27q25 16 44 36l51 -102q-25 -29 -58 -51 q-29 -20 -69.5 -36.5t-93.5 -20.5q-45 -4 -99.5 12t-109.5 37q-47 16 -95.5 32.5t-87.5 14.5q-45 -4 -76.5 -15.5t-54.5 -25.5q-25 -16 -43 -37z" />
<glyph unicode="&#xd2;" d="M121 786q0 240 59.5 398.5t153.5 253t211.5 132.5t232.5 38q113 0 227.5 -39t208 -132.5t152.5 -251t59 -394.5q0 -242 -56 -401t-148.5 -252t-210 -131t-238.5 -38q-113 0 -228.5 37t-209.5 130t-153.5 251t-59.5 399zM301 791q0 -190 44 -318.5t113.5 -205.5 t152.5 -109.5t161 -32.5q84 0 168 31.5t151.5 108.5t110.5 204t43 317q0 186 -42 314.5t-109.5 207t-150.5 112.5t-165 34q-80 0 -165 -32.5t-153.5 -110.5t-113.5 -205t-45 -315zM373 1978h213l268 -299h-141z" />
<glyph unicode="&#xd3;" d="M121 786q0 240 59.5 398.5t153.5 253t211.5 132.5t232.5 38q113 0 227.5 -39t208 -132.5t152.5 -251t59 -394.5q0 -242 -56 -401t-148.5 -252t-210 -131t-238.5 -38q-113 0 -228.5 37t-209.5 130t-153.5 251t-59.5 399zM301 791q0 -190 44 -318.5t113.5 -205.5 t152.5 -109.5t161 -32.5q84 0 168 31.5t151.5 108.5t110.5 204t43 317q0 186 -42 314.5t-109.5 207t-150.5 112.5t-165 34q-80 0 -165 -32.5t-153.5 -110.5t-113.5 -205t-45 -315zM701 1679l268 299h213l-340 -299h-141z" />
<glyph unicode="&#xd4;" d="M121 786q0 240 59.5 398.5t153.5 253t211.5 132.5t232.5 38q113 0 227.5 -39t208 -132.5t152.5 -251t59 -394.5q0 -242 -56 -401t-148.5 -252t-210 -131t-238.5 -38q-113 0 -228.5 37t-209.5 130t-153.5 251t-59.5 399zM301 791q0 -190 44 -318.5t113.5 -205.5 t152.5 -109.5t161 -32.5q84 0 168 31.5t151.5 108.5t110.5 204t43 317q0 186 -42 314.5t-109.5 207t-150.5 112.5t-165 34q-80 0 -165 -32.5t-153.5 -110.5t-113.5 -205t-45 -315zM389 1679l319 299h135l320 -299h-186l-201 195l-201 -195h-186z" />
<glyph unicode="&#xd5;" d="M121 786q0 240 59.5 398.5t153.5 253t211.5 132.5t232.5 38q113 0 227.5 -39t208 -132.5t152.5 -251t59 -394.5q0 -242 -56 -401t-148.5 -252t-210 -131t-238.5 -38q-113 0 -228.5 37t-209.5 130t-153.5 251t-59.5 399zM301 791q0 -190 44 -318.5t113.5 -205.5 t152.5 -109.5t161 -32.5q84 0 168 31.5t151.5 108.5t110.5 204t43 317q0 186 -42 314.5t-109.5 207t-150.5 112.5t-165 34q-80 0 -165 -32.5t-153.5 -110.5t-113.5 -205t-45 -315zM358 1810q25 29 57 52q29 20 70 36.5t94 20.5q45 4 99.5 -12.5t109.5 -36.5 q47 -16 95.5 -32.5t86.5 -14.5q45 2 77 14t54 27q25 16 44 36l51 -102q-25 -29 -58 -51q-29 -20 -69.5 -36.5t-93.5 -20.5q-45 -4 -99.5 12t-109.5 37q-47 16 -95.5 32.5t-87.5 14.5q-45 -4 -76.5 -15.5t-54.5 -25.5q-25 -16 -43 -37z" />
<glyph unicode="&#xd6;" d="M121 786q0 240 59.5 398.5t153.5 253t211.5 132.5t232.5 38q113 0 227.5 -39t208 -132.5t152.5 -251t59 -394.5q0 -242 -56 -401t-148.5 -252t-210 -131t-238.5 -38q-113 0 -228.5 37t-209.5 130t-153.5 251t-59.5 399zM301 791q0 -190 44 -318.5t113.5 -205.5 t152.5 -109.5t161 -32.5q84 0 168 31.5t151.5 108.5t110.5 204t43 317q0 186 -42 314.5t-109.5 207t-150.5 112.5t-165 34q-80 0 -165 -32.5t-153.5 -110.5t-113.5 -205t-45 -315zM465 1796q0 45 29.5 74.5t77.5 29.5q45 0 74.5 -29.5t29.5 -74.5q0 -47 -29.5 -77t-74.5 -30 q-47 0 -77 30t-30 77zM877 1796q0 45 30.5 74.5t75.5 29.5q47 0 76 -29.5t29 -74.5q0 -47 -29 -77t-76 -30q-45 0 -75.5 30t-30.5 77z" />
<glyph unicode="&#xd8;" d="M121 786q0 240 59.5 398.5t153.5 253t211.5 132.5t232.5 38q74 0 150 -16.5t147 -53.5l58 111h159l-100 -193q102 -92 166.5 -253t66.5 -412q0 -242 -56 -401t-148.5 -252t-210 -131t-238.5 -38q-78 0 -155.5 16.5t-149.5 53.5l-57 -111h-160l98 193q-100 92 -163.5 253 t-63.5 412zM301 791q0 -178 38 -299t97 -199l563 1096q-53 35 -109.5 50t-111.5 15q-80 0 -165 -32.5t-153.5 -110.5t-113.5 -205t-45 -315zM545 193q55 -37 113.5 -52.5t113.5 -15.5q84 0 168 31.5t151.5 108.5t110.5 204t43 317q0 178 -38 301t-99 203z" />
<glyph unicode="&#xd9;" horiz-adv-x="1398" d="M172 489v1088h180v-1083q0 -119 38 -191t92.5 -109.5t114.5 -49t103 -11.5t102.5 12.5t113 51.5t92.5 108.5t39 183.5v1088h180v-1088q0 -115 -28 -197.5t-72 -140t-100 -92t-114.5 -53t-114 -25t-98.5 -6.5t-99 6.5t-114.5 26t-115 54t-100.5 92t-71.5 139.5t-27.5 196z M299 1978h213l268 -299h-141z" />
<glyph unicode="&#xda;" horiz-adv-x="1398" d="M172 489v1088h180v-1083q0 -119 38 -191t92.5 -109.5t114.5 -49t103 -11.5t102.5 12.5t113 51.5t92.5 108.5t39 183.5v1088h180v-1088q0 -115 -28 -197.5t-72 -140t-100 -92t-114.5 -53t-114 -25t-98.5 -6.5t-99 6.5t-114.5 26t-115 54t-100.5 92t-71.5 139.5t-27.5 196z M627 1679l268 299h213l-340 -299h-141z" />
<glyph unicode="&#xdb;" horiz-adv-x="1398" d="M172 489v1088h180v-1083q0 -119 38 -191t92.5 -109.5t114.5 -49t103 -11.5t102.5 12.5t113 51.5t92.5 108.5t39 183.5v1088h180v-1088q0 -115 -28 -197.5t-72 -140t-100 -92t-114.5 -53t-114 -25t-98.5 -6.5t-99 6.5t-114.5 26t-115 54t-100.5 92t-71.5 139.5t-27.5 196z M318 1679l319 299h135l320 -299h-186l-201 195l-201 -195h-186z" />
<glyph unicode="&#xdc;" horiz-adv-x="1398" d="M172 489v1088h180v-1083q0 -119 38 -191t92.5 -109.5t114.5 -49t103 -11.5t102.5 12.5t113 51.5t92.5 108.5t39 183.5v1088h180v-1088q0 -115 -28 -197.5t-72 -140t-100 -92t-114.5 -53t-114 -25t-98.5 -6.5t-99 6.5t-114.5 26t-115 54t-100.5 92t-71.5 139.5t-27.5 196z M393 1796q0 45 29.5 74.5t77.5 29.5q45 0 74.5 -29.5t29.5 -74.5q0 -47 -29.5 -77t-74.5 -30q-47 0 -77 30t-30 77zM805 1796q0 45 30.5 74.5t75.5 29.5q47 0 76 -29.5t29 -74.5q0 -47 -29 -77t-76 -30q-45 0 -75.5 30t-30.5 77z" />
<glyph unicode="&#xdd;" horiz-adv-x="1259" d="M18 1577h211l404 -633l405 633h203l-520 -821v-756h-178v756zM490 1700l268 299h213l-340 -299h-141z" />
<glyph unicode="&#xde;" horiz-adv-x="1284" d="M172 0v1577h180v-281q72 41 158 67t178 26q104 0 192.5 -38t151 -106.5t97 -164t34.5 -210.5q0 -297 -129 -447.5t-360 -150.5q-104 0 -181 32t-141 75v-379h-180zM352 569q72 -63 155 -98t175 -35q137 0 222 106.5t85 327.5q0 80 -24.5 145.5t-70.5 114t-113.5 75 t-151.5 26.5q-72 0 -141.5 -27.5t-135.5 -77.5v-557z" />
<glyph unicode="&#xdf;" horiz-adv-x="1331" d="M66 983v143h145v197q0 98 32.5 168t91 115t137.5 66.5t169 21.5q61 0 138 -17.5t142.5 -63.5t110.5 -124t45 -197q-2 -137 -48 -226t-118 -142q59 -18 113.5 -52t95.5 -85.5t65.5 -122t24.5 -160.5q0 -86 -18 -175t-75.5 -162t-164 -120t-282.5 -47q-29 0 -68 6t-74 19 v159q29 -8 68 -12t72 -4q113 0 185.5 27.5t113.5 73.5t56 106.5t15 128.5q0 104 -49 165.5t-123.5 93.5t-166 41t-175.5 7v147q53 2 120 16.5t125 51.5t97 101.5t39 168.5q-2 70 -30.5 117t-70.5 75t-86 39t-77 11q-111 0 -180.5 -49t-79.5 -166v-1323h-170v983h-145z" />
<glyph unicode="&#xe0;" horiz-adv-x="1150" d="M111 283q0 55 14 111.5t58 107.5t124 91t209 58q113 16 180.5 26.5t104.5 20.5v129q0 16 -3 44t-16.5 54.5t-39 46t-68.5 19.5t-93.5 -12t-100.5 -29.5t-96 -38t-81 -38t-45 -23.5l-33 -16l-11 22q-11 21 -23.5 46.5t-22.5 47t-10 23.5q27 14 83 45t129.5 59.5t157.5 51 t170 22.5q88 0 141.5 -36t83 -86t39 -106.5t9.5 -95.5v-606q0 -4 1 -18.5t11 -36t32.5 -45t65.5 -43.5l-110 -103q-74 29 -109 76t-49 101q-74 -78 -172 -127.5t-213 -49.5q-16 0 -68.5 8.5t-107.5 39t-98 92t-43 168.5zM197 1548h213l268 -299h-141zM279 283q0 -53 18 -85 t41.5 -49.5t47.5 -23.5t36 -6q53 -4 107.5 11t104.5 42t93 62.5t74 74.5v242q-47 -10 -106.5 -18.5t-159.5 -24.5q-84 -12 -134.5 -35.5t-78 -54.5t-35.5 -66t-8 -69z" />
<glyph unicode="&#xe1;" horiz-adv-x="1150" d="M111 283q0 55 14 111.5t58 107.5t124 91t209 58q113 16 180.5 26.5t104.5 20.5v129q0 16 -3 44t-16.5 54.5t-39 46t-68.5 19.5t-93.5 -12t-100.5 -29.5t-96 -38t-81 -38t-45 -23.5l-33 -16l-11 22q-11 21 -23.5 46.5t-22.5 47t-10 23.5q27 14 83 45t129.5 59.5t157.5 51 t170 22.5q88 0 141.5 -36t83 -86t39 -106.5t9.5 -95.5v-606q0 -4 1 -18.5t11 -36t32.5 -45t65.5 -43.5l-110 -103q-74 29 -109 76t-49 101q-74 -78 -172 -127.5t-213 -49.5q-16 0 -68.5 8.5t-107.5 39t-98 92t-43 168.5zM279 283q0 -53 18 -85t41.5 -49.5t47.5 -23.5t36 -6 q53 -4 107.5 11t104.5 42t93 62.5t74 74.5v242q-47 -10 -106.5 -18.5t-159.5 -24.5q-84 -12 -134.5 -35.5t-78 -54.5t-35.5 -66t-8 -69zM484 1249l268 299h213l-340 -299h-141z" />
<glyph unicode="&#xe2;" horiz-adv-x="1150" d="M111 283q0 55 14 111.5t58 107.5t124 91t209 58q113 16 180.5 26.5t104.5 20.5v129q0 16 -3 44t-16.5 54.5t-39 46t-68.5 19.5t-93.5 -12t-100.5 -29.5t-96 -38t-81 -38t-45 -23.5l-33 -16l-11 22q-11 21 -23.5 46.5t-22.5 47t-10 23.5q27 14 83 45t129.5 59.5t157.5 51 t170 22.5q88 0 141.5 -36t83 -86t39 -106.5t9.5 -95.5v-606q0 -4 1 -18.5t11 -36t32.5 -45t65.5 -43.5l-110 -103q-74 29 -109 76t-49 101q-74 -78 -172 -127.5t-213 -49.5q-16 0 -68.5 8.5t-107.5 39t-98 92t-43 168.5zM193 1249l319 299h135l320 -299h-186l-201 195 l-201 -195h-186zM279 283q0 -53 18 -85t41.5 -49.5t47.5 -23.5t36 -6q53 -4 107.5 11t104.5 42t93 62.5t74 74.5v242q-47 -10 -106.5 -18.5t-159.5 -24.5q-84 -12 -134.5 -35.5t-78 -54.5t-35.5 -66t-8 -69z" />
<glyph unicode="&#xe3;" horiz-adv-x="1150" d="M111 283q0 55 14 111.5t58 107.5t124 91t209 58q113 16 180.5 26.5t104.5 20.5v129q0 16 -3 44t-16.5 54.5t-39 46t-68.5 19.5t-93.5 -12t-100.5 -29.5t-96 -38t-81 -38t-45 -23.5l-33 -16l-11 22q-11 21 -23.5 46.5t-22.5 47t-10 23.5q27 14 83 45t129.5 59.5t157.5 51 t170 22.5q88 0 141.5 -36t83 -86t39 -106.5t9.5 -95.5v-606q0 -4 1 -18.5t11 -36t32.5 -45t65.5 -43.5l-110 -103q-74 29 -109 76t-49 101q-74 -78 -172 -127.5t-213 -49.5q-16 0 -68.5 8.5t-107.5 39t-98 92t-43 168.5zM162 1380q25 29 57 52q29 20 70 36.5t94 20.5 q45 4 99.5 -12.5t109.5 -36.5q47 -16 95.5 -32.5t86.5 -14.5q45 2 77 14t54 27q25 16 44 36l51 -102q-25 -29 -58 -51q-29 -20 -69.5 -36.5t-93.5 -20.5q-45 -4 -99.5 12t-109.5 37q-47 16 -95.5 32.5t-87.5 14.5q-45 -4 -76.5 -15.5t-54.5 -25.5q-25 -16 -43 -37zM279 283 q0 -53 18 -85t41.5 -49.5t47.5 -23.5t36 -6q53 -4 107.5 11t104.5 42t93 62.5t74 74.5v242q-47 -10 -106.5 -18.5t-159.5 -24.5q-84 -12 -134.5 -35.5t-78 -54.5t-35.5 -66t-8 -69z" />
<glyph unicode="&#xe4;" horiz-adv-x="1150" d="M111 283q0 55 14 111.5t58 107.5t124 91t209 58q113 16 180.5 26.5t104.5 20.5v129q0 16 -3 44t-16.5 54.5t-39 46t-68.5 19.5t-93.5 -12t-100.5 -29.5t-96 -38t-81 -38t-45 -23.5l-33 -16l-11 22q-11 21 -23.5 46.5t-22.5 47t-10 23.5q27 14 83 45t129.5 59.5t157.5 51 t170 22.5q88 0 141.5 -36t83 -86t39 -106.5t9.5 -95.5v-606q0 -4 1 -18.5t11 -36t32.5 -45t65.5 -43.5l-110 -103q-74 29 -109 76t-49 101q-74 -78 -172 -127.5t-213 -49.5q-16 0 -68.5 8.5t-107.5 39t-98 92t-43 168.5zM268 1356q0 45 29.5 74.5t77.5 29.5q45 0 74.5 -29.5 t29.5 -74.5q0 -47 -29.5 -77t-74.5 -30q-47 0 -77 30t-30 77zM279 283q0 -53 18 -85t41.5 -49.5t47.5 -23.5t36 -6q53 -4 107.5 11t104.5 42t93 62.5t74 74.5v242q-47 -10 -106.5 -18.5t-159.5 -24.5q-84 -12 -134.5 -35.5t-78 -54.5t-35.5 -66t-8 -69zM680 1356 q0 45 30.5 74.5t75.5 29.5q47 0 76 -29.5t29 -74.5q0 -47 -29 -77t-76 -30q-45 0 -75.5 30t-30.5 77z" />
<glyph unicode="&#xe5;" horiz-adv-x="1150" d="M111 283q0 55 14 111.5t58 107.5t124 91t209 58q113 16 180.5 26.5t104.5 20.5v129q0 16 -3 44t-16.5 54.5t-39 46t-68.5 19.5t-93.5 -12t-100.5 -29.5t-96 -38t-81 -38t-45 -23.5l-33 -16l-11 22q-11 21 -23.5 46.5t-22.5 47t-10 23.5q27 14 83 45t129.5 59.5t157.5 51 t170 22.5q88 0 141.5 -36t83 -86t39 -106.5t9.5 -95.5v-606q0 -4 1 -18.5t11 -36t32.5 -45t65.5 -43.5l-110 -103q-74 29 -109 76t-49 101q-74 -78 -172 -127.5t-213 -49.5q-16 0 -68.5 8.5t-107.5 39t-98 92t-43 168.5zM279 283q0 -53 18 -85t41.5 -49.5t47.5 -23.5t36 -6 q53 -4 107.5 11t104.5 42t93 62.5t74 74.5v242q-47 -10 -106.5 -18.5t-159.5 -24.5q-84 -12 -134.5 -35.5t-78 -54.5t-35.5 -66t-8 -69zM387 1419q0 -82 57.5 -139t139.5 -57q39 0 73.5 15t60 42t40 62.5t14.5 76.5q0 39 -14.5 74t-40 60.5t-60 40t-73.5 14.5 q-41 0 -77 -14.5t-62.5 -40t-42 -60.5t-15.5 -74q0 39 15.5 74t42 60.5t62.5 40t77 14.5q39 0 73.5 -14.5t60 -40t40 -60.5t14.5 -74q0 -41 -14.5 -76.5t-40 -62.5t-60 -42t-73.5 -15q-82 0 -139.5 57t-57.5 139q0 39 15.5 74t42 60.5t62.5 40t77 14.5q39 0 73.5 -14.5 t60 -40t40 -60.5t14.5 -74q0 -41 -14.5 -76.5t-40 -62.5t-60 -42t-73.5 -15q-82 0 -139.5 57t-57.5 139zM485 1419q0 -41 29 -69.5t70 -28.5q35 0 63.5 28.5t28.5 69.5q0 35 -29 63.5t-63 28.5q-41 0 -70 -28.5t-29 -63.5z" />
<glyph unicode="&#xe6;" horiz-adv-x="1835" d="M111 283q0 55 14 111.5t58 107.5t124 91t209 58q55 8 96 14.5t71 10.5t51.5 9t39.5 9v133q0 16 -3 44t-16.5 54.5t-39 46t-68.5 19.5t-93 -12t-100.5 -29.5t-96.5 -38t-80.5 -38t-56.5 -28.5l-21 -11l-11 22q-12 21 -24 46.5t-22.5 47t-10.5 23.5q27 14 83 45t130 59.5 t158 51t170 22.5q102 0 158.5 -47t82.5 -109q61 72 145.5 114t188.5 42t179 -32t125.5 -80t80 -107.5t46 -115.5t20.5 -100t4 -65v-80h-768q-4 -100 15.5 -182t60.5 -141.5t102.5 -92t142.5 -32.5q23 0 58 2t80 20.5t98 58.5t113 118l104 -101q-78 -96 -145.5 -146 t-126 -71.5t-104.5 -25t-77 -3.5q-141 0 -240.5 58.5t-160.5 156.5q-96 -109 -203.5 -162t-222.5 -53q-16 0 -68.5 8.5t-107.5 39t-98 92t-43 168.5zM279 283q0 -53 18 -85t41.5 -49.5t47.5 -23.5t36 -6q53 -4 107.5 11t104.5 42t93 62.5t74 74.5q-16 51 -21.5 113.5 t-5.5 122.5q-43 -8 -98 -16.5t-141 -20.5q-84 -12 -134.5 -35.5t-78 -54.5t-35.5 -66t-8 -69zM956 723h572q-6 43 -24.5 92t-51.5 91t-83 70t-122 28q-57 0 -103 -21.5t-82 -59.5t-62.5 -89.5t-43.5 -110.5z" />
<glyph unicode="&#xe7;" horiz-adv-x="1040" d="M111 543q0 160 45 274.5t114.5 188t155.5 109.5t168 36q86 0 151.5 -27.5t108.5 -62.5q51 -39 86 -90l-109 -103q-23 35 -57 64q-29 25 -74 45t-110 20q-53 0 -107.5 -27.5t-99.5 -84t-72.5 -142.5t-27.5 -200q0 -84 21.5 -160t59 -133t93 -90t123.5 -33q31 0 60.5 4 t61 17.5t69.5 39t83 68.5l107 -102q-61 -61 -113.5 -97.5t-99 -54.5t-88.5 -22.5t-80 -4.5q-106 0 -192.5 44t-148 120t-95 179.5t-33.5 224.5zM317 -336l57 74q16 -16 49 -39t80 -23t66.5 22.5t19.5 49.5q0 43 -33.5 63.5t-93.5 22.5h-38l96 166h108l-51 -106 q63 -10 103.5 -42t40.5 -104q0 -63 -50.5 -114.5t-167.5 -51.5q-37 0 -66.5 9.5t-53 22.5t-40 26.5t-26.5 23.5z" />
<glyph unicode="&#xe8;" horiz-adv-x="1181" d="M111 551q0 123 33.5 232.5t97 190.5t152.5 129t200 48q104 0 179 -32t125 -80t80 -107.5t46 -115.5t20.5 -100t4.5 -65v-80h-768q-4 -100 15 -182t60 -141.5t102.5 -92t143.5 -32.5q23 0 57.5 2t79.5 20.5t98.5 58.5t112.5 118l105 -101q-78 -96 -145.5 -146t-126 -71.5 t-104.5 -25t-77 -3.5q-123 0 -215 46.5t-153.5 125t-92 183t-30.5 221.5zM162 1548h213l268 -299h-141zM303 723h571q-6 43 -24.5 92t-51 91t-82.5 70t-122 28q-57 0 -103.5 -21.5t-82 -59.5t-62.5 -89.5t-43 -110.5z" />
<glyph unicode="&#xe9;" horiz-adv-x="1181" d="M111 551q0 123 33.5 232.5t97 190.5t152.5 129t200 48q104 0 179 -32t125 -80t80 -107.5t46 -115.5t20.5 -100t4.5 -65v-80h-768q-4 -100 15 -182t60 -141.5t102.5 -92t143.5 -32.5q23 0 57.5 2t79.5 20.5t98.5 58.5t112.5 118l105 -101q-78 -96 -145.5 -146t-126 -71.5 t-104.5 -25t-77 -3.5q-123 0 -215 46.5t-153.5 125t-92 183t-30.5 221.5zM303 723h571q-6 43 -24.5 92t-51 91t-82.5 70t-122 28q-57 0 -103.5 -21.5t-82 -59.5t-62.5 -89.5t-43 -110.5zM510 1249l268 299h213l-340 -299h-141z" />
<glyph unicode="&#xea;" horiz-adv-x="1181" d="M111 551q0 123 33.5 232.5t97 190.5t152.5 129t200 48q104 0 179 -32t125 -80t80 -107.5t46 -115.5t20.5 -100t4.5 -65v-80h-768q-4 -100 15 -182t60 -141.5t102.5 -92t143.5 -32.5q23 0 57.5 2t79.5 20.5t98.5 58.5t112.5 118l105 -101q-78 -96 -145.5 -146t-126 -71.5 t-104.5 -25t-77 -3.5q-123 0 -215 46.5t-153.5 125t-92 183t-30.5 221.5zM191 1249l319 299h135l320 -299h-186l-201 195l-201 -195h-186zM303 723h571q-6 43 -24.5 92t-51 91t-82.5 70t-122 28q-57 0 -103.5 -21.5t-82 -59.5t-62.5 -89.5t-43 -110.5z" />
<glyph unicode="&#xeb;" horiz-adv-x="1181" d="M111 551q0 123 33.5 232.5t97 190.5t152.5 129t200 48q104 0 179 -32t125 -80t80 -107.5t46 -115.5t20.5 -100t4.5 -65v-80h-768q-4 -100 15 -182t60 -141.5t102.5 -92t143.5 -32.5q23 0 57.5 2t79.5 20.5t98.5 58.5t112.5 118l105 -101q-78 -96 -145.5 -146t-126 -71.5 t-104.5 -25t-77 -3.5q-123 0 -215 46.5t-153.5 125t-92 183t-30.5 221.5zM266 1356q0 45 29.5 74.5t77.5 29.5q45 0 74.5 -29.5t29.5 -74.5q0 -47 -29.5 -77t-74.5 -30q-47 0 -77 30t-30 77zM303 723h571q-6 43 -24.5 92t-51 91t-82.5 70t-122 28q-57 0 -103.5 -21.5 t-82 -59.5t-62.5 -89.5t-43 -110.5zM678 1356q0 45 30.5 74.5t75.5 29.5q47 0 76 -29.5t29 -74.5q0 -47 -29 -77t-76 -30q-45 0 -75.5 30t-30.5 77z" />
<glyph unicode="&#xec;" horiz-adv-x="514" d="M-125 1548h213l268 -299h-141zM172 0v1126h170v-1126h-170z" />
<glyph unicode="&#xed;" horiz-adv-x="514" d="M160 1249l268 299h213l-340 -299h-141zM172 0v1126h170v-1126h-170z" />
<glyph unicode="&#xee;" horiz-adv-x="589" d="M-90 1249l319 299h135l320 -299h-186l-201 195l-201 -195h-186zM209 0v1126h170v-1126h-170z" />
<glyph unicode="&#xef;" horiz-adv-x="512" d="M-55 1356q0 45 29.5 74.5t76.5 29.5q45 0 75 -29.5t30 -74.5q0 -47 -30 -77t-75 -30q-47 0 -76.5 30t-29.5 77zM170 0v1126h170v-1126h-170zM356 1356q0 45 31 74.5t76 29.5q47 0 75.5 -29.5t28.5 -74.5q0 -47 -28.5 -77t-75.5 -30q-45 0 -76 30t-31 77z" />
<glyph unicode="&#xf0;" horiz-adv-x="1247" d="M111 496q0 123 33.5 228t94 182t146.5 120t190 43q199 0 367 -154q-12 74 -34.5 146t-56.5 135.5t-78 112.5t-101 80l-125 -193l-107 66l105 161q-8 2 -23 2q-88 0 -141 -24.5t-92 -48.5l-74 127q25 16 54.5 33.5t66.5 32t83 23.5t103 9q59 0 115 -12l68 104l106 -70 l-53 -81q96 -51 165.5 -139.5t115.5 -195t67.5 -222t21.5 -222.5q0 -180 -35.5 -320t-103 -237.5t-167 -147.5t-226.5 -50q-139 0 -231.5 53t-149.5 131t-80.5 167t-23.5 161zM283 496q0 -51 15 -114t52 -118t96.5 -92t149.5 -37q166 0 259 147.5t101 415.5 q-88 113 -182 166.5t-199 53.5q-66 0 -119 -32t-91.5 -89.5t-60 -134t-21.5 -166.5z" />
<glyph unicode="&#xf1;" horiz-adv-x="1236" d="M172 0v1126h172v-217q47 45 103.5 89t120 78t131 54.5t137.5 20.5q139 0 199.5 -94t60.5 -256v-801h-172v801q0 84 -20.5 131t-67.5 47q-78 0 -149 -26.5t-133 -66.5t-115.5 -87t-94.5 -88v-711h-172zM215 1380q25 29 57 52q29 20 70 36.5t94 20.5q45 4 99.5 -12.5 t109.5 -36.5q47 -16 95.5 -32.5t86.5 -14.5q45 2 77 14t54 27q25 16 44 36l51 -102q-25 -29 -58 -51q-29 -20 -69.5 -36.5t-93.5 -20.5q-45 -4 -99.5 12t-109.5 37q-47 16 -95.5 32.5t-87.5 14.5q-45 -4 -76.5 -15.5t-54.5 -25.5q-25 -16 -43 -37z" />
<glyph unicode="&#xf2;" horiz-adv-x="1200" d="M111 563q0 162 42 273.5t110.5 181t156.5 101.5t180 32t180 -32t157 -101.5t111 -182t42 -272.5q0 -164 -42 -275.5t-111 -181t-157 -100.5t-180 -31t-180 30t-156.5 98.5t-110.5 181t-42 278.5zM195 1548h213l268 -299h-141zM283 563q0 -121 27.5 -207t72.5 -139 t101.5 -77.5t115.5 -24.5q57 0 114.5 23.5t102.5 76.5t73 139t28 209q0 119 -28 204t-73 138t-102.5 79t-114.5 26q-59 0 -115.5 -23.5t-101.5 -77t-72.5 -138.5t-27.5 -208z" />
<glyph unicode="&#xf3;" horiz-adv-x="1200" d="M111 563q0 162 42 273.5t110.5 181t156.5 101.5t180 32t180 -32t157 -101.5t111 -182t42 -272.5q0 -164 -42 -275.5t-111 -181t-157 -100.5t-180 -31t-180 30t-156.5 98.5t-110.5 181t-42 278.5zM283 563q0 -121 27.5 -207t72.5 -139t101.5 -77.5t115.5 -24.5 q57 0 114.5 23.5t102.5 76.5t73 139t28 209q0 119 -28 204t-73 138t-102.5 79t-114.5 26q-59 0 -115.5 -23.5t-101.5 -77t-72.5 -138.5t-27.5 -208zM523 1249l268 299h213l-340 -299h-141z" />
<glyph unicode="&#xf4;" horiz-adv-x="1200" d="M111 563q0 162 42 273.5t110.5 181t156.5 101.5t180 32t180 -32t157 -101.5t111 -182t42 -272.5q0 -164 -42 -275.5t-111 -181t-157 -100.5t-180 -31t-180 30t-156.5 98.5t-110.5 181t-42 278.5zM211 1249l319 299h135l320 -299h-186l-201 195l-201 -195h-186zM283 563 q0 -121 27.5 -207t72.5 -139t101.5 -77.5t115.5 -24.5q57 0 114.5 23.5t102.5 76.5t73 139t28 209q0 119 -28 204t-73 138t-102.5 79t-114.5 26q-59 0 -115.5 -23.5t-101.5 -77t-72.5 -138.5t-27.5 -208z" />
<glyph unicode="&#xf5;" horiz-adv-x="1200" d="M111 563q0 162 42 273.5t110.5 181t156.5 101.5t180 32t180 -32t157 -101.5t111 -182t42 -272.5q0 -164 -42 -275.5t-111 -181t-157 -100.5t-180 -31t-180 30t-156.5 98.5t-110.5 181t-42 278.5zM180 1380q25 29 57 52q29 20 70 36.5t94 20.5q45 4 99.5 -12.5 t109.5 -36.5q47 -16 95.5 -32.5t86.5 -14.5q45 2 77 14t54 27q25 16 44 36l51 -102q-25 -29 -58 -51q-29 -20 -69.5 -36.5t-93.5 -20.5q-45 -4 -99.5 12t-109.5 37q-47 16 -95.5 32.5t-87.5 14.5q-45 -4 -76.5 -15.5t-54.5 -25.5q-25 -16 -43 -37zM283 563q0 -121 27.5 -207 t72.5 -139t101.5 -77.5t115.5 -24.5q57 0 114.5 23.5t102.5 76.5t73 139t28 209q0 119 -28 204t-73 138t-102.5 79t-114.5 26q-59 0 -115.5 -23.5t-101.5 -77t-72.5 -138.5t-27.5 -208z" />
<glyph unicode="&#xf6;" horiz-adv-x="1200" d="M111 563q0 162 42 273.5t110.5 181t156.5 101.5t180 32t180 -32t157 -101.5t111 -182t42 -272.5q0 -164 -42 -275.5t-111 -181t-157 -100.5t-180 -31t-180 30t-156.5 98.5t-110.5 181t-42 278.5zM283 563q0 -121 27.5 -207t72.5 -139t101.5 -77.5t115.5 -24.5 q57 0 114.5 23.5t102.5 76.5t73 139t28 209q0 119 -28 204t-73 138t-102.5 79t-114.5 26q-59 0 -115.5 -23.5t-101.5 -77t-72.5 -138.5t-27.5 -208zM287 1356q0 45 29.5 74.5t77.5 29.5q45 0 74.5 -29.5t29.5 -74.5q0 -47 -29.5 -77t-74.5 -30q-47 0 -77 30t-30 77z M699 1356q0 45 30.5 74.5t75.5 29.5q47 0 76 -29.5t29 -74.5q0 -47 -29 -77t-76 -30q-45 0 -75.5 30t-30.5 77z" />
<glyph unicode="&#xf8;" horiz-adv-x="1200" d="M111 563q0 162 42 273.5t110.5 181t156.5 101.5t180 32q106 0 199 -39l41 80h159l-81 -158q78 -70 125 -184.5t47 -286.5q0 -164 -42 -275.5t-111 -181t-157 -100.5t-180 -31q-111 0 -207 39l-41 -80h-159l79 158q-72 68 -116.5 182.5t-44.5 288.5zM283 563 q0 -104 19.5 -180t53.5 -129l373 723q-66 33 -129 33q-59 0 -115.5 -23.5t-101.5 -77t-72.5 -138.5t-27.5 -208zM463 150q61 -35 137 -35q57 0 114.5 23.5t102.5 76.5t73 139t28 209q0 104 -23 182t-57 132z" />
<glyph unicode="&#xf9;" horiz-adv-x="1236" d="M141 326v800h172v-800q0 -84 20.5 -134.5t67.5 -50.5q76 0 146.5 27t134 67.5t117 88t94.5 90.5v712h172v-1126h-172v199q-47 -45 -104.5 -86t-121 -72t-131 -48.5t-135.5 -17.5q-139 0 -199.5 93.5t-60.5 257.5zM199 1548h213l268 -299h-141z" />
<glyph unicode="&#xfa;" horiz-adv-x="1236" d="M141 326v800h172v-800q0 -84 20.5 -134.5t67.5 -50.5q76 0 146.5 27t134 67.5t117 88t94.5 90.5v712h172v-1126h-172v199q-47 -45 -104.5 -86t-121 -72t-131 -48.5t-135.5 -17.5q-139 0 -199.5 93.5t-60.5 257.5zM527 1249l268 299h213l-340 -299h-141z" />
<glyph unicode="&#xfb;" horiz-adv-x="1236" d="M141 326v800h172v-800q0 -84 20.5 -134.5t67.5 -50.5q76 0 146.5 27t134 67.5t117 88t94.5 90.5v712h172v-1126h-172v199q-47 -45 -104.5 -86t-121 -72t-131 -48.5t-135.5 -17.5q-139 0 -199.5 93.5t-60.5 257.5zM215 1249l319 299h135l320 -299h-186l-201 195l-201 -195 h-186z" />
<glyph unicode="&#xfc;" horiz-adv-x="1236" d="M141 326v800h172v-800q0 -84 20.5 -134.5t67.5 -50.5q76 0 146.5 27t134 67.5t117 88t94.5 90.5v712h172v-1126h-172v199q-47 -45 -104.5 -86t-121 -72t-131 -48.5t-135.5 -17.5q-139 0 -199.5 93.5t-60.5 257.5zM291 1356q0 45 29.5 74.5t77.5 29.5q45 0 74.5 -29.5 t29.5 -74.5q0 -47 -29.5 -77t-74.5 -30q-47 0 -77 30t-30 77zM703 1356q0 45 30.5 74.5t75.5 29.5q47 0 76 -29.5t29 -74.5q0 -47 -29 -77t-76 -30q-45 0 -75.5 30t-30.5 77z" />
<glyph unicode="&#xfd;" horiz-adv-x="1050" d="M-10 -414q94 6 139 31t78 57q18 18 35.5 39t36 53.5t41 80t51.5 118.5l55 137l-393 1024h182l305 -790q53 129 109.5 264t105.5 248t86 189.5t51 88.5h195q-14 -14 -28.5 -32.5t-37 -61.5t-56.5 -118.5t-88 -205.5t-134 -321.5t-191 -466.5q-39 -96 -85 -189t-123 -169 q-84 -80 -161 -101.5t-130 -23.5zM379 1249l268 299h213l-340 -299h-141z" />
<glyph unicode="&#xfe;" horiz-adv-x="1273" d="M172 -532v2109h168v-639q35 45 79 84t96 67.5t112.5 45t130.5 16.5q94 0 168.5 -48t127 -126t81 -181.5t28.5 -213.5q0 -289 -126 -448t-347 -159q-78 0 -171 43t-179 113v-663h-168zM340 319q37 -37 82 -69.5t91 -56t91 -37t86 -13.5q137 0 219 115t82 324 q0 78 -16.5 149.5t-47 127.5t-73.5 90t-96 34q-80 0 -146.5 -26.5t-119 -67.5t-90 -87t-62.5 -85v-398z" />
<glyph unicode="&#xff;" horiz-adv-x="1050" d="M-10 -414q94 6 139 31t78 57q18 18 35.5 39t36 53.5t41 80t51.5 118.5l55 137l-393 1024h182l305 -790q53 129 109.5 264t105.5 248t86 189.5t51 88.5h195q-14 -14 -28.5 -32.5t-37 -61.5t-56.5 -118.5t-88 -205.5t-134 -321.5t-191 -466.5q-39 -96 -85 -189t-123 -169 q-84 -80 -161 -101.5t-130 -23.5zM207 1356q0 45 29.5 74.5t77.5 29.5q45 0 74.5 -29.5t29.5 -74.5q0 -47 -29.5 -77t-74.5 -30q-47 0 -77 30t-30 77zM619 1356q0 45 30.5 74.5t75.5 29.5q47 0 76 -29.5t29 -74.5q0 -47 -29 -77t-76 -30q-45 0 -75.5 30t-30.5 77z" />
<glyph unicode="&#x152;" horiz-adv-x="1959" d="M121 786q0 240 59.5 398.5t153.5 253t212 132.5t232 38q51 0 103.5 -7.5t103.5 -23.5h651q49 0 89 1t69 3q33 2 57 6v-164h-686v-528h584v-156h-584v-583h500q49 0 89 1t69 3q33 2 57 6v-166h-895q-43 -8 -80 -16q-35 -6 -69.5 -10.5t-63.5 -4.5q-113 0 -228.5 37 t-209.5 130t-153.5 251t-59.5 399zM301 791q0 -190 44 -318.5t113.5 -205.5t152.5 -109.5t161 -32.5q53 0 107.5 12.5t105.5 40.5v1221q-49 29 -101.5 42t-105.5 13q-80 0 -165 -32.5t-153.5 -110.5t-113.5 -205t-45 -315z" />
<glyph unicode="&#x153;" horiz-adv-x="1988" d="M111 563q0 162 42 273.5t110.5 181t156.5 101.5t180 32q121 0 231.5 -55.5t178.5 -180.5q61 106 161.5 171t229.5 65q104 0 179 -32t125 -80t80 -107.5t46 -115.5t20 -100t4 -65v-80h-768q-4 -100 15.5 -182t60.5 -141.5t102.5 -92t143.5 -32.5q23 0 57.5 2t79.5 20.5 t98.5 58.5t112.5 118l105 -101q-78 -96 -145.5 -146t-126 -71.5t-104.5 -25t-77 -3.5q-143 0 -244.5 60.5t-160.5 163.5q-68 -121 -176.5 -172.5t-227.5 -51.5q-92 0 -180 30t-156.5 98.5t-110.5 181t-42 278.5zM283 563q0 -121 27.5 -207t72.5 -139t101.5 -77.5 t115.5 -24.5q57 0 112.5 22.5t99.5 72.5t72.5 131t33.5 198v12v24q-2 115 -30 198t-73 135.5t-101.5 77t-113.5 24.5q-59 0 -115.5 -23.5t-101.5 -77t-72.5 -138.5t-27.5 -208zM1110 723h571q-6 43 -24.5 92t-51 91t-82.5 70t-122 28q-57 0 -103.5 -21.5t-82 -59.5 t-62.5 -89.5t-43 -110.5z" />
<glyph unicode="&#x178;" horiz-adv-x="1259" d="M18 1577h211l404 -633l405 633h203l-520 -821v-756h-178v756zM317 1796q0 45 29.5 74.5t77.5 29.5q45 0 74.5 -29.5t29.5 -74.5q0 -47 -29.5 -77t-74.5 -30q-47 0 -77 30t-30 77zM729 1796q0 45 30.5 74.5t75.5 29.5q47 0 76 -29.5t29 -74.5q0 -47 -29 -77t-76 -30 q-45 0 -75.5 30t-30.5 77z" />
<glyph unicode="&#x2c6;" horiz-adv-x="1015" d="M121 1249l319 299h135l320 -299h-186l-201 195l-201 -195h-186z" />
<glyph unicode="&#x2dc;" horiz-adv-x="1099" d="M131 1380q25 29 57 52q29 20 70 36.5t94 20.5q45 4 99.5 -12.5t109.5 -36.5q47 -16 95.5 -32.5t86.5 -14.5q45 2 77 14t54 27q25 16 44 36l51 -102q-25 -29 -58 -51q-29 -20 -69.5 -36.5t-93.5 -20.5q-45 -4 -99.5 12t-109.5 37q-47 16 -95.5 32.5t-87.5 14.5 q-45 -4 -76.5 -15.5t-54.5 -25.5q-25 -16 -43 -37z" />
<glyph unicode="&#x2000;" horiz-adv-x="1029" />
<glyph unicode="&#x2001;" horiz-adv-x="2059" />
<glyph unicode="&#x2002;" horiz-adv-x="1029" />
<glyph unicode="&#x2003;" horiz-adv-x="2059" />
<glyph unicode="&#x2004;" horiz-adv-x="686" />
<glyph unicode="&#x2005;" horiz-adv-x="514" />
<glyph unicode="&#x2006;" horiz-adv-x="343" />
<glyph unicode="&#x2007;" horiz-adv-x="343" />
<glyph unicode="&#x2008;" horiz-adv-x="257" />
<glyph unicode="&#x2009;" horiz-adv-x="411" />
<glyph unicode="&#x200a;" horiz-adv-x="114" />
<glyph unicode="&#x2010;" horiz-adv-x="704" d="M111 492v143h483v-143h-483z" />
<glyph unicode="&#x2011;" horiz-adv-x="704" d="M111 492v143h483v-143h-483z" />
<glyph unicode="&#x2012;" horiz-adv-x="704" d="M111 492v143h483v-143h-483z" />
<glyph unicode="&#x2013;" horiz-adv-x="1349" d="M111 498v133h1128v-133h-1128z" />
<glyph unicode="&#x2014;" horiz-adv-x="1615" d="M111 498v133h1394v-133h-1394z" />
<glyph unicode="&#x2018;" horiz-adv-x="419" d="M90 1268q2 86 39 177t102 171l95 -51q-45 -55 -77 -112.5t-42 -125.5q55 0 89 -33t34 -82t-33 -80.5t-82 -31.5q-66 0 -95.5 48t-29.5 120z" />
<glyph unicode="&#x2019;" horiz-adv-x="419" d="M90 1462q0 49 33 81t82 32q66 0 95.5 -48t29.5 -120q-2 -86 -39 -177t-103 -171l-94 51q45 55 77 112.5t42 125.5q-55 0 -89 32.5t-34 81.5z" />
<glyph unicode="&#x201c;" horiz-adv-x="770" d="M90 1268q2 86 39 177t102 171l95 -51q-45 -55 -77 -112.5t-42 -125.5q55 0 89 -33t34 -82t-33 -80.5t-82 -31.5q-66 0 -95.5 48t-29.5 120zM440 1268q2 86 39 177t103 171l94 -51q-45 -55 -77 -112.5t-42 -125.5q55 0 89 -33t34 -82t-33 -80.5t-82 -31.5q-66 0 -95.5 48 t-29.5 120z" />
<glyph unicode="&#x201d;" horiz-adv-x="770" d="M90 1462q0 49 33 81t82 32q66 0 95.5 -48t29.5 -120q-2 -86 -39 -177t-103 -171l-94 51q45 55 77 112.5t42 125.5q-55 0 -89 32.5t-34 81.5zM440 1462q0 49 33 81t82 32q66 0 95.5 -48t29.5 -120q-2 -86 -39 -177t-102 -171l-95 51q45 55 77 112.5t42 125.5 q-55 0 -89 32.5t-34 81.5z" />
<glyph unicode="&#x2022;" horiz-adv-x="692" d="M111 487q0 49 18 92.5t50 74t76 48t95 17.5q100 0 166 -65.5t66 -166.5q0 -51 -17.5 -95t-48.5 -75.5t-74 -50t-92 -18.5q-104 0 -171.5 67.5t-67.5 171.5z" />
<glyph unicode="&#x2026;" horiz-adv-x="1257" d="M90 115q0 53 37 89t92 36q53 0 89 -36t36 -89q0 -55 -36 -92t-89 -37q-55 0 -92 37t-37 92zM502 115q0 53 36.5 89t92.5 36q53 0 89 -36t36 -89q0 -55 -36 -92t-89 -37q-55 0 -92 37t-37 92zM913 115q0 53 37 89t92 36q53 0 89 -36t36 -89q0 -55 -35.5 -92t-89.5 -37 q-55 0 -92 37t-37 92z" />
<glyph unicode="&#x202f;" horiz-adv-x="411" />
<glyph unicode="&#x205f;" horiz-adv-x="514" />
<glyph unicode="&#x2122;" horiz-adv-x="1740" d="M111 1419v117h649v-117h-252v-618h-146v618h-251zM821 801v735h140l251 -549l17 -61l16 61l246 549h139v-735h-145v499l-17 -65l-174 -434h-135l-178 434l-16 65v-499h-144z" />
<glyph unicode="&#xe000;" horiz-adv-x="1126" d="M0 0v1126h1126v-1126h-1126z" />
</font>
</defs>
</svg>
