<?xml version="1.0" encoding="utf-8"?>
<!-- Generator: Adobe Illustrator 22.0.0, SVG Export Plug-In . SVG Version: 6.00 Build 0)  -->
<svg version="1.1" id="Layer_1" xmlns="http://www.w3.org/2000/svg" xmlns:xlink="http://www.w3.org/1999/xlink" x="0px" y="0px"
	 viewBox="0 0 173.1 19.2" style="enable-background:new 0 0 173.1 19.2;" xml:space="preserve">
<style type="text/css">
	.st0{fill:#2B2B2B;}
	.st1{filter:url(#Adobe_OpacityMaskFilter);}
	.st2{fill:#FFFFFF;}
	.st3{mask:url(#mask-2_1_);fill:#2B2B2B;}
</style>
<title>Logo</title>
<desc>Created with Sketch.</desc>
<g id="Logo">
	<g id="Group-28" transform="translate(13.229351, 1.195985)">
		<path id="Fill-1" class="st0" d="M36.1,2.7c1.9,0,3.2,0.6,4.4,1.7c0.2,0.2,0.2,0.3,0,0.4l-1.4,1.5c-0.1,0.1-0.3,0.1-0.4,0
			c-0.7-0.6-1.6-1-2.4-1c-2.1,0-3.6,1.7-3.6,3.8s1.5,3.8,3.7,3.8c0.9,0,1.8-0.3,2.4-0.9c0.1-0.1,0.3-0.1,0.4,0l1.4,1.5
			c0.1,0.1,0.1,0.3,0,0.4c-1.2,1.2-2.9,1.8-4.5,1.8c-3.7,0-6.8-2.9-6.8-6.7S32.5,2.7,36.1,2.7"/>
		<path id="Fill-3" class="st0" d="M48.6,13.2c2.1,0,3.7-1.7,3.7-3.7c0-2.1-1.7-3.7-3.7-3.7c-2,0-3.7,1.7-3.7,3.7
			S46.6,13.2,48.6,13.2 M48.6,2.7c3.7,0,6.8,3,6.8,6.8s-2.9,6.7-6.8,6.7s-6.7-2.9-6.7-6.7S44.9,2.7,48.6,2.7"/>
		<path id="Fill-5" class="st0" d="M62.2,13.2c2.1,0,3.6-1.6,3.6-3.8c0-2.1-1.5-3.8-3.6-3.8h-1.8V13L62.2,13.2z M57.4,3.3
			c0-0.2,0.2-0.3,0.3-0.3h4.5c3.6,0,6.5,2.9,6.5,6.4c0,3.6-2.9,6.5-6.5,6.5h-4.5c-0.2,0-0.3-0.2-0.3-0.3V3.3z"/>
		<path id="Fill-7" class="st0" d="M71.1,3.3c0-0.2,0.2-0.3,0.3-0.3h7.7c0.2,0,0.3,0.2,0.3,0.3v2c0,0.2-0.2,0.3-0.3,0.3H74V8h4.2
			c0.2,0,0.3,0.2,0.3,0.3v2c0,0.2-0.2,0.3-0.3,0.3H74v2.5h5.1c0.2,0,0.3,0.2,0.3,0.3v2c0,0.2-0.2,0.3-0.3,0.3h-7.7
			c-0.2,0-0.3-0.2-0.3-0.3V3.3z"/>
		<path id="Fill-9" class="st0" d="M91.8,2.7c1.9,0,3.2,0.6,4.4,1.7c0.2,0.2,0.2,0.3,0,0.4l-1.4,1.5c-0.1,0.1-0.3,0.1-0.4,0
			c-0.7-0.6-1.6-1-2.4-1c-2.1,0-3.6,1.7-3.6,3.8S89.8,13,92,13c0.9,0,1.8-0.3,2.4-0.9c0.1-0.1,0.3-0.1,0.4,0l1.4,1.5
			c0.1,0.1,0.1,0.3,0,0.4c-1.2,1.2-2.9,1.8-4.5,1.8c-3.7,0-6.8-2.9-6.8-6.7S88.1,2.7,91.8,2.7"/>
		<path id="Fill-11" class="st0" d="M98.6,3.3C98.6,3.1,98.8,3,99,3h2.2c0.2,0,0.3,0.2,0.3,0.3v10h4.4c0.2,0,0.3,0.2,0.3,0.3v1.9
			c0,0.2-0.2,0.3-0.3,0.3h-7c-0.2,0-0.3-0.2-0.3-0.3L98.6,3.3L98.6,3.3z"/>
		<path id="Fill-13" class="st0" d="M108.1,3.3c0-0.2,0.2-0.3,0.3-0.3h2.3c0.2,0,0.3,0.2,0.3,0.3v12.3c0,0.2-0.2,0.3-0.3,0.3h-2.3
			c-0.2,0-0.3-0.2-0.3-0.3V3.3z"/>
		<path id="Fill-15" class="st0" d="M115.4,3c0-0.2,0.2-0.3,0.3-0.3h0.3c0.1,0,0.3,0.1,0.3,0.2l4.2,8.1l4.2-8.1
			c0.1-0.1,0.2-0.2,0.3-0.2h0.3c0.2,0,0.3,0.1,0.3,0.3l2.1,12.5c0,0.3-0.1,0.3-0.3,0.3h-2.2c-0.2,0-0.3-0.2-0.3-0.3L124,9.8
			l-3.1,6.1c-0.1,0.1-0.2,0.2-0.3,0.2h-0.3c-0.1,0-0.3-0.1-0.3-0.2l-3.1-6.1l-0.9,5.8c0,0.2-0.2,0.3-0.3,0.3h-2.2
			c-0.2,0-0.3-0.2-0.3-0.3L115.4,3z"/>
		<path id="Fill-17" class="st0" d="M136.4,11.4l-1.4-3l-1.4,3H136.4z M128.7,15.4L134.5,3c0.1-0.1,0.2-0.2,0.3-0.2h0.2
			c0.1,0,0.3,0.1,0.3,0.2l5.8,12.5c0.1,0.3,0,0.4-0.3,0.4h-2.1c-0.3,0-0.4-0.1-0.7-0.4l-0.7-1.4h-4.9l-0.7,1.5
			c-0.1,0.2-0.3,0.4-0.7,0.4h-2.1C128.7,15.9,128.7,15.7,128.7,15.4L128.7,15.4z"/>
		<path id="Fill-19" class="st0" d="M143.7,5.6H141c-0.2,0-0.3-0.2-0.3-0.3v-2c0-0.2,0.2-0.3,0.3-0.3h8.2c0.2,0,0.3,0.2,0.3,0.3v2
			c0,0.2-0.2,0.3-0.3,0.3h-2.7v9.9c0,0.2-0.2,0.3-0.3,0.3H144c-0.2,0-0.3-0.2-0.3-0.3L143.7,5.6z"/>
		<path id="Fill-21" class="st0" d="M151.5,3.3c0-0.2,0.2-0.3,0.3-0.3h7.7c0.2,0,0.3,0.2,0.3,0.3v2c0,0.2-0.2,0.3-0.3,0.3h-5.1V8
			h4.2c0.2,0,0.3,0.2,0.3,0.3v2c0,0.2-0.2,0.3-0.3,0.3h-4.2v2.5h5.1c0.2,0,0.3,0.2,0.3,0.3v2c0,0.2-0.2,0.3-0.3,0.3h-7.7
			c-0.2,0-0.3-0.2-0.3-0.3V3.3z"/>
		<polygon id="Fill-23" class="st0" points="10,-1.2 3.4,5.4 7.3,9.3 10,6.6 17.6,14.2 21.5,10.2 		"/>
		<g id="Group-27" transform="translate(0.000000, 3.635870)">
			<g id="Clip-26">
			</g>
			<defs>
				<filter id="Adobe_OpacityMaskFilter" filterUnits="userSpaceOnUse" x="-13.2" y="-1" width="23" height="15.4">
					<feColorMatrix  type="matrix" values="1 0 0 0 0  0 1 0 0 0  0 0 1 0 0  0 0 0 1 0"/>
				</filter>
			</defs>
			<mask maskUnits="userSpaceOnUse" x="-13.2" y="-1" width="23" height="15.4" id="mask-2_1_">
				<g class="st1">
					<polygon id="path-1_1_" class="st2" points="-13.2,-1 9.8,-1 9.8,14.4 -13.2,14.4 					"/>
				</g>
			</mask>
			<polygon id="Fill-25" class="st3" points="2.2,2.9 -1.7,-1 -11.8,8.9 -13.2,10.6 -9.3,14.4 -7.8,12.9 -2.8,7.8 -1.7,6.9 
				2.2,10.8 5.9,14.4 9.8,10.6 6.1,6.9 			"/>
		</g>
	</g>
</g>
</svg>
